<svg width="1254" height="372" viewBox="0 0 1254 372" fill="none" xmlns="http://www.w3.org/2000/svg">
<rect x="51" width="1170" height="360" rx="20" fill="url(#paint0_linear_269_1602)"/>
<path d="M30.6702 296.249C28.8508 293.293 27.0833 290.105 26.9794 286.57C26.5635 273.356 47.7727 268.951 47.9286 255.679C48.0326 248.434 41.6387 243.392 36.9082 238.234C32.1777 233.076 29.1627 223.397 34.8288 219.398C36.2844 218.355 38.1038 217.949 39.6113 217.08C44.7057 214.124 45.7453 206.474 43.822 200.62C41.8986 194.767 37.9478 190.014 34.9328 184.74C23.2366 164.05 27.7591 137.68 32.6455 114.034C33.5812 109.629 36.1804 104.007 40.2871 105.166C42.7823 105.862 43.9779 108.875 44.8096 111.483C48.3445 122.669 51.8794 133.855 55.4142 145.04C56.9217 149.793 59.313 155.414 63.9915 155.936C73.2965 157.095 74.7 138.375 84.005 137.042C90.0871 142.722 90.5549 152.575 89.7752 161.152C88.9954 169.73 87.5399 178.887 91.1787 186.595C94.8176 194.303 106.306 197.954 110.828 190.826C116.91 200.62 106.722 214.762 112.024 225.078C115.559 231.917 124.344 233.772 128.503 240.147C132.038 245.595 131.362 252.781 130.738 259.33C127.775 290.801 126.423 331.544 91.5426 341.397C66.2268 348.699 42.9382 316.128 30.6702 296.249Z" fill="#5A54FF"/>
<path d="M10.7085 320.069C9.61689 318.794 8.52524 317.403 8.36929 315.664C8.00541 311.549 12.6319 309.579 16.2708 308.767C19.9096 307.956 24.3801 305.116 23.2365 301.175C22.9246 300.132 22.3008 299.321 21.625 298.567C18.1422 294.684 13.8275 291.786 10.7605 287.497C7.69351 283.209 6.13401 276.775 9.04507 272.313C9.87681 271.038 11.0724 269.995 11.4883 268.488C12.32 265.706 10.3447 262.924 8.73317 260.606C4.41856 254.462 -7.12173 227.223 6.60186 224.962C11.0204 224.209 15.3351 227.455 18.0902 231.396C20.8453 235.337 22.5087 240.089 24.952 244.32C33.9971 259.91 50.1119 257.36 56.2459 276.775C56.8697 278.746 57.7534 280.948 59.5209 281.528C63.6795 282.803 66.4346 272.255 69.7096 279.384C76.2595 293.757 82.8614 313.636 77.0912 329.516C73.6603 339.079 65.6029 350.902 54.9983 348.41C38.5716 344.642 22.1449 333.283 10.7085 320.069Z" fill="#F44E4E"/>
<path d="M56.3499 335.022C55.986 335.022 55.6741 334.79 55.4662 334.442L26.1476 269.763C25.8877 269.242 26.0956 268.546 26.5635 268.314C27.0313 268.024 27.6031 268.256 27.863 268.778L57.1816 333.457C57.4415 333.979 57.2336 334.674 56.7658 334.906C56.6618 334.964 56.5058 335.022 56.3499 335.022Z" fill="white"/>
<path d="M94.5057 345.338C94.0378 345.338 93.6219 344.99 93.57 344.469L64.4593 184.451C64.3553 183.872 64.7192 183.292 65.2391 183.176C65.7589 183.06 66.2787 183.466 66.3827 184.045L95.4933 344.063C95.5973 344.643 95.2334 345.222 94.7136 345.338C94.6616 345.338 94.6096 345.338 94.5057 345.338Z" fill="white"/>
<path d="M75.1159 234.178C74.9599 234.178 74.8559 234.12 74.7 234.062C74.2321 233.83 73.9722 233.192 74.2321 232.613L86.6042 201.954C86.8121 201.432 87.3839 201.142 87.9038 201.432C88.3716 201.664 88.6315 202.302 88.3716 202.881L75.9996 233.54C75.8436 233.946 75.5317 234.178 75.1159 234.178Z" fill="white"/>
<path d="M86.2404 292.076C86.0844 292.076 85.9805 292.018 85.8245 291.96C85.3567 291.728 85.0967 291.091 85.3567 290.511L97.7287 259.852C97.9366 259.331 98.5084 259.041 99.0283 259.331C99.4961 259.562 99.756 260.2 99.4961 260.78L87.1241 291.439C86.9681 291.844 86.6043 292.076 86.2404 292.076Z" fill="white"/>
<path d="M78.2869 265.416C78.1309 265.416 78.0269 265.358 77.871 265.3L51.0996 251.217C50.6317 250.985 50.4238 250.289 50.6317 249.768C50.8397 249.246 51.4635 249.014 51.9313 249.246L78.7027 263.33C79.1706 263.561 79.3785 264.257 79.1706 264.778C79.0146 265.184 78.6507 265.416 78.2869 265.416Z" fill="white"/>
<path d="M44.4566 311.353C57.5044 305.674 71.8518 313.208 84.4318 320.105C97.0117 327.002 112.139 333.435 124.459 326.016C139.69 316.801 142.029 313.092 158.612 324.046C169.32 331.117 200.562 341.954 212.519 344.504C221.46 346.417 231.5 356.487 235 361.84C216.13 361.203 193.298 362.478 175 361.84C138.5 361.84 92 363.446 56 361.84C43.5 361.84 35.5 363.982 26 351.134C21.5 331.861 35.2556 315.352 44.4566 311.353Z" fill="#E3E5FC"/>
<path d="M47.5127 315.491C47.4607 315.491 47.4088 315.491 47.3048 315.491C46.785 315.375 46.4211 314.795 46.525 314.215L50.5797 291.67C50.6837 291.091 51.2035 290.685 51.7234 290.801C52.2432 290.917 52.6071 291.497 52.5031 292.076L48.4484 314.621C48.3445 315.143 47.9806 315.491 47.5127 315.491Z" fill="white"/>
<path d="M146.593 359.538C146.281 359.538 145.969 359.364 145.761 359.074L130.478 333.109C130.166 332.588 130.322 331.95 130.738 331.603C131.206 331.255 131.778 331.429 132.09 331.892L147.373 357.857C147.685 358.378 147.529 359.016 147.113 359.364C146.957 359.48 146.749 359.538 146.593 359.538Z" fill="white"/>
<path d="M59.5729 360.224C59.3129 360.224 59.053 360.108 58.8451 359.876L40.9108 337.968C40.547 337.505 40.5989 336.809 40.9628 336.461C41.3267 336.114 42.0025 336.114 42.3144 336.519L60.2486 358.427C60.6125 358.891 60.5605 359.586 60.1967 359.934C60.0407 360.108 59.8328 360.224 59.5729 360.224Z" fill="white"/>
<path d="M51.5154 350.372C51.3075 350.372 51.0996 350.314 50.9436 350.14C50.5277 349.792 50.4238 349.097 50.7357 348.633L58.7931 336.578C59.105 336.114 59.7288 335.998 60.1447 336.346C60.5605 336.694 60.6645 337.389 60.3526 337.853L52.2952 349.908C52.1392 350.256 51.8273 350.372 51.5154 350.372Z" fill="white"/>
<path d="M138.951 346.555C138.795 346.555 138.639 346.497 138.536 346.439L120.861 336.818C120.393 336.528 120.185 335.891 120.393 335.369C120.653 334.848 121.225 334.616 121.693 334.848L139.367 344.468C139.835 344.758 140.043 345.396 139.835 345.917C139.627 346.323 139.315 346.555 138.951 346.555Z" fill="white"/>
<path d="M134.845 339.6C134.741 339.6 134.637 339.6 134.481 339.542C133.961 339.311 133.701 338.731 133.909 338.152L138.016 326.155C138.224 325.575 138.795 325.285 139.263 325.517C139.783 325.749 140.043 326.328 139.835 326.908L135.728 338.905C135.624 339.311 135.261 339.6 134.845 339.6Z" fill="white"/>
<path d="M1203.22 308.396C1203.01 306.714 1203.01 304.759 1204.12 303.577C1206.83 300.758 1211.71 305.668 1214.94 303.577C1216.68 302.44 1216.94 299.803 1216.47 297.666C1216 295.529 1214.94 293.529 1214.81 291.346C1214.47 285.345 1220.5 281.617 1223.98 276.933C1227.25 272.569 1228.74 266.431 1233.24 263.566C1234.55 262.748 1236.21 262.248 1237.57 262.93C1240.07 264.157 1239.99 267.977 1239.43 270.886C1237.95 278.525 1236.21 287.3 1240.62 293.483C1242.32 295.847 1244.99 298.03 1244.78 300.985C1244.57 304.168 1241.26 306.032 1240.2 308.987C1238.92 312.624 1241.39 316.762 1240.41 320.536C1239.39 324.446 1235.15 326.31 1233.02 329.674C1232 331.266 1231.5 333.13 1230.35 334.585C1225.34 340.95 1216.13 336.085 1212.35 331.084C1207.47 324.628 1204.2 316.716 1203.22 308.396Z" fill="#A7ADFF"/>
<path d="M1220.12 340.717C1220.03 340.717 1219.99 340.717 1219.91 340.672C1219.48 340.535 1219.23 340.081 1219.36 339.626L1227.85 305.026C1227.97 304.572 1228.4 304.299 1228.82 304.435C1229.25 304.572 1229.5 305.026 1229.37 305.481L1220.88 340.081C1220.8 340.444 1220.46 340.717 1220.12 340.717Z" fill="white"/>
<path d="M1223.98 323.395C1223.68 323.395 1223.39 323.213 1223.26 322.894C1223.09 322.485 1223.26 321.94 1223.64 321.758L1233.58 316.757C1233.96 316.575 1234.47 316.757 1234.64 317.166C1234.81 317.575 1234.64 318.121 1234.25 318.302L1224.32 323.304C1224.19 323.395 1224.11 323.395 1223.98 323.395Z" fill="white"/>
<path d="M1221.27 335.989C1220.97 335.989 1220.71 335.807 1220.54 335.534L1213.2 320.485C1212.99 320.076 1213.16 319.575 1213.54 319.348C1213.92 319.121 1214.39 319.303 1214.6 319.712L1221.94 334.761C1222.16 335.17 1221.99 335.67 1221.61 335.898C1221.52 335.943 1221.39 335.989 1221.27 335.989Z" fill="white"/>
<path d="M1236.34 311.846C1225.73 306.708 1213.93 313.847 1203.62 320.394C1193.3 326.941 1180.86 333.079 1170.89 326.259C1158.53 317.802 1156.62 314.392 1143 324.758C1134.17 331.442 1122.36 331.465 1098.77 344.264C1094 346.637 1081.45 353.639 1079.82 360.641C1098.77 360.641 1116.91 360.641 1135.45 360.641C1169.27 360.641 1191.34 361.225 1231.7 361.225C1238.96 361.588 1250 361.225 1253.27 350.138C1254.91 321.545 1243.81 315.438 1236.34 311.846Z" fill="#E3E5FC"/>
<path d="M1209.21 304.253C1210.53 301.843 1211.5 298.161 1209.08 296.797C1208.11 296.251 1206.88 296.342 1205.77 296.433C1202.04 296.842 1198.3 297.206 1194.56 297.615C1193.38 292.75 1196.09 287.749 1199.53 284.157C1202.97 280.565 1207.26 277.746 1210.36 273.836C1213.45 269.926 1215.24 264.288 1212.82 259.924C1210.4 255.559 1202.63 254.968 1200.89 259.651C1204.41 250.876 1207.94 242.101 1211.46 233.371C1212.35 231.143 1212.99 228.052 1210.91 226.824C1209.89 226.233 1208.57 226.415 1207.38 226.733C1201.74 228.188 1196.6 231.507 1192.87 235.963C1197.24 228.234 1191.17 218.686 1184.38 213.002C1178.18 207.819 1168.71 203.818 1162.52 209.047C1155.04 215.321 1160.22 227.37 1159.12 237.054C1158.91 238.964 1158.31 240.964 1156.83 242.192C1154.45 244.147 1150.84 243.283 1148 244.465C1142.61 246.693 1142.73 254.24 1143.75 259.969C1146.6 275.928 1149.44 291.886 1152.29 307.845C1147.36 303.889 1142.48 299.934 1137.56 295.933C1135.26 294.069 1132.33 292.114 1129.62 293.296C1128.05 293.978 1127.07 295.569 1126.65 297.206C1124.78 304.39 1132 310.3 1135.52 316.847C1142.82 330.305 1133.74 371.316 1160.73 355.175C1180.68 343.172 1198.09 324.577 1209.21 304.253Z" fill="#5A54FF"/>
<path d="M1160.65 347.082C1160.61 347.082 1160.52 347.082 1160.48 347.037C1160.05 346.946 1159.8 346.446 1159.88 345.991L1182.21 248.739C1182.3 248.284 1182.76 248.011 1183.19 248.102C1183.61 248.193 1183.87 248.693 1183.78 249.148L1161.45 346.4C1161.37 346.81 1161.03 347.082 1160.65 347.082Z" fill="white"/>
<path d="M1175.25 283.566C1175 283.566 1174.74 283.43 1174.61 283.203C1174.36 282.839 1174.44 282.293 1174.83 282.021L1194.78 267.062C1195.12 266.789 1195.63 266.88 1195.88 267.29C1196.14 267.653 1196.05 268.199 1195.67 268.472L1175.72 283.43C1175.55 283.521 1175.42 283.566 1175.25 283.566Z" fill="white"/>
<path d="M1164.3 335.989C1164.04 335.989 1163.83 335.852 1163.66 335.625C1163.41 335.261 1163.49 334.716 1163.83 334.443L1188.88 314.483C1189.22 314.211 1189.73 314.301 1189.98 314.665C1190.24 315.029 1190.15 315.575 1189.81 315.847L1164.77 335.807C1164.64 335.943 1164.47 335.989 1164.3 335.989Z" fill="white"/>
<path d="M1199.49 337.853C1196.22 336.671 1192.27 336.261 1189.3 337.944C1184.93 340.444 1184.25 346.491 1179.54 348.492C1173.68 350.993 1167.06 345.264 1160.65 346.264C1155.17 347.128 1151.65 352.584 1146.09 353.084C1143.46 353.311 1140.91 352.356 1138.4 351.584C1135.9 350.811 1133.06 350.265 1130.68 351.311C1128.3 352.311 1127.11 355.585 1129.19 357.04C1130.13 357.722 1131.36 357.812 1132.55 357.949C1152.84 359.677 1173.34 360.268 1193.67 359.313C1199.45 359.04 1209.38 359.313 1211.71 353.129C1214.09 346.81 1205.22 339.899 1199.49 337.853Z" fill="#F44E4E"/>
<path d="M1193.72 360.086C1193.63 360.086 1193.59 360.086 1193.5 360.041C1193.08 359.904 1192.82 359.45 1192.95 358.995L1196.56 345.537C1196.69 345.082 1197.11 344.809 1197.54 344.946C1197.96 345.082 1198.22 345.537 1198.09 345.992L1194.48 359.45C1194.4 359.859 1194.06 360.086 1193.72 360.086Z" fill="white"/>
<path d="M1195.67 352.766C1195.41 352.766 1195.12 352.629 1194.99 352.357L1193.04 348.719C1192.82 348.31 1192.95 347.81 1193.33 347.537C1193.72 347.31 1194.18 347.446 1194.44 347.856L1196.39 351.493C1196.6 351.902 1196.48 352.402 1196.09 352.675C1195.97 352.72 1195.8 352.766 1195.67 352.766Z" fill="white"/>
<path d="M1194.8 189.077C1194.52 188.785 1194.1 188.785 1193.71 188.869C1192.07 189.202 1190.67 190.537 1190.17 192.206C1190.05 190.621 1189.74 189.035 1189.15 187.534C1188.92 186.908 1188.61 186.282 1188.1 185.907C1187.6 185.532 1186.82 185.448 1186.39 185.949C1186.04 186.324 1186 186.866 1186 187.409C1186 188.827 1186.2 190.245 1186.59 191.622C1184.41 188.827 1181.92 185.907 1178.57 185.24C1178.14 185.156 1177.68 185.115 1177.33 185.407C1176.74 185.907 1177.05 186.908 1177.4 187.576C1179.27 190.913 1183.47 194.792 1187.13 195.584C1189.31 196.001 1197.21 191.622 1194.8 189.077Z" fill="#A7ADFF"/>
<path d="M405.622 128H423.778V123.056H411.619V99.6364H405.622V128ZM437.45 128.415C442.713 128.415 446.259 125.853 447.09 121.906L441.633 121.546C441.037 123.167 439.514 124.011 437.547 124.011C434.597 124.011 432.728 122.059 432.728 118.887V118.873H447.214V117.253C447.214 110.023 442.838 106.45 437.215 106.45C430.955 106.45 426.897 110.896 426.897 117.461C426.897 124.205 430.9 128.415 437.45 128.415ZM432.728 115.217C432.852 112.793 434.694 110.854 437.312 110.854C439.874 110.854 441.647 112.683 441.661 115.217H432.728ZM462.496 106.727H458.494V101.631H452.594V106.727H449.686V111.159H452.594V122.239C452.566 126.407 455.406 128.471 459.685 128.291C461.208 128.235 462.289 127.931 462.884 127.737L461.956 123.347C461.665 123.402 461.042 123.54 460.488 123.54C459.311 123.54 458.494 123.097 458.494 121.463V111.159H462.496V106.727ZM470.251 99.6364H466.041V110.411H470.251V99.6364ZM492.424 112.793C491.897 108.874 488.74 106.45 483.366 106.45C477.923 106.45 474.336 108.971 474.35 113.07C474.336 116.256 476.344 118.319 480.499 119.15L484.183 119.884C486.039 120.258 486.884 120.937 486.912 122.003C486.884 123.263 485.513 124.164 483.449 124.164C481.344 124.164 479.945 123.263 479.585 121.532L473.782 121.837C474.336 125.909 477.799 128.415 483.435 128.415C488.947 128.415 492.895 125.604 492.908 121.408C492.895 118.333 490.886 116.491 486.759 115.646L482.909 114.871C480.929 114.441 480.195 113.763 480.208 112.738C480.195 111.464 481.635 110.633 483.463 110.633C485.513 110.633 486.732 111.755 487.022 113.126L492.424 112.793ZM521.381 107.794H527.129C527.046 102.739 522.891 99.2486 516.576 99.2486C510.357 99.2486 505.801 102.683 505.828 107.835C505.815 112.018 508.765 114.414 513.556 115.563L516.645 116.339C519.733 117.087 521.451 117.973 521.464 119.884C521.451 121.962 519.484 123.374 516.437 123.374C513.321 123.374 511.077 121.934 510.883 119.095H505.081C505.233 125.23 509.623 128.402 516.506 128.402C523.431 128.402 527.503 125.092 527.517 119.898C527.503 115.175 523.944 112.669 519.013 111.561L516.465 110.951C514 110.384 511.936 109.469 511.978 107.434C511.978 105.605 513.598 104.262 516.534 104.262C519.401 104.262 521.16 105.564 521.381 107.794ZM542.871 106.727H538.869V101.631H532.969V106.727H530.061V111.159H532.969V122.239C532.941 126.407 535.781 128.471 540.06 128.291C541.583 128.235 542.664 127.931 543.259 127.737L542.331 123.347C542.041 123.402 541.417 123.54 540.863 123.54C539.686 123.54 538.869 123.097 538.869 121.463V111.159H542.871V106.727ZM552.898 128.402C556.042 128.402 558.077 127.031 559.116 125.05H559.282V128H564.878V113.652C564.878 108.583 560.584 106.45 555.848 106.45C550.751 106.45 547.4 108.888 546.582 112.766L552.039 113.209C552.441 111.796 553.701 110.757 555.82 110.757C557.828 110.757 558.978 111.768 558.978 113.513V113.597C558.978 114.968 557.523 115.148 553.826 115.508C549.615 115.896 545.835 117.308 545.835 122.059C545.835 126.269 548.84 128.402 552.898 128.402ZM554.587 124.33C552.773 124.33 551.471 123.485 551.471 121.865C551.471 120.203 552.842 119.386 554.92 119.095C556.208 118.915 558.313 118.61 559.019 118.139V120.397C559.019 122.626 557.177 124.33 554.587 124.33ZM569.572 128H575.472V115.965C575.472 113.347 577.383 111.547 579.987 111.547C580.804 111.547 581.925 111.685 582.479 111.865V106.63C581.953 106.506 581.219 106.423 580.624 106.423C578.241 106.423 576.289 107.808 575.513 110.439H575.292V106.727H569.572V128ZM598.028 106.727H594.026V101.631H588.126V106.727H585.217V111.159H588.126V122.239C588.098 126.407 590.937 128.471 595.217 128.291C596.74 128.235 597.82 127.931 598.416 127.737L597.488 123.347C597.197 123.402 596.574 123.54 596.02 123.54C594.843 123.54 594.026 123.097 594.026 121.463V111.159H598.028V106.727ZM611.243 128H623.361C629.732 128 633.125 124.676 633.125 120.161C633.125 115.965 630.119 113.43 626.892 113.278V113.001C629.842 112.336 632.017 110.245 632.017 106.907C632.017 102.656 628.859 99.6364 622.599 99.6364H611.243V128ZM617.239 123.097V115.563H622.267C625.147 115.563 626.934 117.225 626.934 119.566C626.934 121.699 625.48 123.097 622.128 123.097H617.239ZM617.239 111.505V104.484H621.796C624.455 104.484 625.964 105.855 625.964 107.904C625.964 110.148 624.136 111.505 621.685 111.505H617.239ZM650.675 118.942C650.688 121.795 648.736 123.291 646.617 123.291C644.387 123.291 642.947 121.726 642.933 119.219V106.727H637.033V120.272C637.047 125.244 639.955 128.277 644.235 128.277C647.434 128.277 649.733 126.629 650.688 124.136H650.91V128H656.574V106.727H650.675V118.942ZM661.411 128H667.311V106.727H661.411V128ZM664.374 103.985C666.133 103.985 667.574 102.642 667.574 100.994C667.574 99.3594 666.133 98.016 664.374 98.016C662.629 98.016 661.189 99.3594 661.189 100.994C661.189 102.642 662.629 103.985 664.374 103.985ZM678.054 99.6364H672.154V128H678.054V99.6364ZM690.735 128.346C694.17 128.346 695.957 126.366 696.774 124.593H697.023V128H702.84V99.6364H696.954V110.3H696.774C695.984 108.569 694.281 106.45 690.722 106.45C686.054 106.45 682.107 110.079 682.107 117.391C682.107 124.51 685.888 128.346 690.735 128.346ZM692.605 123.651C689.711 123.651 688.132 121.075 688.132 117.364C688.132 113.68 689.683 111.145 692.605 111.145C695.472 111.145 697.078 113.569 697.078 117.364C697.078 121.158 695.444 123.651 692.605 123.651ZM707.808 128H713.707V106.727H707.808V128ZM710.771 103.985C712.53 103.985 713.971 102.642 713.971 100.994C713.971 99.3594 712.53 98.016 710.771 98.016C709.026 98.016 707.586 99.3594 707.586 100.994C707.586 102.642 709.026 103.985 710.771 103.985ZM724.45 115.702C724.464 112.96 726.098 111.353 728.481 111.353C730.849 111.353 732.275 112.904 732.261 115.508V128H738.161V114.455C738.161 109.497 735.253 106.45 730.821 106.45C727.663 106.45 725.378 108.001 724.423 110.48H724.173V106.727H718.551V128H724.45V115.702ZM752.512 136.42C758.592 136.42 762.913 133.651 762.913 128.208V106.727H757.055V110.3H756.833C756.044 108.569 754.312 106.45 750.753 106.45C746.086 106.45 742.139 110.079 742.139 117.322C742.139 124.399 745.975 127.695 750.767 127.695C754.16 127.695 756.058 125.992 756.833 124.233H757.082V128.125C757.082 131.047 755.213 132.183 752.651 132.183C750.047 132.183 748.731 131.047 748.246 129.759L742.79 130.493C743.496 133.844 746.778 136.42 752.512 136.42ZM752.637 123.263C749.742 123.263 748.163 120.964 748.163 117.294C748.163 113.68 749.714 111.145 752.637 111.145C755.504 111.145 757.11 113.569 757.11 117.294C757.11 121.048 755.476 123.263 752.637 123.263ZM775.317 99.6364L785.663 117.973V128H791.618V117.973L801.963 99.6364H795.247L788.779 111.852H788.502L782.034 99.6364H775.317ZM810.439 128.415C816.892 128.415 820.909 123.998 820.909 117.447C820.909 110.854 816.892 106.45 810.439 106.45C803.985 106.45 799.968 110.854 799.968 117.447C799.968 123.998 803.985 128.415 810.439 128.415ZM810.466 123.845C807.489 123.845 805.965 121.117 805.965 117.405C805.965 113.694 807.489 110.951 810.466 110.951C813.389 110.951 814.912 113.694 814.912 117.405C814.912 121.117 813.389 123.845 810.466 123.845ZM838.504 118.942C838.518 121.795 836.565 123.291 834.446 123.291C832.216 123.291 830.776 121.726 830.762 119.219V106.727H824.862V120.272C824.876 125.244 827.784 128.277 832.064 128.277C835.263 128.277 837.562 126.629 838.518 124.136H838.739V128H844.404V106.727H838.504V118.942ZM849.24 128H855.14V115.965C855.14 113.347 857.051 111.547 859.655 111.547C860.472 111.547 861.594 111.685 862.148 111.865V106.63C861.621 106.506 860.887 106.423 860.292 106.423C857.91 106.423 855.957 107.808 855.181 110.439H854.96V106.727H849.24V128ZM482.841 183H488.685L494.073 164.456H494.294L499.696 183H505.54L513.656 154.636H507.105L502.41 174.386H502.161L496.995 154.636H491.386L486.206 174.344H485.971L481.276 154.636H474.725L482.841 183ZM524.281 183.415C529.544 183.415 533.089 180.853 533.92 176.906L528.464 176.546C527.868 178.167 526.345 179.011 524.378 179.011C521.428 179.011 519.558 177.059 519.558 173.887V173.873H534.045V172.253C534.045 165.023 529.669 161.45 524.046 161.45C517.786 161.45 513.728 165.896 513.728 172.461C513.728 179.205 517.73 183.415 524.281 183.415ZM519.558 170.217C519.683 167.793 521.525 165.854 524.143 165.854C526.705 165.854 528.477 167.683 528.491 170.217H519.558ZM538.123 183H543.94V179.593H544.203C545.02 181.366 546.806 183.346 550.241 183.346C555.088 183.346 558.869 179.51 558.869 172.391C558.869 165.079 554.922 161.45 550.255 161.45C546.696 161.45 544.992 163.569 544.203 165.3H544.023V154.636H538.123V183ZM543.898 172.364C543.898 168.569 545.505 166.145 548.371 166.145C551.294 166.145 552.845 168.68 552.845 172.364C552.845 176.075 551.266 178.651 548.371 178.651C545.532 178.651 543.898 176.158 543.898 172.364ZM580.623 167.793C580.096 163.874 576.939 161.45 571.565 161.45C566.122 161.45 562.535 163.971 562.549 168.07C562.535 171.256 564.543 173.319 568.698 174.15L572.382 174.884C574.238 175.258 575.083 175.937 575.111 177.003C575.083 178.263 573.712 179.164 571.648 179.164C569.543 179.164 568.144 178.263 567.784 176.532L561.981 176.837C562.535 180.909 565.998 183.415 571.634 183.415C577.146 183.415 581.093 180.604 581.107 176.408C581.093 173.333 579.085 171.491 574.958 170.646L571.108 169.871C569.128 169.441 568.394 168.763 568.407 167.738C568.394 166.464 569.834 165.633 571.662 165.633C573.712 165.633 574.93 166.755 575.221 168.126L580.623 167.793ZM584.939 183H590.839V161.727H584.939V183ZM587.903 158.985C589.662 158.985 591.102 157.642 591.102 155.994C591.102 154.359 589.662 153.016 587.903 153.016C586.158 153.016 584.718 154.359 584.718 155.994C584.718 157.642 586.158 158.985 587.903 158.985ZM606.997 161.727H602.995V156.631H597.095V161.727H594.187V166.159H597.095V177.239C597.067 181.407 599.906 183.471 604.186 183.291C605.709 183.235 606.79 182.931 607.385 182.737L606.457 178.347C606.166 178.402 605.543 178.54 604.989 178.54C603.812 178.54 602.995 178.097 602.995 176.463V166.159H606.997V161.727ZM620.424 183.415C625.686 183.415 629.232 180.853 630.063 176.906L624.606 176.546C624.011 178.167 622.487 179.011 620.521 179.011C617.571 179.011 615.701 177.059 615.701 173.887V173.873H630.188V172.253C630.188 165.023 625.811 161.45 620.188 161.45C613.928 161.45 609.87 165.896 609.87 172.461C609.87 179.205 613.873 183.415 620.424 183.415ZM615.701 170.217C615.826 167.793 617.668 165.854 620.285 165.854C622.847 165.854 624.62 167.683 624.634 170.217H615.701ZM649.793 183H655.638L661.025 164.456H661.247L666.648 183H672.493L680.608 154.636H674.058L669.363 174.386H669.113L663.948 154.636H658.339L653.159 174.344H652.923L648.228 154.636H641.678L649.793 183ZM683.824 183H689.724V161.727H683.824V183ZM686.788 158.985C688.547 158.985 689.987 157.642 689.987 155.994C689.987 154.359 688.547 153.016 686.788 153.016C685.043 153.016 683.603 154.359 683.603 155.994C683.603 157.642 685.043 158.985 686.788 158.985ZM705.882 161.727H701.88V156.631H695.98V161.727H693.071V166.159H695.98V177.239C695.952 181.407 698.791 183.471 703.071 183.291C704.594 183.235 705.674 182.931 706.27 182.737L705.342 178.347C705.051 178.402 704.428 178.54 703.874 178.54C702.697 178.54 701.88 178.097 701.88 176.463V166.159H705.882V161.727ZM716.199 170.702C716.213 167.96 717.889 166.353 720.299 166.353C722.695 166.353 724.107 167.89 724.094 170.508V183H729.993V169.455C730.007 164.469 727.071 161.45 722.639 161.45C719.412 161.45 717.252 162.974 716.282 165.48H716.033V154.636H710.299V183H716.199V170.702ZM761.527 154.636V172.544C761.527 175.784 759.256 178.125 755.766 178.125C752.289 178.125 750.004 175.784 750.004 172.544V154.636H744.008V173.056C744.008 179.261 748.689 183.402 755.766 183.402C762.815 183.402 767.524 179.261 767.524 173.056V154.636H761.527ZM790.164 167.793C789.637 163.874 786.48 161.45 781.106 161.45C775.663 161.45 772.076 163.971 772.09 168.07C772.076 171.256 774.084 173.319 778.239 174.15L781.923 174.884C783.779 175.258 784.624 175.937 784.651 177.003C784.624 178.263 783.253 179.164 781.189 179.164C779.084 179.164 777.685 178.263 777.325 176.532L771.522 176.837C772.076 180.909 775.539 183.415 781.175 183.415C786.687 183.415 790.634 180.604 790.648 176.408C790.634 173.333 788.626 171.491 784.499 170.646L780.649 169.871C778.668 169.441 777.934 168.763 777.948 167.738C777.934 166.464 779.375 165.633 781.203 165.633C783.253 165.633 784.471 166.755 784.762 168.126L790.164 167.793Z" fill="white"/>
<path d="M272.816 243.256C273.221 243.32 273.589 243.485 273.92 243.752C274.261 244.019 274.528 244.349 274.72 244.744C274.923 245.139 275.024 245.56 275.024 246.008C275.024 246.573 274.88 247.085 274.592 247.544C274.304 247.992 273.883 248.349 273.328 248.616C272.784 248.872 272.139 249 271.392 249H267.232V237.848H271.232C271.989 237.848 272.635 237.976 273.168 238.232C273.701 238.477 274.101 238.813 274.368 239.24C274.635 239.667 274.768 240.147 274.768 240.68C274.768 241.341 274.587 241.891 274.224 242.328C273.872 242.755 273.403 243.064 272.816 243.256ZM268.688 242.664H271.136C271.819 242.664 272.347 242.504 272.72 242.184C273.093 241.864 273.28 241.421 273.28 240.856C273.28 240.291 273.093 239.848 272.72 239.528C272.347 239.208 271.808 239.048 271.104 239.048H268.688V242.664ZM271.264 247.8C271.989 247.8 272.555 247.629 272.96 247.288C273.365 246.947 273.568 246.472 273.568 245.864C273.568 245.245 273.355 244.76 272.928 244.408C272.501 244.045 271.931 243.864 271.216 243.864H268.688V247.8H271.264ZM284.869 240.232V249H283.413V247.704C283.135 248.152 282.746 248.504 282.245 248.76C281.754 249.005 281.21 249.128 280.613 249.128C279.93 249.128 279.317 248.989 278.773 248.712C278.229 248.424 277.797 247.997 277.477 247.432C277.167 246.867 277.013 246.179 277.013 245.368V240.232H278.453V245.176C278.453 246.04 278.671 246.707 279.109 247.176C279.546 247.635 280.143 247.864 280.901 247.864C281.679 247.864 282.293 247.624 282.741 247.144C283.189 246.664 283.413 245.965 283.413 245.048V240.232H284.869ZM288.127 238.808C287.85 238.808 287.615 238.712 287.423 238.52C287.231 238.328 287.135 238.093 287.135 237.816C287.135 237.539 287.231 237.304 287.423 237.112C287.615 236.92 287.85 236.824 288.127 236.824C288.394 236.824 288.618 236.92 288.799 237.112C288.991 237.304 289.087 237.539 289.087 237.816C289.087 238.093 288.991 238.328 288.799 238.52C288.618 238.712 288.394 238.808 288.127 238.808ZM288.831 240.232V249H287.375V240.232H288.831ZM292.816 237.16V249H291.36V237.16H292.816ZM294.802 244.584C294.802 243.688 294.983 242.904 295.346 242.232C295.709 241.549 296.205 241.021 296.834 240.648C297.474 240.275 298.189 240.088 298.978 240.088C299.661 240.088 300.295 240.248 300.882 240.568C301.469 240.877 301.917 241.288 302.226 241.8V237.16H303.698V249H302.226V247.352C301.938 247.875 301.511 248.307 300.946 248.648C300.381 248.979 299.719 249.144 298.962 249.144C298.183 249.144 297.474 248.952 296.834 248.568C296.205 248.184 295.709 247.645 295.346 246.952C294.983 246.259 294.802 245.469 294.802 244.584ZM302.226 244.6C302.226 243.939 302.093 243.363 301.826 242.872C301.559 242.381 301.197 242.008 300.738 241.752C300.29 241.485 299.794 241.352 299.25 241.352C298.706 241.352 298.21 241.48 297.762 241.736C297.314 241.992 296.957 242.365 296.69 242.856C296.423 243.347 296.29 243.923 296.29 244.584C296.29 245.256 296.423 245.843 296.69 246.344C296.957 246.835 297.314 247.213 297.762 247.48C298.21 247.736 298.706 247.864 299.25 247.864C299.794 247.864 300.29 247.736 300.738 247.48C301.197 247.213 301.559 246.835 301.826 246.344C302.093 245.843 302.226 245.261 302.226 244.6ZM306.958 238.808C306.681 238.808 306.446 238.712 306.254 238.52C306.062 238.328 305.966 238.093 305.966 237.816C305.966 237.539 306.062 237.304 306.254 237.112C306.446 236.92 306.681 236.824 306.958 236.824C307.225 236.824 307.449 236.92 307.63 237.112C307.822 237.304 307.918 237.539 307.918 237.816C307.918 238.093 307.822 238.328 307.63 238.52C307.449 238.712 307.225 238.808 306.958 238.808ZM307.662 240.232V249H306.206V240.232H307.662ZM314.464 240.072C315.531 240.072 316.395 240.397 317.056 241.048C317.717 241.688 318.048 242.616 318.048 243.832V249H316.608V244.04C316.608 243.165 316.389 242.499 315.952 242.04C315.515 241.571 314.917 241.336 314.16 241.336C313.392 241.336 312.779 241.576 312.32 242.056C311.872 242.536 311.648 243.235 311.648 244.152V249H310.192V240.232H311.648V241.48C311.936 241.032 312.325 240.685 312.816 240.44C313.317 240.195 313.867 240.072 314.464 240.072ZM324.09 240.088C324.848 240.088 325.509 240.253 326.074 240.584C326.65 240.915 327.077 241.331 327.354 241.832V240.232H328.826V249.192C328.826 249.992 328.656 250.701 328.314 251.32C327.973 251.949 327.482 252.44 326.842 252.792C326.213 253.144 325.477 253.32 324.634 253.32C323.482 253.32 322.522 253.048 321.754 252.504C320.986 251.96 320.533 251.219 320.394 250.28H321.834C321.994 250.813 322.325 251.24 322.826 251.56C323.328 251.891 323.93 252.056 324.634 252.056C325.434 252.056 326.085 251.805 326.586 251.304C327.098 250.803 327.354 250.099 327.354 249.192V247.352C327.066 247.864 326.64 248.291 326.074 248.632C325.509 248.973 324.848 249.144 324.09 249.144C323.312 249.144 322.602 248.952 321.962 248.568C321.333 248.184 320.837 247.645 320.474 246.952C320.112 246.259 319.93 245.469 319.93 244.584C319.93 243.688 320.112 242.904 320.474 242.232C320.837 241.549 321.333 241.021 321.962 240.648C322.602 240.275 323.312 240.088 324.09 240.088ZM327.354 244.6C327.354 243.939 327.221 243.363 326.954 242.872C326.688 242.381 326.325 242.008 325.866 241.752C325.418 241.485 324.922 241.352 324.378 241.352C323.834 241.352 323.338 241.48 322.89 241.736C322.442 241.992 322.085 242.365 321.818 242.856C321.552 243.347 321.418 243.923 321.418 244.584C321.418 245.256 321.552 245.843 321.818 246.344C322.085 246.835 322.442 247.213 322.89 247.48C323.338 247.736 323.834 247.864 324.378 247.864C324.922 247.864 325.418 247.736 325.866 247.48C326.325 247.213 326.688 246.835 326.954 246.344C327.221 245.843 327.354 245.261 327.354 244.6ZM335.104 244.584C335.104 243.688 335.286 242.904 335.648 242.232C336.011 241.549 336.507 241.021 337.136 240.648C337.776 240.275 338.486 240.088 339.264 240.088C340.032 240.088 340.699 240.253 341.264 240.584C341.83 240.915 342.251 241.331 342.528 241.832V240.232H344V249H342.528V247.368C342.24 247.88 341.808 248.307 341.232 248.648C340.667 248.979 340.006 249.144 339.248 249.144C338.47 249.144 337.766 248.952 337.136 248.568C336.507 248.184 336.011 247.645 335.648 246.952C335.286 246.259 335.104 245.469 335.104 244.584ZM342.528 244.6C342.528 243.939 342.395 243.363 342.128 242.872C341.862 242.381 341.499 242.008 341.04 241.752C340.592 241.485 340.096 241.352 339.552 241.352C339.008 241.352 338.512 241.48 338.064 241.736C337.616 241.992 337.259 242.365 336.992 242.856C336.726 243.347 336.592 243.923 336.592 244.584C336.592 245.256 336.726 245.843 336.992 246.344C337.259 246.835 337.616 247.213 338.064 247.48C338.512 247.736 339.008 247.864 339.552 247.864C340.096 247.864 340.592 247.736 341.04 247.48C341.499 247.213 341.862 246.835 342.128 246.344C342.395 245.843 342.528 245.261 342.528 244.6ZM362.503 240.232L359.767 249H358.263L356.151 242.04L354.039 249H352.535L349.782 240.232H351.27L353.286 247.592L355.463 240.232H356.951L359.079 247.608L361.062 240.232H362.503ZM371.995 244.28C371.995 244.557 371.979 244.851 371.947 245.16H364.939C364.993 246.024 365.286 246.701 365.819 247.192C366.363 247.672 367.019 247.912 367.787 247.912C368.417 247.912 368.939 247.768 369.355 247.48C369.782 247.181 370.081 246.787 370.251 246.296H371.819C371.585 247.139 371.115 247.827 370.411 248.36C369.707 248.883 368.833 249.144 367.787 249.144C366.955 249.144 366.209 248.957 365.547 248.584C364.897 248.211 364.385 247.683 364.011 247C363.638 246.307 363.451 245.507 363.451 244.6C363.451 243.693 363.633 242.899 363.995 242.216C364.358 241.533 364.865 241.011 365.515 240.648C366.177 240.275 366.934 240.088 367.787 240.088C368.619 240.088 369.355 240.269 369.995 240.632C370.635 240.995 371.126 241.496 371.467 242.136C371.819 242.765 371.995 243.48 371.995 244.28ZM370.491 243.976C370.491 243.421 370.369 242.947 370.123 242.552C369.878 242.147 369.542 241.843 369.115 241.64C368.699 241.427 368.235 241.32 367.723 241.32C366.987 241.32 366.358 241.555 365.835 242.024C365.323 242.493 365.03 243.144 364.955 243.976H370.491ZM375.421 241.864C375.72 241.341 376.157 240.915 376.733 240.584C377.309 240.253 377.965 240.088 378.701 240.088C379.491 240.088 380.2 240.275 380.829 240.648C381.459 241.021 381.955 241.549 382.317 242.232C382.68 242.904 382.861 243.688 382.861 244.584C382.861 245.469 382.68 246.259 382.317 246.952C381.955 247.645 381.453 248.184 380.813 248.568C380.184 248.952 379.48 249.144 378.701 249.144C377.944 249.144 377.277 248.979 376.701 248.648C376.136 248.317 375.709 247.896 375.421 247.384V249H373.965V237.16H375.421V241.864ZM381.373 244.584C381.373 243.923 381.24 243.347 380.973 242.856C380.707 242.365 380.344 241.992 379.885 241.736C379.437 241.48 378.941 241.352 378.397 241.352C377.864 241.352 377.368 241.485 376.909 241.752C376.461 242.008 376.099 242.387 375.821 242.888C375.555 243.379 375.421 243.949 375.421 244.6C375.421 245.261 375.555 245.843 375.821 246.344C376.099 246.835 376.461 247.213 376.909 247.48C377.368 247.736 377.864 247.864 378.397 247.864C378.941 247.864 379.437 247.736 379.885 247.48C380.344 247.213 380.707 246.835 380.973 246.344C381.24 245.843 381.373 245.256 381.373 244.584ZM387.93 249.144C387.258 249.144 386.655 249.032 386.122 248.808C385.589 248.573 385.167 248.253 384.858 247.848C384.549 247.432 384.378 246.957 384.346 246.424H385.85C385.893 246.861 386.095 247.219 386.458 247.496C386.831 247.773 387.317 247.912 387.914 247.912C388.469 247.912 388.906 247.789 389.226 247.544C389.546 247.299 389.706 246.989 389.706 246.616C389.706 246.232 389.535 245.949 389.194 245.768C388.853 245.576 388.325 245.389 387.61 245.208C386.959 245.037 386.426 244.867 386.01 244.696C385.605 244.515 385.253 244.253 384.954 243.912C384.666 243.56 384.522 243.101 384.522 242.536C384.522 242.088 384.655 241.677 384.922 241.304C385.189 240.931 385.567 240.637 386.058 240.424C386.549 240.2 387.109 240.088 387.738 240.088C388.709 240.088 389.493 240.333 390.09 240.824C390.687 241.315 391.007 241.987 391.05 242.84H389.594C389.562 242.381 389.375 242.013 389.034 241.736C388.703 241.459 388.255 241.32 387.69 241.32C387.167 241.32 386.751 241.432 386.442 241.656C386.133 241.88 385.978 242.173 385.978 242.536C385.978 242.824 386.069 243.064 386.25 243.256C386.442 243.437 386.677 243.587 386.954 243.704C387.242 243.811 387.637 243.933 388.138 244.072C388.767 244.243 389.279 244.413 389.674 244.584C390.069 244.744 390.405 244.989 390.682 245.32C390.97 245.651 391.119 246.083 391.13 246.616C391.13 247.096 390.997 247.528 390.73 247.912C390.463 248.296 390.085 248.6 389.594 248.824C389.114 249.037 388.559 249.144 387.93 249.144ZM393.985 238.808C393.708 238.808 393.473 238.712 393.281 238.52C393.089 238.328 392.993 238.093 392.993 237.816C392.993 237.539 393.089 237.304 393.281 237.112C393.473 236.92 393.708 236.824 393.985 236.824C394.252 236.824 394.476 236.92 394.657 237.112C394.849 237.304 394.945 237.539 394.945 237.816C394.945 238.093 394.849 238.328 394.657 238.52C394.476 238.712 394.252 238.808 393.985 238.808ZM394.689 240.232V249H393.233V240.232H394.689ZM398.995 241.432V246.6C398.995 247.027 399.085 247.331 399.267 247.512C399.448 247.683 399.763 247.768 400.211 247.768H401.283V249H399.971C399.16 249 398.552 248.813 398.147 248.44C397.741 248.067 397.539 247.453 397.539 246.6V241.432H396.403V240.232H397.539V238.024H398.995V240.232H401.283V241.432H398.995ZM411.095 244.28C411.095 244.557 411.079 244.851 411.047 245.16H404.039C404.092 246.024 404.386 246.701 404.919 247.192C405.463 247.672 406.119 247.912 406.887 247.912C407.516 247.912 408.039 247.768 408.455 247.48C408.882 247.181 409.18 246.787 409.351 246.296H410.919C410.684 247.139 410.215 247.827 409.511 248.36C408.807 248.883 407.932 249.144 406.887 249.144C406.055 249.144 405.308 248.957 404.647 248.584C403.996 248.211 403.484 247.683 403.111 247C402.738 246.307 402.551 245.507 402.551 244.6C402.551 243.693 402.732 242.899 403.095 242.216C403.458 241.533 403.964 241.011 404.615 240.648C405.276 240.275 406.034 240.088 406.887 240.088C407.719 240.088 408.455 240.269 409.095 240.632C409.735 240.995 410.226 241.496 410.567 242.136C410.919 242.765 411.095 243.48 411.095 244.28ZM409.591 243.976C409.591 243.421 409.468 242.947 409.223 242.552C408.978 242.147 408.642 241.843 408.215 241.64C407.799 241.427 407.335 241.32 406.823 241.32C406.087 241.32 405.458 241.555 404.935 242.024C404.423 242.493 404.13 243.144 404.055 243.976H409.591ZM418.13 238.808C417.853 238.808 417.618 238.712 417.426 238.52C417.234 238.328 417.138 238.093 417.138 237.816C417.138 237.539 417.234 237.304 417.426 237.112C417.618 236.92 417.853 236.824 418.13 236.824C418.397 236.824 418.621 236.92 418.802 237.112C418.994 237.304 419.09 237.539 419.09 237.816C419.09 238.093 418.994 238.328 418.802 238.52C418.621 238.712 418.397 238.808 418.13 238.808ZM418.834 240.232V249H417.378V240.232H418.834ZM424.468 249.144C423.796 249.144 423.193 249.032 422.66 248.808C422.127 248.573 421.705 248.253 421.396 247.848C421.087 247.432 420.916 246.957 420.884 246.424H422.388C422.431 246.861 422.633 247.219 422.996 247.496C423.369 247.773 423.855 247.912 424.452 247.912C425.007 247.912 425.444 247.789 425.764 247.544C426.084 247.299 426.244 246.989 426.244 246.616C426.244 246.232 426.073 245.949 425.732 245.768C425.391 245.576 424.863 245.389 424.148 245.208C423.497 245.037 422.964 244.867 422.548 244.696C422.143 244.515 421.791 244.253 421.492 243.912C421.204 243.56 421.06 243.101 421.06 242.536C421.06 242.088 421.193 241.677 421.46 241.304C421.727 240.931 422.105 240.637 422.596 240.424C423.087 240.2 423.647 240.088 424.276 240.088C425.247 240.088 426.031 240.333 426.628 240.824C427.225 241.315 427.545 241.987 427.588 242.84H426.132C426.1 242.381 425.913 242.013 425.572 241.736C425.241 241.459 424.793 241.32 424.228 241.32C423.705 241.32 423.289 241.432 422.98 241.656C422.671 241.88 422.516 242.173 422.516 242.536C422.516 242.824 422.607 243.064 422.788 243.256C422.98 243.437 423.215 243.587 423.492 243.704C423.78 243.811 424.175 243.933 424.676 244.072C425.305 244.243 425.817 244.413 426.212 244.584C426.607 244.744 426.943 244.989 427.22 245.32C427.508 245.651 427.657 246.083 427.668 246.616C427.668 247.096 427.535 247.528 427.268 247.912C427.001 248.296 426.623 248.6 426.132 248.824C425.652 249.037 425.097 249.144 424.468 249.144ZM437.909 249.144C437.088 249.144 436.341 248.957 435.669 248.584C435.008 248.211 434.485 247.683 434.101 247C433.728 246.307 433.541 245.507 433.541 244.6C433.541 243.704 433.733 242.915 434.117 242.232C434.512 241.539 435.045 241.011 435.717 240.648C436.389 240.275 437.141 240.088 437.973 240.088C438.805 240.088 439.557 240.275 440.229 240.648C440.901 241.011 441.429 241.533 441.813 242.216C442.208 242.899 442.405 243.693 442.405 244.6C442.405 245.507 442.202 246.307 441.797 247C441.402 247.683 440.864 248.211 440.181 248.584C439.498 248.957 438.741 249.144 437.909 249.144ZM437.909 247.864C438.432 247.864 438.922 247.741 439.381 247.496C439.84 247.251 440.208 246.883 440.485 246.392C440.773 245.901 440.917 245.304 440.917 244.6C440.917 243.896 440.778 243.299 440.501 242.808C440.224 242.317 439.861 241.955 439.413 241.72C438.965 241.475 438.48 241.352 437.957 241.352C437.424 241.352 436.933 241.475 436.485 241.72C436.048 241.955 435.696 242.317 435.429 242.808C435.162 243.299 435.029 243.896 435.029 244.6C435.029 245.315 435.157 245.917 435.413 246.408C435.68 246.899 436.032 247.267 436.469 247.512C436.906 247.747 437.386 247.864 437.909 247.864ZM452.143 240.232V249H450.687V247.704C450.41 248.152 450.021 248.504 449.519 248.76C449.029 249.005 448.485 249.128 447.887 249.128C447.205 249.128 446.591 248.989 446.047 248.712C445.503 248.424 445.071 247.997 444.751 247.432C444.442 246.867 444.287 246.179 444.287 245.368V240.232H445.727V245.176C445.727 246.04 445.946 246.707 446.383 247.176C446.821 247.635 447.418 247.864 448.175 247.864C448.954 247.864 449.567 247.624 450.015 247.144C450.463 246.664 450.687 245.965 450.687 245.048V240.232H452.143ZM456.106 241.656C456.362 241.155 456.724 240.765 457.194 240.488C457.674 240.211 458.255 240.072 458.938 240.072V241.576H458.554C456.922 241.576 456.106 242.461 456.106 244.232V249H454.65V240.232H456.106V241.656ZM465.764 238.808C465.487 238.808 465.252 238.712 465.06 238.52C464.879 238.328 464.788 238.093 464.788 237.816C464.788 237.539 464.879 237.304 465.06 237.112C465.252 236.92 465.487 236.824 465.764 236.824C466.041 236.824 466.271 236.92 466.452 237.112C466.644 237.304 466.74 237.539 466.74 237.816C466.74 238.093 466.644 238.328 466.452 238.52C466.271 238.712 466.041 238.808 465.764 238.808ZM466.484 250.904C466.484 251.683 466.287 252.253 465.892 252.616C465.497 252.979 464.921 253.16 464.164 253.16H463.316V251.928H463.924C464.329 251.928 464.612 251.848 464.772 251.688C464.943 251.528 465.028 251.256 465.028 250.872V240.232H466.484V250.904ZM472.821 249.144C471.999 249.144 471.253 248.957 470.581 248.584C469.919 248.211 469.397 247.683 469.013 247C468.639 246.307 468.453 245.507 468.453 244.6C468.453 243.704 468.645 242.915 469.029 242.232C469.423 241.539 469.957 241.011 470.629 240.648C471.301 240.275 472.053 240.088 472.885 240.088C473.717 240.088 474.469 240.275 475.141 240.648C475.813 241.011 476.341 241.533 476.725 242.216C477.119 242.899 477.317 243.693 477.317 244.6C477.317 245.507 477.114 246.307 476.709 247C476.314 247.683 475.775 248.211 475.093 248.584C474.41 248.957 473.653 249.144 472.821 249.144ZM472.821 247.864C473.343 247.864 473.834 247.741 474.293 247.496C474.751 247.251 475.119 246.883 475.397 246.392C475.685 245.901 475.829 245.304 475.829 244.6C475.829 243.896 475.69 243.299 475.413 242.808C475.135 242.317 474.773 241.955 474.325 241.72C473.877 241.475 473.391 241.352 472.869 241.352C472.335 241.352 471.845 241.475 471.397 241.72C470.959 241.955 470.607 242.317 470.341 242.808C470.074 243.299 469.941 243.896 469.941 244.6C469.941 245.315 470.069 245.917 470.325 246.408C470.591 246.899 470.943 247.267 471.381 247.512C471.818 247.747 472.298 247.864 472.821 247.864ZM480.735 241.864C481.034 241.341 481.471 240.915 482.047 240.584C482.623 240.253 483.279 240.088 484.015 240.088C484.804 240.088 485.514 240.275 486.143 240.648C486.772 241.021 487.268 241.549 487.631 242.232C487.994 242.904 488.175 243.688 488.175 244.584C488.175 245.469 487.994 246.259 487.631 246.952C487.268 247.645 486.767 248.184 486.127 248.568C485.498 248.952 484.794 249.144 484.015 249.144C483.258 249.144 482.591 248.979 482.015 248.648C481.45 248.317 481.023 247.896 480.735 247.384V249H479.279V237.16H480.735V241.864ZM486.687 244.584C486.687 243.923 486.554 243.347 486.287 242.856C486.02 242.365 485.658 241.992 485.199 241.736C484.751 241.48 484.255 241.352 483.711 241.352C483.178 241.352 482.682 241.485 482.223 241.752C481.775 242.008 481.412 242.387 481.135 242.888C480.868 243.379 480.735 243.949 480.735 244.6C480.735 245.261 480.868 245.843 481.135 246.344C481.412 246.835 481.775 247.213 482.223 247.48C482.682 247.736 483.178 247.864 483.711 247.864C484.255 247.864 484.751 247.736 485.199 247.48C485.658 247.213 486.02 246.835 486.287 246.344C486.554 245.843 486.687 245.256 486.687 244.584ZM496.229 241.432V246.6C496.229 247.027 496.32 247.331 496.501 247.512C496.683 247.683 496.997 247.768 497.445 247.768H498.517V249H497.205C496.395 249 495.787 248.813 495.381 248.44C494.976 248.067 494.773 247.453 494.773 246.6V241.432H493.637V240.232H494.773V238.024H496.229V240.232H498.517V241.432H496.229ZM504.153 249.144C503.332 249.144 502.585 248.957 501.913 248.584C501.252 248.211 500.729 247.683 500.345 247C499.972 246.307 499.785 245.507 499.785 244.6C499.785 243.704 499.977 242.915 500.361 242.232C500.756 241.539 501.289 241.011 501.961 240.648C502.633 240.275 503.385 240.088 504.217 240.088C505.049 240.088 505.801 240.275 506.473 240.648C507.145 241.011 507.673 241.533 508.057 242.216C508.452 242.899 508.649 243.693 508.649 244.6C508.649 245.507 508.447 246.307 508.041 247C507.647 247.683 507.108 248.211 506.425 248.584C505.743 248.957 504.985 249.144 504.153 249.144ZM504.153 247.864C504.676 247.864 505.167 247.741 505.625 247.496C506.084 247.251 506.452 246.883 506.729 246.392C507.017 245.901 507.161 245.304 507.161 244.6C507.161 243.896 507.023 243.299 506.745 242.808C506.468 242.317 506.105 241.955 505.657 241.72C505.209 241.475 504.724 241.352 504.201 241.352C503.668 241.352 503.177 241.475 502.729 241.72C502.292 241.955 501.94 242.317 501.673 242.808C501.407 243.299 501.273 243.896 501.273 244.6C501.273 245.315 501.401 245.917 501.657 246.408C501.924 246.899 502.276 247.267 502.713 247.512C503.151 247.747 503.631 247.864 504.153 247.864ZM525.469 240.072C526.152 240.072 526.76 240.216 527.293 240.504C527.827 240.781 528.248 241.203 528.557 241.768C528.867 242.333 529.021 243.021 529.021 243.832V249H527.581V244.04C527.581 243.165 527.363 242.499 526.925 242.04C526.499 241.571 525.917 241.336 525.181 241.336C524.424 241.336 523.821 241.581 523.373 242.072C522.925 242.552 522.701 243.251 522.701 244.168V249H521.261V244.04C521.261 243.165 521.043 242.499 520.605 242.04C520.179 241.571 519.597 241.336 518.861 241.336C518.104 241.336 517.501 241.581 517.053 242.072C516.605 242.552 516.381 243.251 516.381 244.168V249H514.925V240.232H516.381V241.496C516.669 241.037 517.053 240.685 517.533 240.44C518.024 240.195 518.563 240.072 519.149 240.072C519.885 240.072 520.536 240.237 521.101 240.568C521.667 240.899 522.088 241.384 522.365 242.024C522.611 241.405 523.016 240.925 523.581 240.584C524.147 240.243 524.776 240.072 525.469 240.072ZM530.914 244.584C530.914 243.688 531.095 242.904 531.458 242.232C531.82 241.549 532.316 241.021 532.946 240.648C533.586 240.275 534.295 240.088 535.074 240.088C535.842 240.088 536.508 240.253 537.074 240.584C537.639 240.915 538.06 241.331 538.338 241.832V240.232H539.81V249H538.338V247.368C538.05 247.88 537.618 248.307 537.042 248.648C536.476 248.979 535.815 249.144 535.058 249.144C534.279 249.144 533.575 248.952 532.946 248.568C532.316 248.184 531.82 247.645 531.458 246.952C531.095 246.259 530.914 245.469 530.914 244.584ZM538.338 244.6C538.338 243.939 538.204 243.363 537.938 242.872C537.671 242.381 537.308 242.008 536.85 241.752C536.402 241.485 535.906 241.352 535.362 241.352C534.818 241.352 534.322 241.48 533.874 241.736C533.426 241.992 533.068 242.365 532.802 242.856C532.535 243.347 532.402 243.923 532.402 244.584C532.402 245.256 532.535 245.843 532.802 246.344C533.068 246.835 533.426 247.213 533.874 247.48C534.322 247.736 534.818 247.864 535.362 247.864C535.906 247.864 536.402 247.736 536.85 247.48C537.308 247.213 537.671 246.835 537.938 246.344C538.204 245.843 538.338 245.261 538.338 244.6ZM547.214 249L543.774 245.128V249H542.318V237.16H543.774V244.12L547.15 240.232H549.182L545.054 244.6L549.198 249H547.214ZM558.601 244.28C558.601 244.557 558.585 244.851 558.553 245.16H551.545C551.598 246.024 551.891 246.701 552.425 247.192C552.969 247.672 553.625 247.912 554.393 247.912C555.022 247.912 555.545 247.768 555.961 247.48C556.387 247.181 556.686 246.787 556.857 246.296H558.425C558.19 247.139 557.721 247.827 557.017 248.36C556.313 248.883 555.438 249.144 554.393 249.144C553.561 249.144 552.814 248.957 552.153 248.584C551.502 248.211 550.99 247.683 550.617 247C550.243 246.307 550.057 245.507 550.057 244.6C550.057 243.693 550.238 242.899 550.601 242.216C550.963 241.533 551.47 241.011 552.121 240.648C552.782 240.275 553.539 240.088 554.393 240.088C555.225 240.088 555.961 240.269 556.601 240.632C557.241 240.995 557.731 241.496 558.073 242.136C558.425 242.765 558.601 243.48 558.601 244.28ZM557.097 243.976C557.097 243.421 556.974 242.947 556.729 242.552C556.483 242.147 556.147 241.843 555.721 241.64C555.305 241.427 554.841 241.32 554.329 241.32C553.593 241.32 552.963 241.555 552.441 242.024C551.929 242.493 551.635 243.144 551.561 243.976H557.097ZM572.436 240.232L567.156 253.128H565.652L567.38 248.904L563.844 240.232H565.46L568.212 247.336L570.932 240.232H572.436ZM577.772 249.144C576.95 249.144 576.204 248.957 575.532 248.584C574.87 248.211 574.348 247.683 573.964 247C573.59 246.307 573.404 245.507 573.404 244.6C573.404 243.704 573.596 242.915 573.98 242.232C574.374 241.539 574.908 241.011 575.58 240.648C576.252 240.275 577.004 240.088 577.836 240.088C578.668 240.088 579.42 240.275 580.092 240.648C580.764 241.011 581.292 241.533 581.676 242.216C582.07 242.899 582.268 243.693 582.268 244.6C582.268 245.507 582.065 246.307 581.66 247C581.265 247.683 580.726 248.211 580.044 248.584C579.361 248.957 578.604 249.144 577.772 249.144ZM577.772 247.864C578.294 247.864 578.785 247.741 579.244 247.496C579.702 247.251 580.07 246.883 580.348 246.392C580.636 245.901 580.78 245.304 580.78 244.6C580.78 243.896 580.641 243.299 580.364 242.808C580.086 242.317 579.724 241.955 579.276 241.72C578.828 241.475 578.342 241.352 577.82 241.352C577.286 241.352 576.796 241.475 576.348 241.72C575.91 241.955 575.558 242.317 575.292 242.808C575.025 243.299 574.892 243.896 574.892 244.6C574.892 245.315 575.02 245.917 575.276 246.408C575.542 246.899 575.894 247.267 576.332 247.512C576.769 247.747 577.249 247.864 577.772 247.864ZM592.006 240.232V249H590.55V247.704C590.273 248.152 589.883 248.504 589.382 248.76C588.891 249.005 588.347 249.128 587.75 249.128C587.067 249.128 586.454 248.989 585.91 248.712C585.366 248.424 584.934 247.997 584.614 247.432C584.305 246.867 584.15 246.179 584.15 245.368V240.232H585.59V245.176C585.59 246.04 585.809 246.707 586.246 247.176C586.683 247.635 587.281 247.864 588.038 247.864C588.817 247.864 589.43 247.624 589.878 247.144C590.326 246.664 590.55 245.965 590.55 245.048V240.232H592.006ZM601.93 249.144C601.258 249.144 600.655 249.032 600.122 248.808C599.589 248.573 599.167 248.253 598.858 247.848C598.549 247.432 598.378 246.957 598.346 246.424H599.85C599.893 246.861 600.095 247.219 600.458 247.496C600.831 247.773 601.317 247.912 601.914 247.912C602.469 247.912 602.906 247.789 603.226 247.544C603.546 247.299 603.706 246.989 603.706 246.616C603.706 246.232 603.535 245.949 603.194 245.768C602.853 245.576 602.325 245.389 601.61 245.208C600.959 245.037 600.426 244.867 600.01 244.696C599.605 244.515 599.253 244.253 598.954 243.912C598.666 243.56 598.522 243.101 598.522 242.536C598.522 242.088 598.655 241.677 598.922 241.304C599.189 240.931 599.567 240.637 600.058 240.424C600.549 240.2 601.109 240.088 601.738 240.088C602.709 240.088 603.493 240.333 604.09 240.824C604.687 241.315 605.007 241.987 605.05 242.84H603.594C603.562 242.381 603.375 242.013 603.034 241.736C602.703 241.459 602.255 241.32 601.69 241.32C601.167 241.32 600.751 241.432 600.442 241.656C600.133 241.88 599.978 242.173 599.978 242.536C599.978 242.824 600.069 243.064 600.25 243.256C600.442 243.437 600.677 243.587 600.954 243.704C601.242 243.811 601.637 243.933 602.138 244.072C602.767 244.243 603.279 244.413 603.674 244.584C604.069 244.744 604.405 244.989 604.682 245.32C604.97 245.651 605.119 246.083 605.13 246.616C605.13 247.096 604.997 247.528 604.73 247.912C604.463 248.296 604.085 248.6 603.594 248.824C603.114 249.037 602.559 249.144 601.93 249.144ZM606.689 244.584C606.689 243.688 606.871 242.904 607.233 242.232C607.596 241.549 608.092 241.021 608.721 240.648C609.361 240.275 610.071 240.088 610.849 240.088C611.617 240.088 612.284 240.253 612.849 240.584C613.415 240.915 613.836 241.331 614.113 241.832V240.232H615.585V249H614.113V247.368C613.825 247.88 613.393 248.307 612.817 248.648C612.252 248.979 611.591 249.144 610.833 249.144C610.055 249.144 609.351 248.952 608.721 248.568C608.092 248.184 607.596 247.645 607.233 246.952C606.871 246.259 606.689 245.469 606.689 244.584ZM614.113 244.6C614.113 243.939 613.98 243.363 613.713 242.872C613.447 242.381 613.084 242.008 612.625 241.752C612.177 241.485 611.681 241.352 611.137 241.352C610.593 241.352 610.097 241.48 609.649 241.736C609.201 241.992 608.844 242.365 608.577 242.856C608.311 243.347 608.177 243.923 608.177 244.584C608.177 245.256 608.311 245.843 608.577 246.344C608.844 246.835 609.201 247.213 609.649 247.48C610.097 247.736 610.593 247.864 611.137 247.864C611.681 247.864 612.177 247.736 612.625 247.48C613.084 247.213 613.447 246.835 613.713 246.344C613.98 245.843 614.113 245.261 614.113 244.6ZM619.87 241.432V246.6C619.87 247.027 619.961 247.331 620.142 247.512C620.323 247.683 620.638 247.768 621.086 247.768H622.158V249H620.846C620.035 249 619.427 248.813 619.022 248.44C618.617 248.067 618.414 247.453 618.414 246.6V241.432H617.278V240.232H618.414V238.024H619.87V240.232H622.158V241.432H619.87ZM624.722 238.808C624.445 238.808 624.21 238.712 624.018 238.52C623.826 238.328 623.73 238.093 623.73 237.816C623.73 237.539 623.826 237.304 624.018 237.112C624.21 236.92 624.445 236.824 624.722 236.824C624.989 236.824 625.213 236.92 625.394 237.112C625.586 237.304 625.682 237.539 625.682 237.816C625.682 238.093 625.586 238.328 625.394 238.52C625.213 238.712 624.989 238.808 624.722 238.808ZM625.426 240.232V249H623.97V240.232H625.426ZM631.06 249.144C630.388 249.144 629.785 249.032 629.252 248.808C628.718 248.573 628.297 248.253 627.988 247.848C627.678 247.432 627.508 246.957 627.476 246.424H628.98C629.022 246.861 629.225 247.219 629.588 247.496C629.961 247.773 630.446 247.912 631.044 247.912C631.598 247.912 632.036 247.789 632.356 247.544C632.676 247.299 632.836 246.989 632.836 246.616C632.836 246.232 632.665 245.949 632.324 245.768C631.982 245.576 631.454 245.389 630.74 245.208C630.089 245.037 629.556 244.867 629.14 244.696C628.734 244.515 628.382 244.253 628.084 243.912C627.796 243.56 627.652 243.101 627.652 242.536C627.652 242.088 627.785 241.677 628.052 241.304C628.318 240.931 628.697 240.637 629.188 240.424C629.678 240.2 630.238 240.088 630.868 240.088C631.838 240.088 632.622 240.333 633.22 240.824C633.817 241.315 634.137 241.987 634.18 242.84H632.724C632.692 242.381 632.505 242.013 632.164 241.736C631.833 241.459 631.385 241.32 630.82 241.32C630.297 241.32 629.881 241.432 629.572 241.656C629.262 241.88 629.108 242.173 629.108 242.536C629.108 242.824 629.198 243.064 629.38 243.256C629.572 243.437 629.806 243.587 630.084 243.704C630.372 243.811 630.766 243.933 631.268 244.072C631.897 244.243 632.409 244.413 632.804 244.584C633.198 244.744 633.534 244.989 633.812 245.32C634.1 245.651 634.249 246.083 634.26 246.616C634.26 247.096 634.126 247.528 633.86 247.912C633.593 248.296 633.214 248.6 632.724 248.824C632.244 249.037 631.689 249.144 631.06 249.144ZM639.931 241.432H638.091V249H636.635V241.432H635.499V240.232H636.635V239.608C636.635 238.627 636.886 237.912 637.387 237.464C637.899 237.005 638.715 236.776 639.835 236.776V237.992C639.195 237.992 638.742 238.12 638.475 238.376C638.219 238.621 638.091 239.032 638.091 239.608V240.232H639.931V241.432ZM642.429 238.808C642.151 238.808 641.917 238.712 641.725 238.52C641.533 238.328 641.437 238.093 641.437 237.816C641.437 237.539 641.533 237.304 641.725 237.112C641.917 236.92 642.151 236.824 642.429 236.824C642.695 236.824 642.919 236.92 643.101 237.112C643.293 237.304 643.389 237.539 643.389 237.816C643.389 238.093 643.293 238.328 643.101 238.52C642.919 238.712 642.695 238.808 642.429 238.808ZM643.133 240.232V249H641.677V240.232H643.133ZM653.662 244.28C653.662 244.557 653.646 244.851 653.614 245.16H646.606C646.659 246.024 646.953 246.701 647.486 247.192C648.03 247.672 648.686 247.912 649.454 247.912C650.083 247.912 650.606 247.768 651.022 247.48C651.449 247.181 651.747 246.787 651.918 246.296H653.486C653.251 247.139 652.782 247.827 652.078 248.36C651.374 248.883 650.499 249.144 649.454 249.144C648.622 249.144 647.875 248.957 647.214 248.584C646.563 248.211 646.051 247.683 645.678 247C645.305 246.307 645.118 245.507 645.118 244.6C645.118 243.693 645.299 242.899 645.662 242.216C646.025 241.533 646.531 241.011 647.182 240.648C647.843 240.275 648.601 240.088 649.454 240.088C650.286 240.088 651.022 240.269 651.662 240.632C652.302 240.995 652.793 241.496 653.134 242.136C653.486 242.765 653.662 243.48 653.662 244.28ZM652.158 243.976C652.158 243.421 652.035 242.947 651.79 242.552C651.545 242.147 651.209 241.843 650.782 241.64C650.366 241.427 649.902 241.32 649.39 241.32C648.654 241.32 648.025 241.555 647.502 242.024C646.99 242.493 646.697 243.144 646.622 243.976H652.158ZM655.088 244.584C655.088 243.688 655.269 242.904 655.632 242.232C655.995 241.549 656.491 241.021 657.12 240.648C657.76 240.275 658.475 240.088 659.264 240.088C659.947 240.088 660.581 240.248 661.168 240.568C661.755 240.877 662.203 241.288 662.512 241.8V237.16H663.984V249H662.512V247.352C662.224 247.875 661.797 248.307 661.232 248.648C660.667 248.979 660.005 249.144 659.248 249.144C658.469 249.144 657.76 248.952 657.12 248.568C656.491 248.184 655.995 247.645 655.632 246.952C655.269 246.259 655.088 245.469 655.088 244.584ZM662.512 244.6C662.512 243.939 662.379 243.363 662.112 242.872C661.845 242.381 661.483 242.008 661.024 241.752C660.576 241.485 660.08 241.352 659.536 241.352C658.992 241.352 658.496 241.48 658.048 241.736C657.6 241.992 657.243 242.365 656.976 242.856C656.709 243.347 656.576 243.923 656.576 244.584C656.576 245.256 656.709 245.843 656.976 246.344C657.243 246.835 657.6 247.213 658.048 247.48C658.496 247.736 658.992 247.864 659.536 247.864C660.08 247.864 660.576 247.736 661.024 247.48C661.483 247.213 661.845 246.835 662.112 246.344C662.379 245.843 662.512 245.261 662.512 244.6ZM682.486 240.232L679.75 249H678.246L676.134 242.04L674.022 249H672.518L669.766 240.232H671.254L673.27 247.592L675.446 240.232H676.934L679.062 247.608L681.046 240.232H682.486ZM684.731 238.808C684.454 238.808 684.219 238.712 684.027 238.52C683.835 238.328 683.739 238.093 683.739 237.816C683.739 237.539 683.835 237.304 684.027 237.112C684.219 236.92 684.454 236.824 684.731 236.824C684.998 236.824 685.222 236.92 685.403 237.112C685.595 237.304 685.691 237.539 685.691 237.816C685.691 238.093 685.595 238.328 685.403 238.52C685.222 238.712 684.998 238.808 684.731 238.808ZM685.435 240.232V249H683.979V240.232H685.435ZM689.741 241.432V246.6C689.741 247.027 689.831 247.331 690.013 247.512C690.194 247.683 690.509 247.768 690.957 247.768H692.029V249H690.717C689.906 249 689.298 248.813 688.893 248.44C688.487 248.067 688.285 247.453 688.285 246.6V241.432H687.149V240.232H688.285V238.024H689.741V240.232H692.029V241.432H689.741ZM698.193 240.072C698.854 240.072 699.451 240.216 699.985 240.504C700.518 240.781 700.934 241.203 701.233 241.768C701.542 242.333 701.697 243.021 701.697 243.832V249H700.257V244.04C700.257 243.165 700.038 242.499 699.601 242.04C699.163 241.571 698.566 241.336 697.809 241.336C697.041 241.336 696.427 241.576 695.969 242.056C695.521 242.536 695.297 243.235 695.297 244.152V249H693.841V237.16H695.297V241.48C695.585 241.032 695.979 240.685 696.481 240.44C696.993 240.195 697.563 240.072 698.193 240.072ZM710.213 241.432V246.6C710.213 247.027 710.303 247.331 710.485 247.512C710.666 247.683 710.981 247.768 711.429 247.768H712.501V249H711.189C710.378 249 709.77 248.813 709.365 248.44C708.959 248.067 708.757 247.453 708.757 246.6V241.432H707.621V240.232H708.757V238.024H710.213V240.232H712.501V241.432H710.213ZM718.665 240.072C719.326 240.072 719.924 240.216 720.457 240.504C720.99 240.781 721.406 241.203 721.705 241.768C722.014 242.333 722.169 243.021 722.169 243.832V249H720.729V244.04C720.729 243.165 720.51 242.499 720.073 242.04C719.636 241.571 719.038 241.336 718.281 241.336C717.513 241.336 716.9 241.576 716.441 242.056C715.993 242.536 715.769 243.235 715.769 244.152V249H714.313V237.16H715.769V241.48C716.057 241.032 716.452 240.685 716.953 240.44C717.465 240.195 718.036 240.072 718.665 240.072ZM732.595 244.28C732.595 244.557 732.579 244.851 732.547 245.16H725.539C725.593 246.024 725.886 246.701 726.419 247.192C726.963 247.672 727.619 247.912 728.387 247.912C729.017 247.912 729.539 247.768 729.955 247.48C730.382 247.181 730.681 246.787 730.851 246.296H732.419C732.185 247.139 731.715 247.827 731.011 248.36C730.307 248.883 729.433 249.144 728.387 249.144C727.555 249.144 726.809 248.957 726.147 248.584C725.497 248.211 724.985 247.683 724.611 247C724.238 246.307 724.051 245.507 724.051 244.6C724.051 243.693 724.233 242.899 724.595 242.216C724.958 241.533 725.465 241.011 726.115 240.648C726.777 240.275 727.534 240.088 728.387 240.088C729.219 240.088 729.955 240.269 730.595 240.632C731.235 240.995 731.726 241.496 732.067 242.136C732.419 242.765 732.595 243.48 732.595 244.28ZM731.091 243.976C731.091 243.421 730.969 242.947 730.723 242.552C730.478 242.147 730.142 241.843 729.715 241.64C729.299 241.427 728.835 241.32 728.323 241.32C727.587 241.32 726.958 241.555 726.435 242.024C725.923 242.493 725.63 243.144 725.555 243.976H731.091ZM740.335 241.848C740.623 241.347 741.049 240.931 741.615 240.6C742.191 240.259 742.857 240.088 743.615 240.088C744.393 240.088 745.097 240.275 745.727 240.648C746.367 241.021 746.868 241.549 747.231 242.232C747.593 242.904 747.775 243.688 747.775 244.584C747.775 245.469 747.593 246.259 747.231 246.952C746.868 247.645 746.367 248.184 745.727 248.568C745.097 248.952 744.393 249.144 743.615 249.144C742.868 249.144 742.207 248.979 741.631 248.648C741.065 248.307 740.633 247.885 740.335 247.384V253.16H738.879V240.232H740.335V241.848ZM746.287 244.584C746.287 243.923 746.153 243.347 745.887 242.856C745.62 242.365 745.257 241.992 744.799 241.736C744.351 241.48 743.855 241.352 743.311 241.352C742.777 241.352 742.281 241.485 741.823 241.752C741.375 242.008 741.012 242.387 740.735 242.888C740.468 243.379 740.335 243.949 740.335 244.6C740.335 245.261 740.468 245.843 740.735 246.344C741.012 246.835 741.375 247.213 741.823 247.48C742.281 247.736 742.777 247.864 743.311 247.864C743.855 247.864 744.351 247.736 744.799 247.48C745.257 247.213 745.62 246.835 745.887 246.344C746.153 245.843 746.287 245.256 746.287 244.584ZM751.195 241.656C751.451 241.155 751.814 240.765 752.283 240.488C752.763 240.211 753.345 240.072 754.027 240.072V241.576H753.643C752.011 241.576 751.195 242.461 751.195 244.232V249H749.739V240.232H751.195V241.656ZM759.58 249.144C758.759 249.144 758.012 248.957 757.34 248.584C756.679 248.211 756.156 247.683 755.772 247C755.399 246.307 755.212 245.507 755.212 244.6C755.212 243.704 755.404 242.915 755.788 242.232C756.183 241.539 756.716 241.011 757.388 240.648C758.06 240.275 758.812 240.088 759.644 240.088C760.476 240.088 761.228 240.275 761.9 240.648C762.572 241.011 763.1 241.533 763.484 242.216C763.879 242.899 764.076 243.693 764.076 244.6C764.076 245.507 763.873 246.307 763.468 247C763.073 247.683 762.535 248.211 761.852 248.584C761.169 248.957 760.412 249.144 759.58 249.144ZM759.58 247.864C760.103 247.864 760.593 247.741 761.052 247.496C761.511 247.251 761.879 246.883 762.156 246.392C762.444 245.901 762.588 245.304 762.588 244.6C762.588 243.896 762.449 243.299 762.172 242.808C761.895 242.317 761.532 241.955 761.084 241.72C760.636 241.475 760.151 241.352 759.628 241.352C759.095 241.352 758.604 241.475 758.156 241.72C757.719 241.955 757.367 242.317 757.1 242.808C756.833 243.299 756.7 243.896 756.7 244.6C756.7 245.315 756.828 245.917 757.084 246.408C757.351 246.899 757.703 247.267 758.14 247.512C758.577 247.747 759.057 247.864 759.58 247.864ZM765.494 244.584C765.494 243.688 765.676 242.904 766.038 242.232C766.401 241.549 766.897 241.021 767.526 240.648C768.166 240.275 768.881 240.088 769.67 240.088C770.353 240.088 770.988 240.248 771.574 240.568C772.161 240.877 772.609 241.288 772.918 241.8V237.16H774.39V249H772.918V247.352C772.63 247.875 772.204 248.307 771.638 248.648C771.073 248.979 770.412 249.144 769.654 249.144C768.876 249.144 768.166 248.952 767.526 248.568C766.897 248.184 766.401 247.645 766.038 246.952C765.676 246.259 765.494 245.469 765.494 244.584ZM772.918 244.6C772.918 243.939 772.785 243.363 772.518 242.872C772.252 242.381 771.889 242.008 771.43 241.752C770.982 241.485 770.486 241.352 769.942 241.352C769.398 241.352 768.902 241.48 768.454 241.736C768.006 241.992 767.649 242.365 767.382 242.856C767.116 243.347 766.982 243.923 766.982 244.584C766.982 245.256 767.116 245.843 767.382 246.344C767.649 246.835 768.006 247.213 768.454 247.48C768.902 247.736 769.398 247.864 769.942 247.864C770.486 247.864 770.982 247.736 771.43 247.48C771.889 247.213 772.252 246.835 772.518 246.344C772.785 245.843 772.918 245.261 772.918 244.6ZM784.675 240.232V249H783.219V247.704C782.942 248.152 782.552 248.504 782.051 248.76C781.56 249.005 781.016 249.128 780.419 249.128C779.736 249.128 779.123 248.989 778.579 248.712C778.035 248.424 777.603 247.997 777.283 247.432C776.974 246.867 776.819 246.179 776.819 245.368V240.232H778.259V245.176C778.259 246.04 778.478 246.707 778.915 247.176C779.352 247.635 779.95 247.864 780.707 247.864C781.486 247.864 782.099 247.624 782.547 247.144C782.995 246.664 783.219 245.965 783.219 245.048V240.232H784.675ZM786.637 244.6C786.637 243.693 786.819 242.904 787.181 242.232C787.544 241.549 788.045 241.021 788.685 240.648C789.336 240.275 790.077 240.088 790.909 240.088C791.987 240.088 792.872 240.349 793.565 240.872C794.269 241.395 794.733 242.12 794.957 243.048H793.389C793.24 242.515 792.947 242.093 792.509 241.784C792.083 241.475 791.549 241.32 790.909 241.32C790.077 241.32 789.405 241.608 788.893 242.184C788.381 242.749 788.125 243.555 788.125 244.6C788.125 245.656 788.381 246.472 788.893 247.048C789.405 247.624 790.077 247.912 790.909 247.912C791.549 247.912 792.083 247.763 792.509 247.464C792.936 247.165 793.229 246.739 793.389 246.184H794.957C794.723 247.08 794.253 247.8 793.549 248.344C792.845 248.877 791.965 249.144 790.909 249.144C790.077 249.144 789.336 248.957 788.685 248.584C788.045 248.211 787.544 247.683 787.181 247C786.819 246.317 786.637 245.517 786.637 244.6ZM798.724 241.432V246.6C798.724 247.027 798.815 247.331 798.996 247.512C799.177 247.683 799.492 247.768 799.94 247.768H801.012V249H799.7C798.889 249 798.281 248.813 797.876 248.44C797.471 248.067 797.268 247.453 797.268 246.6V241.432H796.132V240.232H797.268V238.024H798.724V240.232H801.012V241.432H798.724ZM806.594 244.584C806.594 243.688 806.775 242.904 807.138 242.232C807.5 241.549 807.996 241.021 808.626 240.648C809.266 240.275 809.98 240.088 810.77 240.088C811.452 240.088 812.087 240.248 812.674 240.568C813.26 240.877 813.708 241.288 814.018 241.8V237.16H815.49V249H814.018V247.352C813.73 247.875 813.303 248.307 812.738 248.648C812.172 248.979 811.511 249.144 810.754 249.144C809.975 249.144 809.266 248.952 808.626 248.568C807.996 248.184 807.5 247.645 807.138 246.952C806.775 246.259 806.594 245.469 806.594 244.584ZM814.018 244.6C814.018 243.939 813.884 243.363 813.618 242.872C813.351 242.381 812.988 242.008 812.53 241.752C812.082 241.485 811.586 241.352 811.042 241.352C810.498 241.352 810.002 241.48 809.554 241.736C809.106 241.992 808.748 242.365 808.482 242.856C808.215 243.347 808.082 243.923 808.082 244.584C808.082 245.256 808.215 245.843 808.482 246.344C808.748 246.835 809.106 247.213 809.554 247.48C810.002 247.736 810.498 247.864 811.042 247.864C811.586 247.864 812.082 247.736 812.53 247.48C812.988 247.213 813.351 246.835 813.618 246.344C813.884 245.843 814.018 245.261 814.018 244.6ZM825.998 244.28C825.998 244.557 825.982 244.851 825.95 245.16H818.942C818.996 246.024 819.289 246.701 819.822 247.192C820.366 247.672 821.022 247.912 821.79 247.912C822.42 247.912 822.942 247.768 823.358 247.48C823.785 247.181 824.084 246.787 824.254 246.296H825.822C825.588 247.139 825.118 247.827 824.414 248.36C823.71 248.883 822.836 249.144 821.79 249.144C820.958 249.144 820.212 248.957 819.55 248.584C818.9 248.211 818.388 247.683 818.014 247C817.641 246.307 817.454 245.507 817.454 244.6C817.454 243.693 817.636 242.899 817.998 242.216C818.361 241.533 818.868 241.011 819.518 240.648C820.18 240.275 820.937 240.088 821.79 240.088C822.622 240.088 823.358 240.269 823.998 240.632C824.638 240.995 825.129 241.496 825.47 242.136C825.822 242.765 825.998 243.48 825.998 244.28ZM824.494 243.976C824.494 243.421 824.372 242.947 824.126 242.552C823.881 242.147 823.545 241.843 823.118 241.64C822.702 241.427 822.238 241.32 821.726 241.32C820.99 241.32 820.361 241.555 819.838 242.024C819.326 242.493 819.033 243.144 818.958 243.976H824.494ZM831.072 249.144C830.4 249.144 829.797 249.032 829.264 248.808C828.731 248.573 828.309 248.253 828 247.848C827.691 247.432 827.52 246.957 827.488 246.424H828.992C829.035 246.861 829.237 247.219 829.6 247.496C829.973 247.773 830.459 247.912 831.056 247.912C831.611 247.912 832.048 247.789 832.368 247.544C832.688 247.299 832.848 246.989 832.848 246.616C832.848 246.232 832.677 245.949 832.336 245.768C831.995 245.576 831.467 245.389 830.752 245.208C830.101 245.037 829.568 244.867 829.152 244.696C828.747 244.515 828.395 244.253 828.096 243.912C827.808 243.56 827.664 243.101 827.664 242.536C827.664 242.088 827.797 241.677 828.064 241.304C828.331 240.931 828.709 240.637 829.2 240.424C829.691 240.2 830.251 240.088 830.88 240.088C831.851 240.088 832.635 240.333 833.232 240.824C833.829 241.315 834.149 241.987 834.192 242.84H832.736C832.704 242.381 832.517 242.013 832.176 241.736C831.845 241.459 831.397 241.32 830.832 241.32C830.309 241.32 829.893 241.432 829.584 241.656C829.275 241.88 829.12 242.173 829.12 242.536C829.12 242.824 829.211 243.064 829.392 243.256C829.584 243.437 829.819 243.587 830.096 243.704C830.384 243.811 830.779 243.933 831.28 244.072C831.909 244.243 832.421 244.413 832.816 244.584C833.211 244.744 833.547 244.989 833.824 245.32C834.112 245.651 834.261 246.083 834.272 246.616C834.272 247.096 834.139 247.528 833.872 247.912C833.605 248.296 833.227 248.6 832.736 248.824C832.256 249.037 831.701 249.144 831.072 249.144ZM837.127 238.808C836.85 238.808 836.615 238.712 836.423 238.52C836.231 238.328 836.135 238.093 836.135 237.816C836.135 237.539 836.231 237.304 836.423 237.112C836.615 236.92 836.85 236.824 837.127 236.824C837.394 236.824 837.618 236.92 837.799 237.112C837.991 237.304 838.087 237.539 838.087 237.816C838.087 238.093 837.991 238.328 837.799 238.52C837.618 238.712 837.394 238.808 837.127 238.808ZM837.831 240.232V249H836.375V240.232H837.831ZM843.977 240.088C844.734 240.088 845.396 240.253 845.961 240.584C846.537 240.915 846.964 241.331 847.241 241.832V240.232H848.713V249.192C848.713 249.992 848.542 250.701 848.201 251.32C847.86 251.949 847.369 252.44 846.729 252.792C846.1 253.144 845.364 253.32 844.521 253.32C843.369 253.32 842.409 253.048 841.641 252.504C840.873 251.96 840.42 251.219 840.281 250.28H841.721C841.881 250.813 842.212 251.24 842.713 251.56C843.214 251.891 843.817 252.056 844.521 252.056C845.321 252.056 845.972 251.805 846.473 251.304C846.985 250.803 847.241 250.099 847.241 249.192V247.352C846.953 247.864 846.526 248.291 845.961 248.632C845.396 248.973 844.734 249.144 843.977 249.144C843.198 249.144 842.489 248.952 841.849 248.568C841.22 248.184 840.724 247.645 840.361 246.952C839.998 246.259 839.817 245.469 839.817 244.584C839.817 243.688 839.998 242.904 840.361 242.232C840.724 241.549 841.22 241.021 841.849 240.648C842.489 240.275 843.198 240.088 843.977 240.088ZM847.241 244.6C847.241 243.939 847.108 243.363 846.841 242.872C846.574 242.381 846.212 242.008 845.753 241.752C845.305 241.485 844.809 241.352 844.265 241.352C843.721 241.352 843.225 241.48 842.777 241.736C842.329 241.992 841.972 242.365 841.705 242.856C841.438 243.347 841.305 243.923 841.305 244.584C841.305 245.256 841.438 245.843 841.705 246.344C841.972 246.835 842.329 247.213 842.777 247.48C843.225 247.736 843.721 247.864 844.265 247.864C844.809 247.864 845.305 247.736 845.753 247.48C846.212 247.213 846.574 246.835 846.841 246.344C847.108 245.843 847.241 245.261 847.241 244.6ZM855.494 240.072C856.56 240.072 857.424 240.397 858.086 241.048C858.747 241.688 859.078 242.616 859.078 243.832V249H857.638V244.04C857.638 243.165 857.419 242.499 856.982 242.04C856.544 241.571 855.947 241.336 855.19 241.336C854.422 241.336 853.808 241.576 853.35 242.056C852.902 242.536 852.678 243.235 852.678 244.152V249H851.222V240.232H852.678V241.48C852.966 241.032 853.355 240.685 853.846 240.44C854.347 240.195 854.896 240.072 855.494 240.072ZM864.608 249.144C863.936 249.144 863.333 249.032 862.8 248.808C862.267 248.573 861.845 248.253 861.536 247.848C861.227 247.432 861.056 246.957 861.024 246.424H862.528C862.571 246.861 862.773 247.219 863.136 247.496C863.509 247.773 863.995 247.912 864.592 247.912C865.147 247.912 865.584 247.789 865.904 247.544C866.224 247.299 866.384 246.989 866.384 246.616C866.384 246.232 866.213 245.949 865.872 245.768C865.531 245.576 865.003 245.389 864.288 245.208C863.637 245.037 863.104 244.867 862.688 244.696C862.283 244.515 861.931 244.253 861.632 243.912C861.344 243.56 861.2 243.101 861.2 242.536C861.2 242.088 861.333 241.677 861.6 241.304C861.867 240.931 862.245 240.637 862.736 240.424C863.227 240.2 863.787 240.088 864.416 240.088C865.387 240.088 866.171 240.333 866.768 240.824C867.365 241.315 867.685 241.987 867.728 242.84H866.272C866.24 242.381 866.053 242.013 865.712 241.736C865.381 241.459 864.933 241.32 864.368 241.32C863.845 241.32 863.429 241.432 863.12 241.656C862.811 241.88 862.656 242.173 862.656 242.536C862.656 242.824 862.747 243.064 862.928 243.256C863.12 243.437 863.355 243.587 863.632 243.704C863.92 243.811 864.315 243.933 864.816 244.072C865.445 244.243 865.957 244.413 866.352 244.584C866.747 244.744 867.083 244.989 867.36 245.32C867.648 245.651 867.797 246.083 867.808 246.616C867.808 247.096 867.675 247.528 867.408 247.912C867.141 248.296 866.763 248.6 866.272 248.824C865.792 249.037 865.237 249.144 864.608 249.144ZM876.001 241.432V246.6C876.001 247.027 876.092 247.331 876.273 247.512C876.454 247.683 876.769 247.768 877.217 247.768H878.289V249H876.977C876.166 249 875.558 248.813 875.153 248.44C874.748 248.067 874.545 247.453 874.545 246.6V241.432H873.409V240.232H874.545V238.024H876.001V240.232H878.289V241.432H876.001ZM884.453 240.072C885.114 240.072 885.712 240.216 886.245 240.504C886.778 240.781 887.194 241.203 887.493 241.768C887.802 242.333 887.957 243.021 887.957 243.832V249H886.517V244.04C886.517 243.165 886.298 242.499 885.861 242.04C885.424 241.571 884.826 241.336 884.069 241.336C883.301 241.336 882.688 241.576 882.229 242.056C881.781 242.536 881.557 243.235 881.557 244.152V249H880.101V237.16H881.557V241.48C881.845 241.032 882.24 240.685 882.741 240.44C883.253 240.195 883.824 240.072 884.453 240.072ZM889.839 244.584C889.839 243.688 890.021 242.904 890.383 242.232C890.746 241.549 891.242 241.021 891.871 240.648C892.511 240.275 893.221 240.088 893.999 240.088C894.767 240.088 895.434 240.253 895.999 240.584C896.565 240.915 896.986 241.331 897.263 241.832V240.232H898.735V249H897.263V247.368C896.975 247.88 896.543 248.307 895.967 248.648C895.402 248.979 894.741 249.144 893.983 249.144C893.205 249.144 892.501 248.952 891.871 248.568C891.242 248.184 890.746 247.645 890.383 246.952C890.021 246.259 889.839 245.469 889.839 244.584ZM897.263 244.6C897.263 243.939 897.13 243.363 896.863 242.872C896.597 242.381 896.234 242.008 895.775 241.752C895.327 241.485 894.831 241.352 894.287 241.352C893.743 241.352 893.247 241.48 892.799 241.736C892.351 241.992 891.994 242.365 891.727 242.856C891.461 243.347 891.327 243.923 891.327 244.584C891.327 245.256 891.461 245.843 891.727 246.344C891.994 246.835 892.351 247.213 892.799 247.48C893.247 247.736 893.743 247.864 894.287 247.864C894.831 247.864 895.327 247.736 895.775 247.48C896.234 247.213 896.597 246.835 896.863 246.344C897.13 245.843 897.263 245.261 897.263 244.6ZM903.02 241.432V246.6C903.02 247.027 903.111 247.331 903.292 247.512C903.473 247.683 903.788 247.768 904.236 247.768H905.308V249H903.996C903.185 249 902.577 248.813 902.172 248.44C901.767 248.067 901.564 247.453 901.564 246.6V241.432H900.428V240.232H901.564V238.024H903.02V240.232H905.308V241.432H903.02ZM923.114 240.232L920.378 249H918.874L916.762 242.04L914.65 249H913.146L910.394 240.232H911.882L913.898 247.592L916.074 240.232H917.562L919.69 247.608L921.674 240.232H923.114ZM932.607 244.28C932.607 244.557 932.591 244.851 932.559 245.16H925.551C925.604 246.024 925.897 246.701 926.431 247.192C926.975 247.672 927.631 247.912 928.399 247.912C929.028 247.912 929.551 247.768 929.967 247.48C930.393 247.181 930.692 246.787 930.863 246.296H932.431C932.196 247.139 931.727 247.827 931.023 248.36C930.319 248.883 929.444 249.144 928.399 249.144C927.567 249.144 926.82 248.957 926.159 248.584C925.508 248.211 924.996 247.683 924.623 247C924.249 246.307 924.063 245.507 924.063 244.6C924.063 243.693 924.244 242.899 924.607 242.216C924.969 241.533 925.476 241.011 926.127 240.648C926.788 240.275 927.545 240.088 928.399 240.088C929.231 240.088 929.967 240.269 930.607 240.632C931.247 240.995 931.737 241.496 932.079 242.136C932.431 242.765 932.607 243.48 932.607 244.28ZM931.103 243.976C931.103 243.421 930.98 242.947 930.735 242.552C930.489 242.147 930.153 241.843 929.727 241.64C929.311 241.427 928.847 241.32 928.335 241.32C927.599 241.32 926.969 241.555 926.447 242.024C925.935 242.493 925.641 243.144 925.567 243.976H931.103ZM940.346 241.848C940.634 241.347 941.061 240.931 941.626 240.6C942.202 240.259 942.869 240.088 943.626 240.088C944.405 240.088 945.109 240.275 945.738 240.648C946.378 241.021 946.879 241.549 947.242 242.232C947.605 242.904 947.786 243.688 947.786 244.584C947.786 245.469 947.605 246.259 947.242 246.952C946.879 247.645 946.378 248.184 945.738 248.568C945.109 248.952 944.405 249.144 943.626 249.144C942.879 249.144 942.218 248.979 941.642 248.648C941.077 248.307 940.645 247.885 940.346 247.384V253.16H938.89V240.232H940.346V241.848ZM946.298 244.584C946.298 243.923 946.165 243.347 945.898 242.856C945.631 242.365 945.269 241.992 944.81 241.736C944.362 241.48 943.866 241.352 943.322 241.352C942.789 241.352 942.293 241.485 941.834 241.752C941.386 242.008 941.023 242.387 940.746 242.888C940.479 243.379 940.346 243.949 940.346 244.6C940.346 245.261 940.479 245.843 940.746 246.344C941.023 246.835 941.386 247.213 941.834 247.48C942.293 247.736 942.789 247.864 943.322 247.864C943.866 247.864 944.362 247.736 944.81 247.48C945.269 247.213 945.631 246.835 945.898 246.344C946.165 245.843 946.298 245.256 946.298 244.584ZM951.207 241.656C951.463 241.155 951.825 240.765 952.295 240.488C952.775 240.211 953.356 240.072 954.039 240.072V241.576H953.655C952.023 241.576 951.207 242.461 951.207 244.232V249H949.751V240.232H951.207V241.656ZM959.591 249.144C958.77 249.144 958.023 248.957 957.351 248.584C956.69 248.211 956.167 247.683 955.783 247C955.41 246.307 955.223 245.507 955.223 244.6C955.223 243.704 955.415 242.915 955.799 242.232C956.194 241.539 956.727 241.011 957.399 240.648C958.071 240.275 958.823 240.088 959.655 240.088C960.487 240.088 961.239 240.275 961.911 240.648C962.583 241.011 963.111 241.533 963.495 242.216C963.89 242.899 964.087 243.693 964.087 244.6C964.087 245.507 963.885 246.307 963.479 247C963.085 247.683 962.546 248.211 961.863 248.584C961.181 248.957 960.423 249.144 959.591 249.144ZM959.591 247.864C960.114 247.864 960.605 247.741 961.063 247.496C961.522 247.251 961.89 246.883 962.167 246.392C962.455 245.901 962.599 245.304 962.599 244.6C962.599 243.896 962.461 243.299 962.183 242.808C961.906 242.317 961.543 241.955 961.095 241.72C960.647 241.475 960.162 241.352 959.639 241.352C959.106 241.352 958.615 241.475 958.167 241.72C957.73 241.955 957.378 242.317 957.111 242.808C956.845 243.299 956.711 243.896 956.711 244.6C956.711 245.315 956.839 245.917 957.095 246.408C957.362 246.899 957.714 247.267 958.151 247.512C958.589 247.747 959.069 247.864 959.591 247.864ZM969.314 247.656L972.034 240.232H973.586L970.146 249H968.45L965.01 240.232H966.578L969.314 247.656ZM975.818 238.808C975.541 238.808 975.306 238.712 975.114 238.52C974.922 238.328 974.826 238.093 974.826 237.816C974.826 237.539 974.922 237.304 975.114 237.112C975.306 236.92 975.541 236.824 975.818 236.824C976.085 236.824 976.309 236.92 976.49 237.112C976.682 237.304 976.778 237.539 976.778 237.816C976.778 238.093 976.682 238.328 976.49 238.52C976.309 238.712 976.085 238.808 975.818 238.808ZM976.522 240.232V249H975.066V240.232H976.522ZM978.508 244.584C978.508 243.688 978.689 242.904 979.052 242.232C979.415 241.549 979.911 241.021 980.54 240.648C981.18 240.275 981.895 240.088 982.684 240.088C983.367 240.088 984.001 240.248 984.588 240.568C985.175 240.877 985.623 241.288 985.932 241.8V237.16H987.404V249H985.932V247.352C985.644 247.875 985.217 248.307 984.652 248.648C984.087 248.979 983.425 249.144 982.668 249.144C981.889 249.144 981.18 248.952 980.54 248.568C979.911 248.184 979.415 247.645 979.052 246.952C978.689 246.259 978.508 245.469 978.508 244.584ZM985.932 244.6C985.932 243.939 985.799 243.363 985.532 242.872C985.265 242.381 984.903 242.008 984.444 241.752C983.996 241.485 983.5 241.352 982.956 241.352C982.412 241.352 981.916 241.48 981.468 241.736C981.02 241.992 980.663 242.365 980.396 242.856C980.129 243.347 979.996 243.923 979.996 244.584C979.996 245.256 980.129 245.843 980.396 246.344C980.663 246.835 981.02 247.213 981.468 247.48C981.916 247.736 982.412 247.864 982.956 247.864C983.5 247.864 983.996 247.736 984.444 247.48C984.903 247.213 985.265 246.835 985.532 246.344C985.799 245.843 985.932 245.261 985.932 244.6ZM997.912 244.28C997.912 244.557 997.896 244.851 997.864 245.16H990.856C990.91 246.024 991.203 246.701 991.736 247.192C992.28 247.672 992.936 247.912 993.704 247.912C994.334 247.912 994.856 247.768 995.272 247.48C995.699 247.181 995.998 246.787 996.168 246.296H997.736C997.502 247.139 997.032 247.827 996.328 248.36C995.624 248.883 994.75 249.144 993.704 249.144C992.872 249.144 992.126 248.957 991.464 248.584C990.814 248.211 990.302 247.683 989.928 247C989.555 246.307 989.368 245.507 989.368 244.6C989.368 243.693 989.55 242.899 989.912 242.216C990.275 241.533 990.782 241.011 991.432 240.648C992.094 240.275 992.851 240.088 993.704 240.088C994.536 240.088 995.272 240.269 995.912 240.632C996.552 240.995 997.043 241.496 997.384 242.136C997.736 242.765 997.912 243.48 997.912 244.28ZM996.408 243.976C996.408 243.421 996.286 242.947 996.04 242.552C995.795 242.147 995.459 241.843 995.032 241.64C994.616 241.427 994.152 241.32 993.64 241.32C992.904 241.32 992.275 241.555 991.752 242.024C991.24 242.493 990.947 243.144 990.872 243.976H996.408Z" fill="white"/>
<defs>
<linearGradient id="paint0_linear_269_1602" x1="1294" y1="-0.00011319" x2="-68.9226" y2="265.39" gradientUnits="userSpaceOnUse">
<stop stop-color="#6547B9"/>
<stop offset="1" stop-color="#40129A"/>
</linearGradient>
</defs>
</svg>
