<svg width="1440" height="442" viewBox="0 0 1440 442" fill="none" xmlns="http://www.w3.org/2000/svg">
<path d="M0 80.9464C0 80.9464 437.198 0 720 0C1002.8 0 1440 80.9464 1440 80.9464V458H0V80.9464Z" fill="url(#paint0_linear_421_3124)"/>
<path d="M228 260.5C124.4 283.3 106.833 388.333 111 438H280.5C277 425 270.5 393 296 367C327.472 334.91 396.703 341.145 509 298.5C588 268.5 592 59 542.5 8.5L432.5 18.5C453.167 37.3333 489.5 91.9 469.5 159.5C444.5 244 357.5 232 228 260.5Z" fill="url(#paint1_linear_421_3124)"/>
<circle cx="210.5" cy="246.5" r="3.5" fill="#8F6CE4"/>
<circle cx="1170.5" cy="218.5" r="3.5" fill="#8F6CE4"/>
<circle cx="1130.5" cy="356.5" r="3.5" fill="#8F6CE4"/>
<circle cx="1136" cy="98" r="2" fill="#8F6CE4"/>
<circle cx="121.5" cy="354.5" r="1.5" fill="#8F6CE4"/>
<circle cx="64.5" cy="220.5" r="1.5" fill="#8F6CE4"/>
<circle cx="64.5" cy="220.5" r="1.5" fill="#8F6CE4"/>
<circle cx="64.5" cy="220.5" r="1.5" fill="#8F6CE4"/>
<circle cx="64.5" cy="220.5" r="1.5" fill="#8F6CE4"/>
<circle cx="617.5" cy="72.5" r="1.5" fill="#8F6CE4"/>
<circle cx="626.5" cy="338.5" r="1.5" fill="#8F6CE4"/>
<circle cx="312.5" cy="175.5" r="3.5" fill="#8F6CE4"/>
<circle cx="130" cy="142" r="2" fill="#8F6CE4"/>
<circle cx="433" cy="233" r="2" fill="#8F6CE4"/>
<circle cx="983" cy="284" r="2" fill="#8F6CE4"/>
<circle cx="1342" cy="360" r="2" fill="#8F6CE4"/>
<circle cx="386" cy="94" r="2" fill="#8F6CE4"/>
<circle cx="436.5" cy="349.5" r="3.5" fill="#8F6CE4"/>
<circle cx="231.5" cy="67.5" r="3.5" fill="#8F6CE4"/>
<circle cx="699.5" cy="136.5" r="3.5" fill="#8F6CE4"/>
<circle cx="964.5" cy="144.5" r="3.5" fill="#8F6CE4"/>
<circle cx="1331.5" cy="154.5" r="3.5" fill="#8F6CE4"/>
<circle cx="285.5" cy="355.5" r="2.5" fill="#8F6CE4"/>
<circle cx="803.5" cy="224.5" r="2.5" fill="#8F6CE4"/>
<circle cx="798.5" cy="419.5" r="2.5" fill="#8F6CE4"/>
<circle cx="856.5" cy="48.5" r="2.5" fill="#8F6CE4"/>
<circle cx="598.5" cy="203.5" r="2.5" fill="#8F6CE4"/>
<rect width="61.1765" height="61.1143" transform="matrix(0.999977 0.00676255 -0.00717318 0.999974 815.182 313.535)" fill="#FEBA91"/>
<path fill-rule="evenodd" clip-rule="evenodd" d="M823.402 331.714C823.422 330.97 824.02 330.377 824.755 330.353L824.838 330.353L868.365 331.495C869.138 331.515 869.747 332.157 869.726 332.929C869.707 333.673 869.108 334.266 868.373 334.289L868.291 334.289L824.763 333.147C823.991 333.127 823.381 332.485 823.402 331.714Z" fill="#2E186A"/>
<path fill-rule="evenodd" clip-rule="evenodd" d="M823.355 339.827C823.374 339.083 823.973 338.49 824.708 338.467L824.79 338.467L866.791 339.562C867.563 339.583 868.173 340.224 868.152 340.996C868.133 341.74 867.534 342.333 866.799 342.356L866.717 342.356L824.716 341.261C823.944 341.24 823.334 340.599 823.355 339.827Z" fill="#2E186A"/>
<path fill-rule="evenodd" clip-rule="evenodd" d="M822.242 348.328C822.262 347.584 822.86 346.991 823.595 346.968L823.678 346.968L855.859 347.816C856.631 347.836 857.241 348.478 857.22 349.25C857.2 349.994 856.602 350.587 855.866 350.61L855.784 350.61L823.603 349.761C822.83 349.741 822.221 349.099 822.242 348.328Z" fill="#2E186A"/>
<rect width="61.1701" height="61.1246" transform="matrix(0.827209 -0.561894 0.562559 0.826757 786.021 373.208)" fill="#FEBA91"/>
<path fill-rule="evenodd" clip-rule="evenodd" d="M833.084 366.986C833.732 366.566 834.598 366.751 835.018 367.399C835.423 368.023 835.266 368.85 834.672 369.285L834.605 369.331L810.612 384.863C809.964 385.283 809.098 385.099 808.678 384.451C808.273 383.826 808.431 382.999 809.024 382.565L809.091 382.518L833.084 366.986Z" fill="#2E186A"/>
<path fill-rule="evenodd" clip-rule="evenodd" d="M827.379 383.645C828.028 383.225 828.894 383.411 829.313 384.059C829.717 384.684 829.559 385.511 828.965 385.945L828.897 385.991L817.639 393.264C816.99 393.683 816.124 393.498 815.705 392.849C815.3 392.225 815.459 391.398 816.053 390.964L816.12 390.917L827.379 383.645Z" fill="#2E186A"/>
<path fill-rule="evenodd" clip-rule="evenodd" d="M814.837 350.249L814.812 353.665L836.265 340.788L861.213 374.978L864.579 374.965L837.009 336.905L814.837 350.249Z" fill="white"/>
<path fill-rule="evenodd" clip-rule="evenodd" d="M1447.55 317.513L1210.45 361.889C1194.36 364.9 1178.85 354.296 1175.84 338.225L1146.81 183.083C1145.39 175.483 1150.39 168.169 1157.99 166.747L1425.88 116.61C1433.48 115.188 1440.8 120.196 1442.22 127.796L1471.26 282.937C1474.27 299.054 1463.64 314.502 1447.55 317.513Z" fill="#2E186A"/>
<path fill-rule="evenodd" clip-rule="evenodd" d="M1330.34 266.138C1330.34 266.138 1319.87 271.035 1315.53 261.28C1315.53 261.28 1323.36 255.976 1330.34 266.138Z" fill="white"/>
<path fill-rule="evenodd" clip-rule="evenodd" d="M1300.08 244.601C1301.46 245.148 1302.94 245.44 1304.4 245.64C1303.4 247.675 1303.21 250.176 1304.13 252.562C1305.1 255.224 1307.16 257.112 1309.42 257.78C1309.5 261.225 1309.43 266.212 1308.65 268.112C1308.26 269.039 1308.81 270.216 1309.86 270.777C1310.91 271.292 1312.08 270.977 1312.48 270.05C1313.62 267.278 1313.59 261.028 1313.48 257.683C1313.57 257.666 1313.62 257.657 1313.7 257.594C1317.42 256.141 1319.16 251.503 1317.59 247.199C1317.1 245.822 1316.26 244.652 1315.29 243.745C1319.34 241.848 1322.83 238.684 1324.9 234.506C1329.33 225.478 1325.44 215.354 1316.2 211.87C1306.96 208.386 1295.85 212.883 1291.41 221.865C1286.94 230.947 1290.83 241.071 1300.08 244.601Z" fill="white"/>
<path fill-rule="evenodd" clip-rule="evenodd" d="M1272.92 329.438L1229.32 329.163L1211.86 305.845L1212.17 267.924L1273.35 268.322L1272.92 329.438Z" fill="#FEBA91"/>
<path fill-rule="evenodd" clip-rule="evenodd" d="M1223.02 282.704C1223.01 281.96 1223.59 281.346 1224.33 281.297L1224.41 281.294L1260.07 280.97C1260.84 280.963 1261.47 281.583 1261.48 282.355C1261.49 283.099 1260.91 283.712 1260.18 283.762L1260.09 283.765L1224.43 284.089C1223.66 284.096 1223.03 283.476 1223.02 282.704Z" fill="white"/>
<path fill-rule="evenodd" clip-rule="evenodd" d="M1223.1 288.946C1223.09 288.201 1223.67 287.588 1224.4 287.539L1224.48 287.535L1260.15 287.211C1260.92 287.204 1261.55 287.824 1261.56 288.596C1261.56 289.34 1260.99 289.954 1260.25 290.003L1260.17 290.006L1224.51 290.33C1223.74 290.337 1223.1 289.717 1223.1 288.946Z" fill="white"/>
<path fill-rule="evenodd" clip-rule="evenodd" d="M1223.33 295.489C1223.32 294.745 1223.9 294.132 1224.63 294.083L1224.71 294.08L1245.89 293.909C1246.66 293.902 1247.29 294.523 1247.3 295.295C1247.3 296.039 1246.73 296.652 1245.99 296.7L1245.91 296.703L1224.74 296.875C1223.96 296.881 1223.33 296.261 1223.33 295.489Z" fill="white"/>
<path fill-rule="evenodd" clip-rule="evenodd" d="M1211.95 305.121C1211.96 304.377 1212.55 303.777 1213.28 303.746L1213.37 303.745L1230.97 304.004C1231.72 304.016 1232.33 304.621 1232.35 305.364L1232.35 305.448L1231.59 328.051C1231.57 328.822 1230.92 329.427 1230.15 329.402C1229.41 329.377 1228.82 328.776 1228.8 328.041L1228.8 327.959L1229.5 306.778L1213.32 306.539C1212.58 306.528 1211.98 305.937 1211.95 305.203L1211.95 305.121Z" fill="white"/>
<path fill-rule="evenodd" clip-rule="evenodd" d="M1149.97 199.998C1150.73 199.855 1151.46 200.355 1151.61 201.114C1151.74 201.845 1151.28 202.55 1150.57 202.727L1150.49 202.745L1141.22 204.479L1141.27 205.287C1141.3 205.887 1141.34 206.536 1141.37 207.231L1141.4 207.905C1141.55 211.623 1141.6 215.784 1141.51 220.292C1141.27 233.172 1139.97 246.253 1137.26 258.754C1133.29 277.114 1126.62 292.62 1116.75 304.153C1104.87 318.033 1088.8 325.591 1068.15 325.657L1065.53 325.667C1037.84 325.788 1017.08 326.403 995.056 328.138L994.368 328.193C963.562 330.65 936.405 335.069 913.121 341.999C885.701 350.16 864.508 361.587 850.435 376.744C834.628 393.768 827.997 415.31 831.574 441.968C835.201 469.093 842.567 486.521 852.978 495.449C861.587 502.831 872.117 504.254 884.124 500.789C892.361 498.411 900.853 493.861 909.177 487.886C912.677 485.374 915.908 482.779 918.791 480.249L919.33 479.774C919.944 479.229 920.51 478.714 921.027 478.234L921.457 477.832C921.679 477.623 921.877 477.434 922.05 477.267L922.38 476.945C922.926 476.399 923.812 476.399 924.358 476.944C924.904 477.49 924.904 478.375 924.358 478.921L924.101 479.173C923.929 479.339 923.733 479.528 923.511 479.737L923.376 479.865C922.586 480.609 921.67 481.443 920.637 482.349C917.689 484.936 914.387 487.587 910.809 490.155C902.247 496.302 893.488 500.995 884.899 503.474C872.053 507.181 860.551 505.627 851.155 497.57C840.134 488.119 832.511 470.081 828.801 442.34C825.114 414.864 832.003 392.487 848.384 374.843C862.846 359.269 884.464 347.612 912.323 339.321C935.82 332.328 963.16 327.878 994.146 325.407L995.528 325.298C1018.07 323.544 1039.36 322.955 1068.14 322.862C1087.97 322.798 1103.27 315.603 1114.63 302.338C1124.15 291.204 1130.64 276.109 1134.53 258.165C1137.19 245.858 1138.48 232.952 1138.72 220.24C1138.8 216.002 1138.75 212.075 1138.62 208.545L1138.6 208.019C1138.56 206.952 1138.51 205.987 1138.46 205.132L1138.39 204.156L1138.34 203.455C1138.28 202.767 1138.73 202.144 1139.4 201.98L1139.48 201.962L1149.97 199.998Z" fill="#6A41C2"/>
<path fill-rule="evenodd" clip-rule="evenodd" d="M1148.94 205.878L1141.33 207.302C1140.19 207.516 1139.1 206.772 1138.88 205.628L1138.14 201.644C1137.92 200.5 1138.67 199.412 1139.81 199.198L1147.42 197.774C1148.57 197.559 1149.66 198.304 1149.87 199.448L1150.62 203.432C1150.83 204.576 1150.04 205.672 1148.94 205.878Z" fill="#FE7624"/>
<path fill-rule="evenodd" clip-rule="evenodd" d="M953.261 330.83C953.783 331.577 953.623 332.597 952.912 333.152L952.778 333.248L952.276 333.604L951.569 334.113C950.527 334.867 949.319 335.758 947.961 336.782L947.091 337.44C943.583 340.105 939.749 343.139 935.674 346.515L935.163 346.939C922 357.881 909.072 370.072 897.339 383.194C873.87 409.442 858.207 436.006 853.426 461.797C847.538 493.557 858.504 522.609 889.552 548.165C890.28 548.765 890.384 549.841 889.784 550.569C889.183 551.297 888.106 551.401 887.377 550.801C855.382 524.465 843.947 494.172 850.064 461.176C854.979 434.662 870.941 407.592 894.789 380.92C906.644 367.661 919.693 355.356 932.977 344.313L934.005 343.462C938.098 340.083 941.946 337.049 945.464 334.387L945.902 334.056C946.984 333.241 947.972 332.507 948.86 331.859L950.017 331.02L950.881 330.407C951.655 329.867 952.721 330.056 953.261 330.83Z" fill="#6A41C2"/>
<path fill-rule="evenodd" clip-rule="evenodd" d="M970.98 335.622L952.508 339.079C949.162 339.705 945.906 337.519 945.272 334.13V334.13C944.647 330.788 946.837 327.535 950.229 326.9L968.7 323.443C972.046 322.817 975.302 325.003 975.936 328.392V328.392C976.57 331.78 974.326 334.996 970.98 335.622Z" fill="#FE7624"/>
<path fill-rule="evenodd" clip-rule="evenodd" d="M1417.91 444.283L1398.26 441.942C1388.21 440.742 1381.06 431.701 1382.27 421.666L1389.67 359.575C1390.88 349.54 1399.93 342.396 1409.98 343.596L1429.63 345.937C1439.67 347.137 1446.82 356.177 1445.61 366.213L1438.21 428.304C1437.05 438.33 1427.95 445.483 1417.91 444.283Z" fill="white"/>
<path fill-rule="evenodd" clip-rule="evenodd" d="M1388.28 359.409L1380.88 421.501C1379.58 432.295 1387.27 442.037 1398.09 443.33L1417.74 445.67C1428.56 446.963 1438.35 439.257 1439.6 428.464L1447 366.377C1448.3 355.584 1440.61 345.842 1429.79 344.549L1410.14 342.209C1399.34 340.917 1389.58 348.601 1388.28 359.409ZM1409.81 344.984L1429.46 347.324C1438.75 348.434 1445.34 356.786 1444.23 366.047L1436.82 428.139C1435.75 437.398 1427.35 444.004 1418.07 442.895L1398.42 440.555C1389.14 439.445 1382.55 431.093 1383.66 421.832L1391.06 359.74C1392.18 350.464 1400.54 343.876 1409.81 344.984Z" fill="#2E186A"/>
<path fill-rule="evenodd" clip-rule="evenodd" d="M1405.63 410.85C1405.63 410.85 1409.73 409.986 1410.44 413.786C1410.44 413.786 1407.22 415.054 1405.63 410.85Z" fill="#2E186A"/>
<path fill-rule="evenodd" clip-rule="evenodd" d="M1414.54 420.98C1414.11 420.683 1413.59 420.448 1413.13 420.25C1413.63 419.635 1413.93 418.725 1413.81 417.801C1413.66 416.785 1413.12 415.938 1412.38 415.509C1412.62 414.278 1413.06 412.539 1413.51 411.932C1413.75 411.652 1413.65 411.148 1413.32 410.879C1412.98 410.61 1412.55 410.596 1412.33 410.922C1411.69 411.8 1411.2 414.024 1410.95 415.208C1410.9 415.217 1410.9 415.217 1410.86 415.225C1409.43 415.445 1408.42 416.913 1408.64 418.579C1408.69 419.137 1408.92 419.569 1409.19 419.992C1407.59 420.338 1406.09 421.188 1405.05 422.473C1402.73 425.277 1403.27 429.203 1406.26 431.203C1409.24 433.204 1413.53 432.544 1415.84 429.694C1418.06 426.861 1417.53 422.981 1414.54 420.98Z" fill="#2E186A"/>
<rect width="124.645" height="146.969" transform="matrix(0.939552 -0.342406 0.342739 0.939431 1004.01 401.108)" fill="#2E186A"/>
<rect width="114.649" height="135.195" transform="matrix(0.847883 -0.530183 0.530815 0.847488 976.116 416.168)" fill="white"/>
<path fill-rule="evenodd" clip-rule="evenodd" d="M1072.56 354.203L975.369 414.958C974.715 415.367 974.516 416.23 974.926 416.884L1046.72 531.48C1047.13 532.134 1047.99 532.333 1048.65 531.923L1145.84 471.168C1146.49 470.759 1146.69 469.896 1146.28 469.242L1074.48 354.646C1074.07 353.992 1073.21 353.793 1072.56 354.203ZM1072.85 357.313L1143.17 469.54L1048.35 528.813L978.04 416.586L1072.85 357.313Z" fill="#2E186A"/>
<path fill-rule="evenodd" clip-rule="evenodd" d="M992.39 428.371C993.382 427.751 994.688 428.052 995.308 429.042C995.909 430.003 995.643 431.26 994.721 431.9L994.635 431.956L976.669 443.185C975.678 443.805 974.372 443.505 973.752 442.515C973.15 441.554 973.416 440.296 974.339 439.656L974.424 439.6L992.39 428.371Z" fill="#2E186A"/>
<path fill-rule="evenodd" clip-rule="evenodd" d="M1050.34 412.376C1051 411.967 1051.86 412.165 1052.27 412.819C1052.66 413.45 1052.49 414.274 1051.89 414.7L1051.82 414.745L1017.42 436.253C1016.77 436.663 1015.9 436.465 1015.49 435.81C1015.1 435.18 1015.27 434.355 1015.87 433.93L1015.94 433.884L1050.34 412.376Z" fill="#FE7624"/>
<path fill-rule="evenodd" clip-rule="evenodd" d="M1067.93 409.794C1068.59 409.385 1069.45 409.583 1069.86 410.238C1070.26 410.869 1070.08 411.693 1069.48 412.118L1069.42 412.164L1034.97 433.68C1034.31 434.09 1033.45 433.891 1033.04 433.237C1032.65 432.606 1032.82 431.781 1033.42 431.356L1033.49 431.311L1067.93 409.794Z" fill="#FE7624"/>
<path fill-rule="evenodd" clip-rule="evenodd" d="M1026.86 435.443C1027.51 435.033 1028.37 435.23 1028.78 435.884C1029.18 436.514 1029.01 437.339 1028.41 437.765L1028.34 437.811L1021.34 442.202C1020.68 442.612 1019.82 442.415 1019.41 441.761C1019.01 441.131 1019.18 440.306 1019.78 439.88L1019.85 439.835L1026.86 435.443Z" fill="#FE7624"/>
<path fill-rule="evenodd" clip-rule="evenodd" d="M1050.28 441.201C1050.93 440.791 1051.8 440.989 1052.21 441.643C1052.6 442.274 1052.43 443.098 1051.83 443.524L1051.76 443.569L1030.49 456.887C1029.83 457.297 1028.97 457.099 1028.56 456.445C1028.16 455.814 1028.34 454.99 1028.94 454.564L1029 454.519L1050.28 441.201Z" fill="#FE7624"/>
<path fill-rule="evenodd" clip-rule="evenodd" d="M1036.13 439.346C1036.78 438.937 1037.65 439.136 1038.06 439.791C1038.45 440.422 1038.28 441.246 1037.68 441.671L1037.61 441.716L1025.67 449.163C1025.02 449.572 1024.15 449.373 1023.75 448.718C1023.35 448.087 1023.52 447.263 1024.12 446.838L1024.19 446.793L1036.13 439.346Z" fill="#FE7624"/>
<path fill-rule="evenodd" clip-rule="evenodd" d="M1061.27 423.601C1061.92 423.191 1062.78 423.389 1063.19 424.043C1063.59 424.674 1063.42 425.498 1062.82 425.924L1062.75 425.97L1042.88 438.409C1042.22 438.819 1041.36 438.621 1040.95 437.967C1040.55 437.336 1040.72 436.512 1041.32 436.086L1041.39 436.04L1061.27 423.601Z" fill="#FE7624"/>
<path fill-rule="evenodd" clip-rule="evenodd" d="M1085.09 395.537L1084.36 404.774L1100.1 487.649L1104.92 486.748L1089.16 403.828L1085.09 395.537Z" fill="#FE7624"/>
<path fill-rule="evenodd" clip-rule="evenodd" d="M1090.85 433.13L1093.51 432.633C1094.65 432.418 1095.4 431.331 1095.19 430.232L1091.57 410.107C1091.35 408.962 1090.27 408.218 1089.17 408.424L1086.51 408.921C1085.36 409.136 1084.62 410.223 1084.82 411.322L1088.45 431.447C1088.66 432.592 1089.75 433.336 1090.85 433.13Z" fill="#5D21D1"/>
<path fill-rule="evenodd" clip-rule="evenodd" d="M1057.79 380.934L1058.27 390.131L1084.93 470.206L1089.58 468.673L1062.92 388.598L1057.79 380.934Z" fill="#FE7624"/>
<path fill-rule="evenodd" clip-rule="evenodd" d="M1024.56 270.813L992.864 281.198C988.484 282.634 983.767 280.247 982.332 275.872L982.103 275.156C980.667 270.781 983.059 266.068 987.439 264.632L1019.13 254.246L1024.56 270.813Z" fill="white"/>
<path fill-rule="evenodd" clip-rule="evenodd" d="M1018.7 252.919L987.004 263.305C981.94 264.964 979.154 270.373 980.724 275.437L980.999 276.298C982.679 281.417 988.186 284.203 993.3 282.526L1024.99 272.14C1025.73 271.9 1026.13 271.111 1025.89 270.378L1020.46 253.812C1020.22 253.078 1019.43 252.678 1018.7 252.919ZM1018.24 256.01L1022.79 269.92L992.429 279.871C988.783 281.066 984.856 279.079 983.661 275.436L983.436 274.731C982.238 271.08 984.228 267.156 987.875 265.96L1018.24 256.01Z" fill="#2E186A"/>
<path fill-rule="evenodd" clip-rule="evenodd" d="M1063.98 291.585C1087.65 287.155 1103.25 264.397 1098.82 240.754C1094.4 217.111 1071.62 201.536 1047.95 205.966C1024.28 210.395 1008.68 233.153 1013.11 256.796C1017.53 280.439 1040.31 296.014 1063.98 291.585Z" fill="white"/>
<path fill-rule="evenodd" clip-rule="evenodd" d="M1047.7 204.592C1023.27 209.164 1007.17 232.652 1011.73 257.053C1016.3 281.455 1039.81 297.53 1064.23 292.958C1088.66 288.386 1104.76 264.899 1100.2 240.497C1095.63 216.095 1072.12 200.02 1047.7 204.592ZM1048.21 207.339C1071.12 203.051 1093.16 218.127 1097.45 241.012C1101.73 263.896 1086.63 285.923 1063.72 290.211C1040.81 294.499 1018.77 279.423 1014.48 256.538C1010.2 233.654 1025.3 211.627 1048.21 207.339Z" fill="#2E186A"/>
<path fill-rule="evenodd" clip-rule="evenodd" d="M1061.63 279.039C1078.36 275.907 1089.39 259.819 1086.26 243.104C1083.13 226.39 1067.03 215.379 1050.3 218.51C1033.57 221.642 1022.54 237.73 1025.67 254.445C1028.8 271.159 1044.9 282.17 1061.63 279.039Z" fill="#FE7624"/>
<path fill-rule="evenodd" clip-rule="evenodd" d="M1198.58 443.486L1189.84 397.306C1189.11 393.368 1191.67 389.572 1195.61 388.834L1313.09 366.61C1317.03 365.872 1320.83 368.431 1321.57 372.368L1330.31 418.549C1331.04 422.486 1328.48 426.283 1324.54 427.021L1207.06 449.245C1203.12 449.983 1199.32 447.424 1198.58 443.486Z" fill="#FE7624"/>
<path fill-rule="evenodd" clip-rule="evenodd" d="M1310.79 369.268L1198.58 390.505C1194.96 391.183 1192.59 394.749 1193.29 398.462L1201.18 440.159C1201.87 443.832 1205.37 446.29 1208.99 445.614L1321.2 424.376C1324.81 423.761 1327.15 420.204 1326.46 416.474L1324.55 406.309L1324.54 406.229C1324.36 405.516 1323.65 405.056 1322.92 405.193L1320.86 405.579L1317.32 386.907L1319.38 386.521C1320.14 386.379 1320.64 385.649 1320.5 384.89L1318.59 374.726C1317.91 371.05 1314.4 368.591 1310.79 369.268ZM1311.31 372.014L1311.42 371.995C1313.46 371.678 1315.44 373.107 1315.84 375.24L1317.49 384.031L1316.71 384.177C1315.21 384.458 1314.28 385.89 1314.56 387.376L1318.12 406.143L1318.14 406.243C1318.46 407.661 1319.85 408.611 1321.28 408.343L1322.06 408.197L1323.7 416.988C1324.11 419.176 1322.81 421.199 1320.82 421.604L1208.47 442.867C1206.39 443.256 1204.34 441.815 1203.93 439.641L1196.03 397.945C1195.62 395.734 1197.01 393.643 1199.1 393.252L1311.31 372.014Z" fill="white"/>
<defs>
<linearGradient id="paint0_linear_421_3124" x1="708" y1="-103.925" x2="704.182" y2="654.881" gradientUnits="userSpaceOnUse">
<stop stop-color="#4A1FA2"/>
<stop offset="1" stop-color="#5F3EB4"/>
</linearGradient>
<linearGradient id="paint1_linear_421_3124" x1="342.473" y1="8.5" x2="342.473" y2="438" gradientUnits="userSpaceOnUse">
<stop stop-color="#5D33BC"/>
<stop offset="1" stop-color="#5D37B1"/>
</linearGradient>
</defs>
</svg>
