<svg id="e42OWG1XALd1" xmlns="http://www.w3.org/2000/svg" xmlns:xlink="http://www.w3.org/1999/xlink" viewBox="0 0 882 710" shape-rendering="geometricPrecision" text-rendering="geometricPrecision" width="882" height="710"><style><![CDATA[#e42OWG1XALd20_tr {animation: e42OWG1XALd20_tr__tr 3000ms linear infinite normal forwards}@keyframes e42OWG1XALd20_tr__tr { 0% {transform: translate(758.567932px,555.559814px) rotate(-207.299383deg);animation-timing-function: cubic-bezier(0.445,0.05,0.55,0.95)} 46.666667% {transform: translate(758.567932px,555.559814px) rotate(-8.640024deg);animation-timing-function: cubic-bezier(0.445,0.05,0.55,0.95)} 100% {transform: translate(758.567932px,555.559814px) rotate(-81.114738deg)}} #e42OWG1XALd26_tr {animation: e42OWG1XALd26_tr__tr 3000ms linear infinite normal forwards}@keyframes e42OWG1XALd26_tr__tr { 0% {transform: translate(840.006561px,440.521789px) rotate(0deg);animation-timing-function: cubic-bezier(0.68,-0.55,0.265,1.55)} 46.666667% {transform: translate(840.006561px,440.521789px) rotate(-40.516268deg);animation-timing-function: cubic-bezier(0.445,0.05,0.55,0.95)} 100% {transform: translate(840.006561px,440.521789px) rotate(60.049087deg)}} #e42OWG1XALd39_ts {animation: e42OWG1XALd39_ts__ts 3000ms linear infinite normal forwards}@keyframes e42OWG1XALd39_ts__ts { 0% {transform: translate(737.702942px,166.305092px) scale(1,1)} 30% {transform: translate(737.702942px,166.305092px) scale(0.965526,0.965526)} 63.333333% {transform: translate(737.702942px,166.305092px) scale(0.987838,0.987838)} 100% {transform: translate(737.702942px,166.305092px) scale(0.930857,0.930857)}} #e42OWG1XALd52_to {animation: e42OWG1XALd52_to__to 3000ms linear infinite normal forwards}@keyframes e42OWG1XALd52_to__to { 0% {transform: translate(639.409027px,258.966591px)} 20% {transform: translate(639.409027px,262.884102px)} 46.666667% {transform: translate(639.409028px,258.078194px)} 70% {transform: translate(639.40903px,262.884102px)} 100% {transform: translate(639.409035px,258.966592px)}} #e42OWG1XALd53_to {animation: e42OWG1XALd53_to__to 3000ms linear infinite normal forwards}@keyframes e42OWG1XALd53_to__to { 0% {transform: translate(604.969635px,254.820663px)} 33.333333% {transform: translate(604.740031px,258.542679px)} 60% {transform: translate(604.740031px,255.153756px)} 100% {transform: translate(604.740031px,258.966645px)}} #e42OWG1XALd54 {animation: e42OWG1XALd54_c_o 3000ms linear infinite normal forwards}@keyframes e42OWG1XALd54_c_o { 0% {opacity: 1} 23.333333% {opacity: 0} 50% {opacity: 1} 76.666667% {opacity: 0} 100% {opacity: 1}} #e42OWG1XALd55 {animation: e42OWG1XALd55_c_o 3000ms linear infinite normal forwards}@keyframes e42OWG1XALd55_c_o { 0% {opacity: 1} 33.333333% {opacity: 0} 60% {opacity: 1} 83.333333% {opacity: 0} 100% {opacity: 1}} #e42OWG1XALd60_ts {animation: e42OWG1XALd60_ts__ts 3000ms linear infinite normal forwards}@keyframes e42OWG1XALd60_ts__ts { 0% {transform: translate(625.149078px,305.768112px) scale(1,1)} 20% {transform: translate(625.149078px,305.768112px) scale(1,1.3)} 50% {transform: translate(625.149078px,305.768112px) scale(1,1)} 80% {transform: translate(625.149078px,305.768112px) scale(1,1.3)} 100% {transform: translate(625.149078px,305.768112px) scale(1,1)}} #e42OWG1XALd65 {animation: e42OWG1XALd65_c_o 3000ms linear infinite normal forwards}@keyframes e42OWG1XALd65_c_o { 0% {opacity: 1} 33.333333% {opacity: 0} 70% {opacity: 1} 100% {opacity: 0}} #e42OWG1XALd102_to {animation: e42OWG1XALd102_to__to 3000ms linear infinite normal forwards}@keyframes e42OWG1XALd102_to__to { 0% {transform: translate(371.936509px,540.675507px)} 33.333333% {transform: translate(371.936509px,526.537968px)} 70% {transform: translate(371.936509px,540.544497px)} 100% {transform: translate(371.936509px,525.658965px)}} #e42OWG1XALd109_tr {animation: e42OWG1XALd109_tr__tr 3000ms linear infinite normal forwards}@keyframes e42OWG1XALd109_tr__tr { 0% {transform: translate(567.764527px,526.859314px) rotate(0deg)} 33.333333% {transform: translate(567.764527px,526.859314px) rotate(-5.027623deg)} 70% {transform: translate(567.764527px,526.859314px) rotate(3.237297deg)} 100% {transform: translate(567.764527px,526.859314px) rotate(3.345409deg)}} #e42OWG1XALd118 {animation: e42OWG1XALd118_c_o 3000ms linear infinite normal forwards}@keyframes e42OWG1XALd118_c_o { 0% {opacity: 1} 40% {opacity: 0} 66.666667% {opacity: 1} 86.666667% {opacity: 0} 100% {opacity: 1}} #e42OWG1XALd119 {animation: e42OWG1XALd119_c_o 3000ms linear infinite normal forwards}@keyframes e42OWG1XALd119_c_o { 0% {opacity: 0} 40% {opacity: 1} 66.666667% {opacity: 0} 100% {opacity: 1}} #e42OWG1XALd120 {animation: e42OWG1XALd120_c_o 3000ms linear infinite normal forwards}@keyframes e42OWG1XALd120_c_o { 0% {opacity: 0} 53.333333% {opacity: 1} 73.333333% {opacity: 1} 100% {opacity: 0}} #e42OWG1XALd121 {animation: e42OWG1XALd121_c_o 3000ms linear infinite normal forwards}@keyframes e42OWG1XALd121_c_o { 0% {opacity: 0} 46.666667% {opacity: 1} 73.333333% {opacity: 0} 100% {opacity: 0}} #e42OWG1XALd122 {animation: e42OWG1XALd122_c_o 3000ms linear infinite normal forwards}@keyframes e42OWG1XALd122_c_o { 0% {opacity: 0.43} 23.333333% {opacity: 1} 46.666667% {opacity: 0} 66.666667% {opacity: 1} 83.333333% {opacity: 0} 100% {opacity: 1}} #e42OWG1XALd123 {animation: e42OWG1XALd123_c_o 3000ms linear infinite normal forwards}@keyframes e42OWG1XALd123_c_o { 0% {opacity: 0} 33.333333% {opacity: 1} 66.666667% {opacity: 0} 86.666667% {opacity: 1} 100% {opacity: 0}} #e42OWG1XALd124 {animation: e42OWG1XALd124_c_o 3000ms linear infinite normal forwards}@keyframes e42OWG1XALd124_c_o { 0% {opacity: 1} 26.666667% {opacity: 0} 46.666667% {opacity: 1} 73.333333% {opacity: 0} 100% {opacity: 1}} #e42OWG1XALd125 {animation: e42OWG1XALd125_c_o 3000ms linear infinite normal forwards}@keyframes e42OWG1XALd125_c_o { 0% {opacity: 1} 26.666667% {opacity: 0} 46.666667% {opacity: 1} 73.333333% {opacity: 0} 100% {opacity: 1}}]]></style><defs><linearGradient id="e42OWG1XALd2-fill" x1="541.076" y1="20.4256" x2="541.076" y2="709.569" spreadMethod="pad" gradientUnits="userSpaceOnUse" gradientTransform="matrix(1 0 0 1 0 0)"><stop id="e42OWG1XALd2-fill-0" offset="0%" stop-color="rgb(72,39,164)"/><stop id="e42OWG1XALd2-fill-1" offset="100%" stop-color="rgb(97,51,198)"/></linearGradient><linearGradient id="e42OWG1XALd3-fill" x1="4.016" y1="-7.6436" x2="-9.198" y2="7.644" spreadMethod="pad" gradientUnits="userSpaceOnUse" gradientTransform="matrix(1 0 0 1 0 0)"><stop id="e42OWG1XALd3-fill-0" offset="0%" stop-color="rgb(49,12,153)"/><stop id="e42OWG1XALd3-fill-1" offset="100%" stop-color="rgba(80,46,173,0)"/></linearGradient><linearGradient id="e42OWG1XALd4-fill" x1="4.016" y1="-7.644" x2="-9.198" y2="7.644" spreadMethod="pad" gradientUnits="userSpaceOnUse" gradientTransform="matrix(1 0 0 1 0 0)"><stop id="e42OWG1XALd4-fill-0" offset="0%" stop-color="rgb(49,12,153)"/><stop id="e42OWG1XALd4-fill-1" offset="100%" stop-color="rgba(80,46,173,0)"/></linearGradient><linearGradient id="e42OWG1XALd126-fill" x1="23.96" y1="-5.536" x2="-28.93" y2="14.803" spreadMethod="pad" gradientUnits="userSpaceOnUse" gradientTransform="matrix(1 0 0 1 0 0)"><stop id="e42OWG1XALd126-fill-0" offset="0%" stop-color="rgb(38,0,145)"/><stop id="e42OWG1XALd126-fill-1" offset="100%" stop-color="rgba(80,46,173,0)"/></linearGradient></defs><path id="e42OWG1XALd2" d="M583.449,255.003C554.874,165.875,606.649,116.676,626.5,107.5C679.5,83,761.343,105.246,781.5,49.4999C813.5,-39.0003,903.765,20.4246,903.765,20.4246L903.553671,700.583029L171.581712,700.583029C171.581712,691.598058,170.158,662.379,210.702,659.655C280,655,426.438,679.796,411.59,585.662C401.335,520.648,377.326,441.943,400.672,404.401C488.888,262.544,614.892,353.077,583.449,255.003Z" transform="matrix(1 0 0 1 -20.518043 9.416971)" fill="url(#e42OWG1XALd2-fill)" stroke="none" stroke-width="1"/><circle id="e42OWG1XALd3" r="13.4738" transform="matrix(0.850506 -0.525965 0.525965 0.850506 817.54578 106.545366)" fill="url(#e42OWG1XALd3-fill)" stroke="none" stroke-width="1"/><circle id="e42OWG1XALd4" r="13.4738" transform="matrix(0.850506 -0.525965 0.525965 0.850506 638.545886 184.545598)" fill="url(#e42OWG1XALd4-fill)" stroke="none" stroke-width="1"/><path id="e42OWG1XALd5" d="M838.804,437.885C839.65,437.209,840.885,437.346,841.562,438.191C842.239,439.035,842.102,440.268,841.256,440.944L841.024,441.136L840.873,441.264C840.585,441.512,840.254,441.805,839.885,442.143L839.697,442.316C838.411,443.506,836.972,444.95,835.419,446.65C830.961,451.528,826.496,457.47,822.324,464.501C814.177,478.231,808.173,494.371,805.214,513.008C801.555,536.061,802.761,561.788,809.753,590.285C810.01,591.335,809.366,592.396,808.313,592.653C807.261,592.91,806.198,592.267,805.941,591.216C798.827,562.221,797.595,535.969,801.338,512.395C804.376,493.256,810.554,476.65,818.947,462.505C823.26,455.236,827.886,449.08,832.519,444.01C834.031,442.355,835.446,440.926,836.734,439.718L837.029,439.444C837.86,438.675,838.464,438.156,838.804,437.885Z" clip-rule="evenodd" fill="rgb(46,24,106)" fill-rule="evenodd" stroke="none" stroke-width="1"/><path id="e42OWG1XALd6" d="M838.804,437.885C839.65,437.209,840.885,437.346,841.562,438.191C842.239,439.035,842.102,440.268,841.256,440.944L841.024,441.136L840.873,441.264C840.585,441.512,840.254,441.805,839.885,442.143L839.697,442.316C838.411,443.506,836.972,444.95,835.419,446.65C830.961,451.528,826.496,457.47,822.324,464.501C814.177,478.231,808.173,494.371,805.214,513.008C801.555,536.061,802.761,561.788,809.753,590.285C810.01,591.335,809.366,592.396,808.313,592.653C807.261,592.91,806.198,592.267,805.941,591.216C798.827,562.221,797.595,535.969,801.338,512.395C804.376,493.256,810.554,476.65,818.947,462.505C823.26,455.236,827.886,449.08,832.519,444.01C834.031,442.355,835.446,440.926,836.734,439.718L837.029,439.444C837.86,438.675,838.464,438.156,838.804,437.885Z" transform="matrix(0.804834 0 0 0.804834 162.087446 184.806316)" clip-rule="evenodd" fill="rgb(46,24,106)" fill-rule="evenodd" stroke="none" stroke-width="1"/><path id="e42OWG1XALd7" d="M838.804,437.885C839.65,437.209,840.885,437.346,841.562,438.191C842.239,439.035,842.102,440.268,841.256,440.944L841.024,441.136L840.873,441.264C840.585,441.512,840.254,441.805,839.885,442.143L839.697,442.316C838.411,443.506,836.972,444.95,835.419,446.65C830.961,451.528,826.496,457.47,822.324,464.501C814.177,478.231,808.173,494.371,805.214,513.008C801.555,536.061,791.211276,559.739254,809.753,590.285C810.01,591.335,809.366,592.396,808.313,592.653C807.261,592.91,806.198,592.267,805.941,591.216C783.29967,557.162061,797.595,535.969,801.338,512.395C804.376,493.256,810.554,476.65,818.947,462.505C823.26,455.236,827.886,449.08,832.519,444.01C834.031,442.355,835.446,440.926,836.734,439.718L837.029,439.444C837.86,438.675,838.464,438.156,838.804,437.885Z" transform="matrix(-0.718505 -0.67482 -0.560824 0.597129 1631.641575 832.079881)" clip-rule="evenodd" fill="rgb(46,24,106)" fill-rule="evenodd" stroke="none" stroke-width="1"/><g id="e42OWG1XALd8" transform="matrix(0.999999 0.001568 -0.001568 0.999999 0.809574 -1.340623)"><path id="e42OWG1XALd9" d="M818.64,564.57C817.135,563.265,816.416,561.371,816.612,559.413C820.733,521.546,837.871,482.569,864.559,468.271C891.967,453.582,910.675,494.386,872.671,532.253C844.085,560.784,828.779,565.419,822.957,566.007C821.387,566.137,819.817,565.615,818.64,564.57L818.64,564.57Z" clip-rule="evenodd" fill="rgb(254,186,145)" fill-rule="evenodd" stroke="none" stroke-width="1"/><path id="e42OWG1XALd10" d="M888.187,470.215C888.923,470.949,888.953,472.121,888.277,472.891L888.13,473.043L887.361,473.823L886.644,474.559C886.31,474.903,885.954,475.271,885.578,475.662L884.999,476.266C882.449,478.929,879.608,481.978,876.547,485.362C867.8,495.032,859.052,505.445,850.892,516.197C841.178,528.997,832.959,541.42,826.716,553.128C824.735,556.844,822.965,560.466,821.418,563.986C820.983,564.977,819.825,565.428,818.833,564.993C817.84,564.559,817.389,563.403,817.824,562.413C819.412,558.799,821.225,555.088,823.251,551.288C829.603,539.376,837.932,526.786,847.764,513.831C855.998,502.982,864.816,492.486,873.633,482.737L874.714,481.547C877.212,478.803,879.556,476.291,881.703,474.039L883.029,472.656C883.492,472.176,883.923,471.731,884.321,471.324L885.411,470.217C886.177,469.452,887.42,469.451,888.187,470.215Z" transform="matrix(1.010011 0 0 1.018177 -8.479044 -9.404792)" clip-rule="evenodd" fill="rgb(46,24,106)" fill-rule="evenodd" stroke="none" stroke-width="1"/><path id="e42OWG1XALd11" d="M873.465,521.848L874.136,521.814C875.447,521.753,876.565,521.729,877.47,521.731L878.361,521.743C879.444,521.778,880.293,522.684,880.258,523.765C880.223,524.808,879.378,525.633,878.347,525.658L878.041,525.654C877.003,525.636,875.528,525.66,873.675,525.759C870.895,525.908,867.855,526.2,864.616,526.669C855.724,527.955,846.739,530.349,838.136,534.112C837.143,534.546,835.986,534.095,835.551,533.104C835.115,532.114,835.568,530.958,836.56,530.524C845.51,526.609,854.832,524.126,864.053,522.792C867.413,522.306,870.57,522.003,873.465,521.848Z" transform="matrix(1 0 0 1 0 -0.831406)" clip-rule="evenodd" fill="rgb(46,24,106)" fill-rule="evenodd" stroke="none" stroke-width="1"/><path id="e42OWG1XALd12" d="M856.227,474.657C857.173,475.184,857.513,476.377,856.985,477.321L856.528,478.152C856.378,478.424,856.215,478.725,856.039,479.052L855.4,480.242C854.815,481.338,854.187,482.532,853.525,483.813C850.924,488.846,848.322,494.181,845.895,499.578C843.975,503.848,842.245,507.984,840.75,511.922L840.373,512.923C836.418,523.543,834.454,532.075,834.984,537.617C835.087,538.693,834.296,539.65,833.217,539.752C832.138,539.855,831.18,539.066,831.077,537.989C830.457,531.506,832.672,522.147,837.08,510.534C838.604,506.519,840.364,502.312,842.314,497.975C844.772,492.507,847.405,487.109,850.037,482.017L850.776,480.596C851.339,479.52,851.873,478.514,852.372,477.586L853.082,476.275L853.557,475.413C854.085,474.468,855.28,474.13,856.227,474.657Z" transform="matrix(1 0 0 1 0 -0.415703)" clip-rule="evenodd" fill="rgb(46,24,106)" fill-rule="evenodd" stroke="none" stroke-width="1"/><path id="e42OWG1XALd13" d="M846.699,545.444C849.448,545.213,851.835,545.144,853.673,545.168L854.296,545.181C855.379,545.221,856.225,546.129,856.186,547.21C856.148,548.252,855.3,549.075,854.268,549.097L853.883,549.089C852.138,549.056,849.778,549.116,847.029,549.347C842.883,549.696,838.792,550.367,834.987,551.432C831.402,552.435,828.225,553.749,825.561,555.397C824.64,555.967,823.431,555.684,822.859,554.765C822.288,553.846,822.572,552.638,823.493,552.068C826.497,550.209,830.01,548.756,833.928,547.66C837.994,546.522,842.323,545.812,846.699,545.444Z" transform="matrix(1 0 0 1 0 -0.415703)" clip-rule="evenodd" fill="rgb(46,24,106)" fill-rule="evenodd" stroke="none" stroke-width="1"/></g><path id="e42OWG1XALd14" d="M758.498,555.829C769.751,556.797,778.635,562.952,785.378,572.522C787.93,576.145,789.996,580.016,791.621,583.886C792.127,585.092,792.558,586.222,792.918,587.256L793.049,587.64C793.283,588.331,793.437,588.834,793.516,589.118C793.805,590.161,793.193,591.24,792.148,591.528C791.141,591.807,790.1,591.249,789.767,590.274L789.641,589.854L789.531,589.502C789.471,589.315,789.405,589.112,789.331,588.893C788.975,587.843,788.533,586.668,788.001,585.4C786.479,581.775,784.544,578.149,782.167,574.776C776.037,566.075,768.118,560.588,758.161,559.732C757.081,559.639,756.281,558.69,756.374,557.612C756.464,556.573,757.351,555.794,758.383,555.823L758.498,555.829Z" clip-rule="evenodd" fill="rgb(46,24,106)" fill-rule="evenodd" stroke="none" stroke-width="1"/><path id="e42OWG1XALd15" d="M784.756,529.968C782.728,531.404,780.373,531.6,778.542,530.621C742.761,510.969,712.541,474.278,712.083,434.714C711.559,394.04,762.189,385.487,780.439,448.555C794.176,496.019,790.905,517.368,788.419,525.006C787.7,526.965,786.391,528.793,784.756,529.968L784.756,529.968Z" clip-rule="evenodd" fill="rgb(254,186,145)" fill-rule="evenodd" stroke="none" stroke-width="1"/><path id="e42OWG1XALd16" d="M724.289,408.45C724.805,407.499,725.995,407.144,726.949,407.659C743.737,416.718,757.287,437.816,768.096,467.319C773.191,481.224,777.338,496.107,780.615,510.988L780.99,512.709C781.849,516.694,782.593,520.446,783.227,523.907L783.492,525.372C783.764,526.894,783.993,528.246,784.182,529.412L784.408,530.858C784.566,531.929,783.824,532.924,782.752,533.081C781.679,533.238,780.682,532.498,780.525,531.427L780.345,530.27L780.191,529.327C780.05,528.473,779.889,527.531,779.707,526.504L779.628,526.059C778.862,521.767,777.916,516.982,776.782,511.829C773.54,497.107,769.438,482.388,764.41,468.664C753.903,439.986,740.803,419.587,725.082,411.105C724.129,410.59,723.774,409.402,724.289,408.45Z" clip-rule="evenodd" fill="rgb(46,24,106)" fill-rule="evenodd" stroke="none" stroke-width="1"/><path id="e42OWG1XALd17" d="M712.321,439.982C712.766,438.995,713.927,438.555,714.916,438.999C722.929,442.598,732.086,447.076,740.984,452.017L742.131,452.657C754.655,459.689,764.293,466.396,769.855,472.503C770.584,473.304,770.525,474.542,769.723,475.27C768.921,475.998,767.68,475.939,766.951,475.138C761.583,469.245,751.811,462.512,739.076,455.44C730.288,450.56,721.225,446.129,713.305,442.571C712.317,442.127,711.876,440.968,712.321,439.982Z" clip-rule="evenodd" fill="rgb(46,24,106)" fill-rule="evenodd" stroke="none" stroke-width="1"/><path id="e42OWG1XALd18" d="M778.098,446.082C779.177,445.981,780.133,446.773,780.234,447.85C781.086,456.952,781.521,465.745,781.313,473.441L781.284,474.39C780.945,484.266,779.534,491.379,776.637,495.18C775.981,496.041,774.75,496.208,773.887,495.553C773.024,494.898,772.857,493.67,773.513,492.809C777.867,487.096,778.337,469.685,776.326,448.214C776.226,447.137,777.019,446.183,778.098,446.082Z" clip-rule="evenodd" fill="rgb(46,24,106)" fill-rule="evenodd" stroke="none" stroke-width="1"/><path id="e42OWG1XALd19" d="M728.808,485.188C729.49,484.348,730.726,484.218,731.568,484.899C736.108,488.569,742.816,492.456,751.097,496.405C756.907,499.176,763.141,501.812,769.376,504.226L770.454,504.641C771.874,505.184,773.22,505.687,774.478,506.147L776.18,506.763L777.674,507.288C778.699,507.639,779.245,508.753,778.894,509.776C778.555,510.763,777.505,511.305,776.511,511.028L776.164,510.912L775.34,510.623C775.109,510.541,774.863,510.453,774.604,510.36L773.128,509.825C771.534,509.242,769.8,508.591,767.957,507.878C761.636,505.431,755.314,502.757,749.405,499.94L748.277,499.397C740.257,495.512,733.71,491.671,729.098,487.943C728.255,487.262,728.126,486.029,728.808,485.188Z" clip-rule="evenodd" fill="rgb(46,24,106)" fill-rule="evenodd" stroke="none" stroke-width="1"/><g id="e42OWG1XALd20_tr" transform="translate(758.567932,555.559814) rotate(-207.299383)"><g id="e42OWG1XALd20" transform="translate(-758.567932,-555.559814)"><path id="e42OWG1XALd21" d="M762.321,547.606C763.069,542.104,762.224,537.447,760.434,537.205C758.644,536.962,756.587,541.226,755.839,546.729C755.092,552.231,755.937,556.888,757.726,557.13C759.516,557.372,761.574,553.108,762.321,547.606Z" clip-rule="evenodd" fill="rgb(254,118,36)" fill-rule="evenodd" stroke="none" stroke-width="1"/><path id="e42OWG1XALd22" d="M757.765,557.111C758.822,555.832,756.517,552.19,752.616,548.978C748.714,545.765,744.694,544.198,743.636,545.478C742.579,546.757,744.884,550.399,748.786,553.611C752.687,556.824,756.707,558.391,757.765,557.111Z" clip-rule="evenodd" fill="rgb(254,118,36)" fill-rule="evenodd" stroke="none" stroke-width="1"/><path id="e42OWG1XALd23" d="M768.156,555.198C773.02,552.654,776.269,549.271,775.414,547.643C774.559,546.014,769.923,546.756,765.059,549.3C760.195,551.844,756.946,555.227,757.801,556.856C758.657,558.485,763.293,557.742,768.156,555.198Z" clip-rule="evenodd" fill="rgb(254,118,36)" fill-rule="evenodd" stroke="none" stroke-width="1"/><path id="e42OWG1XALd24" d="M751.193,564.094C755.627,561.666,758.574,558.52,757.775,557.066C756.976,555.611,752.734,556.4,748.299,558.827C743.864,561.254,740.917,564.401,741.716,565.855C742.515,567.309,746.758,566.521,751.193,564.094Z" clip-rule="evenodd" fill="rgb(254,118,36)" fill-rule="evenodd" stroke="none" stroke-width="1"/><path id="e42OWG1XALd25" d="M765.464,573.831C766.975,573.143,766.487,568.835,764.373,564.21C762.258,559.584,759.318,556.393,757.806,557.081C756.295,557.769,756.783,562.077,758.897,566.703C761.012,571.328,763.952,574.52,765.464,573.831Z" clip-rule="evenodd" fill="rgb(254,118,36)" fill-rule="evenodd" stroke="none" stroke-width="1"/></g></g><g id="e42OWG1XALd26_tr" transform="translate(840.006561,440.521789) rotate(0)"><g id="e42OWG1XALd26" transform="translate(-840.006561,-440.521789)"><path id="e42OWG1XALd27" d="M847.771,434.311C851.434,427.927,851.887,421.314,848.784,419.54C845.68,417.766,840.195,421.503,836.532,427.886C832.869,434.269,832.416,440.882,835.52,442.656C838.623,444.43,844.109,440.694,847.771,434.311Z" clip-rule="evenodd" fill="rgb(254,118,36)" fill-rule="evenodd" stroke="none" stroke-width="1"/><path id="e42OWG1XALd28" d="M848.017,448.816C855.313,448.668,861.169,445.626,861.095,442.021C861.022,438.416,855.048,435.613,847.752,435.761C840.456,435.909,834.6,438.951,834.674,442.556C834.747,446.161,840.721,448.964,848.017,448.816Z" clip-rule="evenodd" fill="rgb(254,118,36)" fill-rule="evenodd" stroke="none" stroke-width="1"/><path id="e42OWG1XALd29" d="M834.606,442.807C837.187,440.892,836.099,435.071,832.177,429.804C828.255,424.537,822.984,421.819,820.403,423.733C817.823,425.647,818.91,431.469,822.832,436.736C826.754,442.003,832.026,444.721,834.606,442.807Z" clip-rule="evenodd" fill="rgb(254,118,36)" fill-rule="evenodd" stroke="none" stroke-width="1"/><path id="e42OWG1XALd30" d="M839.363,453.181C842.041,447.188,841.859,441.281,838.956,439.988C836.052,438.696,831.527,442.506,828.848,448.5C826.17,454.493,826.352,460.4,829.255,461.693C832.159,462.985,836.684,459.175,839.363,453.181Z" clip-rule="evenodd" fill="rgb(254,118,36)" fill-rule="evenodd" stroke="none" stroke-width="1"/><path id="e42OWG1XALd31" d="M830.101,447.783C835.956,447.153,840.447,444.288,840.134,441.384C839.82,438.481,834.82,436.637,828.965,437.267C823.111,437.897,818.619,440.762,818.933,443.666C819.246,446.569,824.247,448.413,830.101,447.783Z" clip-rule="evenodd" fill="rgb(254,118,36)" fill-rule="evenodd" stroke="none" stroke-width="1"/></g></g><path id="e42OWG1XALd32" d="M861.42,596.104L837.217,705.526L760.357,705.526L736.155,596.104C734.781,589.837,738.706,583.7,744.07,583.7L853.57,583.7C858.934,583.765,862.859,589.902,861.42,596.104Z" clip-rule="evenodd" fill="rgb(255,255,255)" fill-rule="evenodd" stroke="none" stroke-width="1"/><path id="e42OWG1XALd33" d="M853.594,581.741L744.069,581.741C737.334,581.741,732.617,589.128,734.237,596.523L758.441,705.948C758.639,706.845,759.436,707.484,760.357,707.484L837.217,707.484C838.138,707.484,838.935,706.845,839.133,705.948L863.336,596.526C865.03,589.225,860.33,581.823,853.594,581.741ZM853.568,585.658L853.701,585.662C857.594,585.83,860.586,590.548,859.552,595.465L835.64,703.567L761.934,703.567L738.071,595.682C736.946,590.552,740.071,585.658,744.069,585.658L853.568,585.658Z" clip-rule="evenodd" fill="rgb(46,24,106)" fill-rule="evenodd" stroke="none" stroke-width="1"/><path id="e42OWG1XALd34" d="M723.595,393.975C721.306,378.828,709.793,366.488,694.487,363.289C681.862,360.678,669.041,358.001,665.509,357.087L665.051,359.046L584.528,352.843L583.677,341.483L549.728,341.81C511.396,345.335,482.746,406.444,468.551,443.593L460.702,464.224L520.489,441.569C520.293,452.733,521.339,463.963,524.152,474.474C538.608,528.401,510.088,544.723,510.088,544.723L494.52,615.43L475.55,614.124L475.55,708.725L677.806,708.334L674.667,545.246L723.595,393.975ZM674.667,484.789L674.667,484.006L674.732,484.789L674.667,484.789Z" clip-rule="evenodd" fill="rgb(254,118,36)" fill-rule="evenodd" stroke="none" stroke-width="1"/><path id="e42OWG1XALd35" d="M676.891,628.095L477.447,629.989L475.616,708.725L677.806,708.725L676.891,628.095Z" clip-rule="evenodd" fill="rgb(46,24,106)" fill-rule="evenodd" stroke="none" stroke-width="1"/><path id="e42OWG1XALd36" d="M540.445,395.591C540.923,394.62,542.1,394.22,543.072,394.698C544.009,395.157,544.415,396.263,544.016,397.211L543.967,397.32L531.996,421.607C531.518,422.577,530.342,422.977,529.369,422.5C528.433,422.04,528.027,420.934,528.425,419.986L528.475,419.878L540.445,395.591Z" clip-rule="evenodd" fill="rgb(46,24,106)" fill-rule="evenodd" stroke="none" stroke-width="1"/><path id="e42OWG1XALd37" d="M678.175,305.999C679.205,305.662,680.314,306.221,680.652,307.249C682.334,312.358,682.297,318.792,680.477,325.115C676.953,337.356,667.788,345.728,659.395,343.576C658.345,343.307,657.713,342.239,657.983,341.192C658.252,340.144,659.322,339.513,660.372,339.782C666.252,341.289,673.694,334.49,676.705,324.033C678.316,318.436,678.348,312.8,676.923,308.471C676.585,307.444,677.145,306.337,678.175,305.999Z" clip-rule="evenodd" fill="rgb(254,118,36)" fill-rule="evenodd" stroke="none" stroke-width="1"/><path id="e42OWG1XALd38" d="M578.748,289.612C579.777,289.274,580.886,289.834,581.225,290.861C582.907,295.971,582.87,302.405,581.05,308.727C577.526,320.969,568.361,329.341,559.968,327.189C558.918,326.92,558.286,325.852,558.555,324.804C558.825,323.757,559.895,323.126,560.944,323.395C566.824,324.902,574.267,318.103,577.278,307.646C578.889,302.049,578.921,296.413,577.496,292.084C577.158,291.057,577.718,289.95,578.748,289.612Z" clip-rule="evenodd" fill="rgb(254,118,36)" fill-rule="evenodd" stroke="none" stroke-width="1"/><g id="e42OWG1XALd39_ts" transform="translate(737.702942,166.305092) scale(1,1)"><path id="e42OWG1XALd39" d="M683.301,223.574C669.368,210.255,666.883,149.538,713.718,115.066C761.142,80.2028,790.97,125.904,797.381,137.786C803.791,149.669,805.819,180.223,765.656,203.727C725.492,227.23,699.196,238.721,683.301,223.574Z" transform="translate(-737.702942,-166.305092)" clip-rule="evenodd" fill="rgb(46,24,106)" fill-rule="evenodd" stroke="none" stroke-width="1"/></g><path id="e42OWG1XALd40" d="M657.594,246.947L658.444,247.665C663.677,252.105,671.788,251.517,676.498,246.425L689.777,232.192C694.552,227.1,694.159,219.396,688.926,214.956L688.076,214.238C682.843,209.798,674.732,210.386,670.022,215.479L656.743,229.711C651.968,234.869,652.361,242.573,657.594,246.947Z" clip-rule="evenodd" fill="rgb(254,118,36)" fill-rule="evenodd" stroke="none" stroke-width="1"/><path id="e42OWG1XALd41" d="M631.601,265.788C648.957,249.107,654.801,227.057,644.653,216.539C634.505,206.02,612.208,211.016,594.851,227.697C577.494,244.378,571.651,266.428,581.799,276.947C591.947,287.465,614.244,282.47,631.601,265.788Z" clip-rule="evenodd" fill="rgb(46,24,106)" fill-rule="evenodd" stroke="none" stroke-width="1"/><path id="e42OWG1XALd42" d="M623.318,265.228C637.185,284.553,655.828,293.823,671.592,293.432C688.338,293.04,700.505,256.871,686.637,237.546C672.77,218.221,634.961,205.555,621.879,214.303C608.796,223.117,609.45,245.902,623.318,265.228Z" clip-rule="evenodd" fill="rgb(46,24,106)" fill-rule="evenodd" stroke="none" stroke-width="1"/><path id="e42OWG1XALd43" d="M676.605,306.045C684.123,303.587,688.322,295.817,685.982,288.689C683.643,281.562,675.652,277.777,668.134,280.236C660.615,282.694,656.417,290.464,658.756,297.591C661.095,304.719,669.086,308.504,676.605,306.045Z" clip-rule="evenodd" fill="rgb(255,255,255)" fill-rule="evenodd" stroke="none" stroke-width="1"/><path id="e42OWG1XALd44" d="M667.517,278.368C658.993,281.153,654.21,290.015,656.897,298.195C659.584,306.376,668.697,310.697,677.221,307.912C685.746,305.128,690.529,296.266,687.842,288.086C685.155,279.905,676.041,275.584,667.517,278.368ZM668.74,282.092C675.247,279.967,682.116,283.224,684.113,289.304C686.11,295.383,682.505,302.063,675.998,304.188C669.491,306.314,662.622,303.057,660.625,296.977C658.628,290.898,662.233,284.218,668.74,282.092Z" clip-rule="evenodd" fill="rgb(46,24,106)" fill-rule="evenodd" stroke="none" stroke-width="1"/><path id="e42OWG1XALd45" d="M579.587,288.873C587.105,286.415,591.304,278.644,588.965,271.517C586.626,264.39,578.634,260.605,571.116,263.063C563.597,265.521,559.399,273.292,561.738,280.419C564.077,287.546,572.068,291.331,579.587,288.873Z" clip-rule="evenodd" fill="rgb(255,255,255)" fill-rule="evenodd" stroke="none" stroke-width="1"/><path id="e42OWG1XALd46" d="M570.499,261.196C561.975,263.981,557.192,272.843,559.879,281.023C562.566,289.203,571.679,293.525,580.204,290.74C588.728,287.955,593.511,279.094,590.824,270.913C588.137,262.733,579.024,258.411,570.499,261.196ZM571.723,264.92C578.23,262.794,585.099,266.052,587.096,272.131C589.093,278.211,585.487,284.89,578.98,287.016C572.473,289.142,565.604,285.884,563.607,279.805C561.61,273.725,565.216,267.046,571.723,264.92Z" clip-rule="evenodd" fill="rgb(46,24,106)" fill-rule="evenodd" stroke="none" stroke-width="1"/><path id="e42OWG1XALd47" d="M605.591,325.031L599.18,344.356L581.78,343.246C580.08,345.662,565.754,391.428,609.581,397.826C638.362,402.07,658.444,381.048,672.377,360.613L648.436,355.455L664.266,300.483L605.591,325.031Z" clip-rule="evenodd" fill="rgb(255,255,255)" fill-rule="evenodd" stroke="none" stroke-width="1"/><path id="e42OWG1XALd48" d="M604.832,323.224L604.714,323.278C604.248,323.511,603.892,323.919,603.728,324.415L597.794,342.304L581.906,341.291C581.224,341.248,580.568,341.561,580.175,342.12C579.383,343.245,578.129,347.244,577.316,351.529C576.203,357.396,575.884,363.501,576.663,369.303C578.853,385.611,589.13,396.82,609.297,399.764C623.229,401.818,635.953,398.313,647.677,390.075C657.168,383.406,665.643,373.971,673.999,361.714L674.063,361.615C674.746,360.477,674.113,358.982,672.791,358.698L650.901,353.982L666.152,301.023C666.607,299.443,665.027,298.04,663.507,298.676L604.832,323.224ZM661.248,303.868L646.55,354.913L646.521,355.026C646.283,356.08,646.95,357.138,648.022,357.369L669.091,361.908L669.045,361.974C661.488,372.675,653.827,380.963,645.418,386.872C634.48,394.558,622.752,397.788,609.868,395.888C591.495,393.206,582.518,383.415,580.553,368.782C579.835,363.433,580.132,357.739,581.172,352.258L581.217,352.023C581.71,349.489,582.38,347.059,582.869,345.624L582.987,345.285L599.055,346.31L599.176,346.314C600.019,346.316,600.775,345.778,601.043,344.971L607.172,326.492L661.248,303.868Z" clip-rule="evenodd" fill="rgb(46,24,106)" fill-rule="evenodd" stroke="none" stroke-width="1"/><path id="e42OWG1XALd49" d="M666.761,295.441C676.571,264.88,665.224,233.935,641.417,226.322C617.61,218.71,590.358,237.312,580.549,267.872C570.739,298.433,582.086,329.378,605.893,336.991C629.7,344.603,656.952,326.001,666.761,295.441Z" clip-rule="evenodd" fill="rgb(255,255,255)" fill-rule="evenodd" stroke="none" stroke-width="1"/><path id="e42OWG1XALd50" d="M578.7,267.293C568.577,298.805,580.329,330.903,605.274,338.874C630.219,346.844,658.487,327.532,668.61,296.02C678.733,264.508,666.982,232.41,642.036,224.439C617.091,216.469,588.824,235.781,578.7,267.293ZM582.436,268.486C591.954,238.859,618.19,220.935,640.837,228.171C663.484,235.407,674.392,265.199,664.874,294.827C655.356,324.454,629.12,342.378,606.473,335.142C583.826,327.906,572.919,298.114,582.436,268.486Z" clip-rule="evenodd" fill="rgb(46,24,106)" fill-rule="evenodd" stroke="none" stroke-width="1"/><path id="e42OWG1XALd51" d="M615.613,268.341C616.021,267.34,617.166,266.858,618.17,267.266C619.138,267.659,619.622,268.735,619.288,269.71L619.248,269.818L610.359,291.616L618.136,292.869C619.168,293.036,619.881,293.977,619.775,295.001L619.76,295.115C619.594,296.145,618.651,296.857,617.624,296.752L617.51,296.737L609.021,295.368C606.955,295.051,605.726,292.923,606.408,290.93L606.455,290.8L615.613,268.341Z" clip-rule="evenodd" fill="rgb(46,24,106)" fill-rule="evenodd" stroke="none" stroke-width="1"/><g id="e42OWG1XALd52_to" transform="translate(639.409027,258.966591)"><path id="e42OWG1XALd52" d="M631.432,256.692C635.923,253.62,640.62,254.386,644.851,257.388C645.632,257.942,646.335,258.533,646.953,259.127C647.332,259.491,647.607,259.783,647.767,259.971C648.473,260.792,648.377,262.028,647.555,262.732C646.763,263.409,645.588,263.347,644.871,262.611L644.67,262.39C644.569,262.282,644.422,262.132,644.233,261.951C643.747,261.485,643.19,261.016,642.577,260.581C639.547,258.431,636.547,257.942,633.65,259.923C632.756,260.534,631.535,260.307,630.922,259.414C630.309,258.522,630.538,257.303,631.432,256.692Z" transform="translate(-639.409027,-258.966591)" clip-rule="evenodd" fill="rgb(46,24,106)" fill-rule="evenodd" stroke="none" stroke-width="1"/></g><g id="e42OWG1XALd53_to" transform="translate(604.969635,254.820663)"><path id="e42OWG1XALd53" d="M603.202,251.175C605.634,250.77,608.152,251.127,610.599,251.956C611.639,252.308,612.44,252.665,612.923,252.922C613.88,253.43,614.243,254.616,613.734,255.571C613.244,256.491,612.124,256.861,611.187,256.433L610.955,256.318C610.898,256.29,610.826,256.256,610.74,256.217L610.649,256.176C610.262,256.003,609.821,255.829,609.338,255.665C607.452,255.027,605.545,254.756,603.848,255.039C602.101,255.33,600.669,256.191,599.547,257.796C598.926,258.683,597.703,258.9,596.814,258.281C595.926,257.662,595.708,256.441,596.328,255.554C598.073,253.06,600.442,251.635,603.202,251.175Z" transform="translate(-604.969635,-254.820663)" clip-rule="evenodd" fill="rgb(46,24,106)" fill-rule="evenodd" stroke="none" stroke-width="1"/></g><path id="e42OWG1XALd54" d="M636.688,279.228C636.961,276.393,635.637,273.946,633.732,273.763C631.826,273.58,630.059,275.731,629.786,278.566C629.513,281.402,630.837,283.848,632.743,284.031C634.649,284.214,636.415,282.064,636.688,279.228Z" clip-rule="evenodd" fill="rgb(46,24,106)" fill-rule="evenodd" stroke="none" stroke-width="1"/><path id="e42OWG1XALd55" d="M604.587,276.676C605.156,273.885,604.096,271.313,602.22,270.932C600.343,270.551,598.361,272.505,597.792,275.297C597.224,278.088,598.284,280.659,600.16,281.04C602.036,281.421,604.018,279.467,604.587,276.676Z" clip-rule="evenodd" fill="rgb(46,24,106)" fill-rule="evenodd" stroke="none" stroke-width="1"/><path id="e42OWG1XALd56" d="M658.837,230.233C658.837,230.233,640.783,237.676,641.895,249.101L564.904,244.074C564.904,244.074,556.924,185.772,648.959,213.65L658.837,230.233Z" clip-rule="evenodd" fill="rgb(46,24,106)" fill-rule="evenodd" stroke="none" stroke-width="1"/><path id="e42OWG1XALd57" d="M653.473,232.78C653.473,232.78,647.39,270.973,672.116,281.419L672.573,247.6L653.473,232.78Z" clip-rule="evenodd" fill="rgb(46,24,106)" fill-rule="evenodd" stroke="none" stroke-width="1"/><path id="e42OWG1XALd58" d="M551.376,300.199C554.976,287.799,564.371,279.36,572.783,281.824C573.823,282.129,574.418,283.218,574.113,284.255C573.808,285.293,572.717,285.888,571.677,285.583C565.829,283.87,558.218,290.707,555.145,301.289C552.11,311.744,554.817,321.483,560.556,323.29L560.643,323.316L560.802,323.356L560.882,323.38L560.906,323.385C561.737,323.58,562.364,324.301,562.415,325.177L562.418,325.292C562.418,326.374,561.54,327.25,560.456,327.25C560.23,327.25,560.059,327.22,559.88,327.171L559.758,327.135L559.657,327.11C551.315,324.742,547.851,312.821,551.27,300.57L551.376,300.199Z" clip-rule="evenodd" fill="rgb(254,118,36)" fill-rule="evenodd" stroke="none" stroke-width="1"/><path id="e42OWG1XALd59" d="M650.803,316.586C654.403,304.187,663.799,295.747,672.21,298.212C673.25,298.516,673.846,299.605,673.541,300.643C673.235,301.681,672.145,302.275,671.105,301.97C665.257,300.257,657.645,307.094,654.573,317.676C651.537,328.131,654.245,337.87,659.984,339.678L660.07,339.703L660.23,339.743L660.309,339.767L660.333,339.772C661.164,339.967,661.792,340.688,661.842,341.564L661.846,341.679C661.846,342.761,660.967,343.638,659.883,343.638C659.657,343.638,659.487,343.607,659.308,343.558L659.186,343.522L659.085,343.498C650.742,341.13,647.278,329.208,650.697,316.957L650.803,316.586Z" clip-rule="evenodd" fill="rgb(254,118,36)" fill-rule="evenodd" stroke="none" stroke-width="1"/><g id="e42OWG1XALd60_ts" transform="translate(625.149078,305.768112) scale(1,1)"><path id="e42OWG1XALd60" d="M634.459,299.319C634.778,298.285,635.876,297.705,636.912,298.023C637.948,298.341,638.529,299.437,638.21,300.471C636.304,306.656,632.034,310.5,626.241,312.347C622.404,313.57,618.402,313.796,614.81,313.459L614.32,313.408C614.026,313.375,613.799,313.344,613.645,313.319C612.576,313.143,611.851,312.136,612.027,311.068C612.196,310.039,613.141,309.33,614.167,309.438L614.568,309.493C614.726,309.513,614.931,309.536,615.178,309.559C618.288,309.851,621.792,309.653,625.047,308.615C629.686,307.136,632.957,304.191,634.459,299.319Z" transform="translate(-625.149078,-305.768112)" clip-rule="evenodd" fill="rgb(46,24,106)" fill-rule="evenodd" stroke="none" stroke-width="1"/></g><path id="e42OWG1XALd61" d="M410.465,631.229L389.663,707.354L514.667,707.354L494.389,630.576L410.465,631.229Z" transform="matrix(1 0 0 1 0.2945 0)" clip-rule="evenodd" fill="rgb(93,33,209)" fill-rule="evenodd" stroke="none" stroke-width="1"/><path id="e42OWG1XALd62" d="M615.533,634.036L299.852,634.036C296.385,634.036,293.572,631.229,293.572,627.769L295.338,424.529C295.338,421.069,296.385,414.67,299.786,414.67L615.533,414.67C619,414.67,621.813,417.478,621.813,420.938L621.813,627.769C621.748,631.229,618.935,634.036,615.533,634.036Z" clip-rule="evenodd" fill="rgb(93,33,209)" fill-rule="evenodd" stroke="none" stroke-width="1"/><path id="e42OWG1XALd63" d="M564.904,602.829L336.875,602.829C332.885,602.829,329.68,599.63,329.68,595.647L329.68,442.353C329.68,438.37,332.885,435.171,336.875,435.171L564.904,435.171C568.894,435.171,572.099,438.37,572.099,442.353L572.099,595.713C572.099,599.63,568.829,602.829,564.904,602.829Z" clip-rule="evenodd" fill="rgb(255,255,255)" fill-rule="evenodd" stroke="none" stroke-width="1"/><path id="e42OWG1XALd64" d="M523.759,594.08L376.973,594.08C373.637,594.08,370.955,591.403,370.955,588.074L370.955,491.644C370.955,488.314,373.637,485.638,376.973,485.638L523.825,485.638C527.161,485.638,529.843,488.314,529.843,491.644L529.843,588.008C529.843,591.338,527.095,594.08,523.759,594.08Z" transform="matrix(0.733026 0 0 1 98.905352 0)" clip-rule="evenodd" fill="rgb(46,24,106)" fill-rule="evenodd" stroke="none" stroke-width="1"/><path id="e42OWG1XALd65" d="M450.432,650.554C441.003,650.554,433.359,658.183,433.359,667.594C433.359,677.005,441.003,684.634,450.432,684.634C459.861,684.634,467.505,677.005,467.505,667.594C467.505,658.183,459.861,650.554,450.432,650.554ZM450.432,654.471C457.693,654.471,463.58,660.347,463.58,667.594C463.58,674.842,457.693,680.717,450.432,680.717C443.17,680.717,437.284,674.842,437.284,667.594C437.284,660.347,443.17,654.471,450.432,654.471Z" clip-rule="evenodd" fill="rgb(255,255,255)" fill-rule="evenodd" stroke="none" stroke-width="1"/><path id="e42OWG1XALd66" d="M483.41,632.391C484.427,632.152,485.445,632.751,485.739,633.739L485.768,633.85L502.448,704.818C502.696,705.871,502.041,706.925,500.986,707.172C499.969,707.41,498.95,706.811,498.657,705.823L498.627,705.712L481.947,634.745C481.7,633.692,482.354,632.638,483.41,632.391Z" clip-rule="evenodd" fill="rgb(255,255,255)" fill-rule="evenodd" stroke="none" stroke-width="1"/><path id="e42OWG1XALd67" d="M583.743,426.487L318.036,426.487C312.962,426.487,308.879,430.563,308.879,435.628L308.879,608.248C308.879,613.312,312.962,617.388,318.036,617.388L583.743,617.388C588.817,617.388,592.901,613.312,592.901,608.248L592.901,435.628C592.901,430.563,588.817,426.487,583.743,426.487ZM318.036,430.405L583.743,430.405C586.649,430.405,588.976,432.727,588.976,435.628L588.976,608.248C588.976,611.148,586.649,613.471,583.743,613.471L318.036,613.471C315.13,613.471,312.803,611.148,312.803,608.248L312.803,435.628C312.803,432.727,315.13,430.405,318.036,430.405Z" clip-rule="evenodd" fill="rgb(255,255,255)" fill-rule="evenodd" stroke="none" stroke-width="1"/><path id="e42OWG1XALd68" d="M606.703,414.475C607.748,414.475,608.602,415.29,608.662,416.318L608.665,416.433L608.665,632.078C608.665,633.159,607.787,634.036,606.703,634.036C605.658,634.036,604.803,633.221,604.744,632.193L604.74,632.078L604.74,416.433C604.74,415.352,605.619,414.475,606.703,414.475Z" clip-rule="evenodd" fill="rgb(255,255,255)" fill-rule="evenodd" stroke="none" stroke-width="1"/><path id="e42OWG1XALd69" d="M547.243,441.961L276.827,441.961L312.934,429.36C315.158,428.577,317.513,428.185,319.868,428.185L585.64,428.185L547.243,441.961Z" clip-rule="evenodd" fill="rgb(254,118,36)" fill-rule="evenodd" stroke="none" stroke-width="1"/><path id="e42OWG1XALd70" d="M585.64,426.227L319.868,426.227C317.276,426.227,314.701,426.661,312.281,427.513L276.179,440.112C274.093,440.84,274.617,443.919,276.826,443.919L547.242,443.919C547.469,443.919,547.693,443.88,547.906,443.804L586.304,430.028C588.374,429.286,587.84,426.227,585.64,426.227ZM574.378,430.144L546.899,440.002L288.383,440.002L313.582,431.209C315.585,430.504,317.718,430.144,319.868,430.144L574.378,430.144Z" clip-rule="evenodd" fill="rgb(46,24,106)" fill-rule="evenodd" stroke="none" stroke-width="1"/><g id="e42OWG1XALd71" transform="matrix(1 0 0 1 0.063324 0)"><path id="e42OWG1XALd72" d="M304.431,441.896L276.827,441.896C276.827,441.896,276.761,461.221,276.761,461.482C276.761,468.663,282.975,474.474,290.629,474.474C298.282,474.474,304.496,468.663,304.496,461.482C304.496,460.959,304.431,441.896,304.431,441.896Z" clip-rule="evenodd" fill="rgb(254,118,36)" fill-rule="evenodd" stroke="none" stroke-width="1"/><path id="e42OWG1XALd73" d="M304.431,439.937L276.827,439.937C275.784,439.937,274.931,440.749,274.868,441.774L274.799,461.482C274.799,469.77,281.914,476.433,290.629,476.433C299.256,476.433,306.316,469.903,306.456,461.73L306.393,441.889C306.389,440.81,305.512,439.937,304.431,439.937ZM278.782,443.854L302.475,443.854L302.534,461.482C302.534,467.549,297.229,472.515,290.629,472.515C284.028,472.515,278.723,467.549,278.723,461.482L278.782,443.854Z" clip-rule="evenodd" fill="rgb(46,24,106)" fill-rule="evenodd" stroke="none" stroke-width="1"/></g><path id="e42OWG1XALd74" d="M331.381,441.896L303.777,441.896C303.777,441.896,303.711,461.221,303.711,461.482C303.711,468.663,309.925,474.474,317.579,474.474C325.232,474.474,331.446,468.663,331.446,461.482C331.512,460.959,331.381,441.896,331.381,441.896Z" clip-rule="evenodd" fill="rgb(255,255,255)" fill-rule="evenodd" stroke="none" stroke-width="1"/><path id="e42OWG1XALd75" d="M331.381,439.937L303.777,439.937C302.734,439.937,301.881,440.749,301.818,441.774L301.749,461.482C301.749,469.77,308.864,476.433,317.579,476.433L317.84,476.431C326.263,476.302,333.129,469.949,333.399,461.972L333.42,460.807C333.435,459.435,333.426,456.528,333.401,451.684L333.343,441.882C333.336,440.806,332.459,439.937,331.381,439.937ZM305.732,443.854L329.431,443.854L329.498,456.872C329.505,459.451,329.505,461.186,329.499,461.239C329.489,461.32,329.484,461.401,329.484,461.482C329.484,467.549,324.179,472.515,317.579,472.515C310.978,472.515,305.673,467.549,305.673,461.482L305.732,443.854Z" clip-rule="evenodd" fill="rgb(46,24,106)" fill-rule="evenodd" stroke="none" stroke-width="1"/><path id="e42OWG1XALd76" d="M358.396,441.896L330.792,441.896C330.792,441.896,330.727,461.221,330.727,461.482C330.727,468.663,336.941,474.474,344.594,474.474C352.247,474.474,358.462,468.663,358.462,461.482C358.462,460.959,358.396,441.896,358.396,441.896Z" clip-rule="evenodd" fill="rgb(254,118,36)" fill-rule="evenodd" stroke="none" stroke-width="1"/><path id="e42OWG1XALd77" d="M358.396,439.937L330.792,439.937C329.749,439.937,328.896,440.749,328.833,441.774L328.764,461.482C328.764,469.77,335.88,476.433,344.594,476.433C353.221,476.433,360.281,469.903,360.422,461.73L360.358,441.889C360.355,440.81,359.477,439.937,358.396,439.937ZM332.747,443.854L356.44,443.854L356.499,461.482C356.499,467.549,351.195,472.515,344.594,472.515C337.993,472.515,332.689,467.549,332.689,461.482L332.747,443.854Z" clip-rule="evenodd" fill="rgb(46,24,106)" fill-rule="evenodd" stroke="none" stroke-width="1"/><path id="e42OWG1XALd78" d="M385.346,441.896L357.742,441.896C357.742,441.896,357.677,461.221,357.677,461.482C357.677,468.663,363.891,474.474,371.544,474.474C379.197,474.474,385.411,468.663,385.411,461.482C385.411,460.959,385.346,441.896,385.346,441.896Z" clip-rule="evenodd" fill="rgb(255,255,255)" fill-rule="evenodd" stroke="none" stroke-width="1"/><path id="e42OWG1XALd79" d="M385.346,439.937L357.742,439.937C356.699,439.937,355.846,440.749,355.783,441.774L355.714,461.482C355.714,469.77,362.83,476.433,371.544,476.433C380.171,476.433,387.231,469.903,387.372,461.73L387.309,441.889C387.305,440.81,386.427,439.937,385.346,439.937ZM359.697,443.854L383.39,443.854L383.449,461.482C383.449,467.549,378.145,472.515,371.544,472.515C364.943,472.515,359.639,467.549,359.639,461.482L359.697,443.854Z" clip-rule="evenodd" fill="rgb(46,24,106)" fill-rule="evenodd" stroke="none" stroke-width="1"/><path id="e42OWG1XALd80" d="M412.296,441.896L384.692,441.896C384.692,441.896,384.627,461.221,384.627,461.482C384.627,468.663,390.841,474.474,398.494,474.474C406.147,474.474,412.362,468.663,412.362,461.482C412.427,460.959,412.296,441.896,412.296,441.896Z" clip-rule="evenodd" fill="rgb(254,118,36)" fill-rule="evenodd" stroke="none" stroke-width="1"/><path id="e42OWG1XALd81" d="M412.296,439.937L384.692,439.937C383.649,439.937,382.796,440.749,382.733,441.774L382.664,461.482C382.664,469.77,389.78,476.433,398.494,476.433L398.755,476.431C407.178,476.302,414.044,469.949,414.314,461.972L414.336,460.807C414.35,459.435,414.341,456.528,414.317,451.684L414.258,441.882C414.251,440.806,413.375,439.937,412.296,439.937ZM386.647,443.854L410.346,443.854L410.413,456.872C410.421,459.451,410.421,461.186,410.414,461.239C410.404,461.32,410.399,461.401,410.399,461.482C410.399,467.549,405.095,472.515,398.494,472.515C391.893,472.515,386.589,467.549,386.589,461.482L386.647,443.854Z" clip-rule="evenodd" fill="rgb(46,24,106)" fill-rule="evenodd" stroke="none" stroke-width="1"/><path id="e42OWG1XALd82" d="M439.312,441.896L411.708,441.896C411.708,441.896,411.642,461.221,411.642,461.482C411.642,468.663,417.856,474.474,425.51,474.474C433.163,474.474,439.377,468.663,439.377,461.482C439.377,460.959,439.312,441.896,439.312,441.896Z" clip-rule="evenodd" fill="rgb(255,255,255)" fill-rule="evenodd" stroke="none" stroke-width="1"/><path id="e42OWG1XALd83" d="M439.312,439.937L411.707,439.937C410.665,439.937,409.812,440.749,409.749,441.774L409.68,461.482C409.68,469.77,416.795,476.433,425.51,476.433C434.137,476.433,441.197,469.903,441.337,461.73L441.274,441.889C441.27,440.81,440.393,439.937,439.312,439.937ZM413.663,443.854L437.356,443.854L437.415,461.482C437.415,467.549,432.11,472.515,425.51,472.515C418.909,472.515,413.604,467.549,413.604,461.482L413.663,443.854Z" clip-rule="evenodd" fill="rgb(46,24,106)" fill-rule="evenodd" stroke="none" stroke-width="1"/><path id="e42OWG1XALd84" d="M466.262,441.896L438.657,441.896C438.657,441.896,438.592,461.221,438.592,461.482C438.592,468.663,444.806,474.474,452.46,474.474C460.113,474.474,466.327,468.663,466.327,461.482C466.327,460.959,466.262,441.896,466.262,441.896Z" clip-rule="evenodd" fill="rgb(254,118,36)" fill-rule="evenodd" stroke="none" stroke-width="1"/><path id="e42OWG1XALd85" d="M466.262,439.937L438.657,439.937C437.615,439.937,436.762,440.749,436.699,441.774L436.63,461.482C436.63,469.77,443.745,476.433,452.46,476.433C461.087,476.433,468.147,469.903,468.287,461.73L468.224,441.889C468.22,440.81,467.343,439.937,466.262,439.937ZM440.613,443.854L464.306,443.854L464.365,461.482C464.365,467.549,459.06,472.515,452.46,472.515C445.859,472.515,440.554,467.549,440.554,461.482L440.613,443.854Z" clip-rule="evenodd" fill="rgb(46,24,106)" fill-rule="evenodd" stroke="none" stroke-width="1"/><path id="e42OWG1XALd86" d="M493.212,441.896L465.608,441.896C465.608,441.896,465.542,461.221,465.542,461.482C465.542,468.663,471.756,474.474,479.41,474.474C487.063,474.474,493.277,468.663,493.277,461.482C493.342,460.959,493.212,441.896,493.212,441.896Z" clip-rule="evenodd" fill="rgb(255,255,255)" fill-rule="evenodd" stroke="none" stroke-width="1"/><path id="e42OWG1XALd87" d="M493.212,439.937L465.608,439.937C464.526,439.937,463.649,440.81,463.645,441.889L463.58,461.482C463.58,469.77,470.695,476.433,479.41,476.433L479.671,476.431C488.094,476.302,494.96,469.949,495.23,461.972L495.251,460.807C495.266,459.435,495.257,456.528,495.232,451.684L495.174,441.882C495.167,440.806,494.29,439.937,493.212,439.937ZM467.563,443.854L491.262,443.854L491.329,456.872C491.336,459.451,491.336,461.186,491.33,461.239C491.32,461.32,491.315,461.401,491.315,461.482C491.315,467.549,486.01,472.515,479.41,472.515C472.884,472.515,467.625,467.661,467.507,461.688L467.563,443.854Z" clip-rule="evenodd" fill="rgb(46,24,106)" fill-rule="evenodd" stroke="none" stroke-width="1"/><path id="e42OWG1XALd88" d="M520.227,441.896L492.623,441.896C492.623,441.896,492.557,461.221,492.557,461.482C492.557,468.663,498.772,474.474,506.425,474.474C514.078,474.474,520.292,468.663,520.292,461.482C520.292,460.959,520.227,441.896,520.227,441.896Z" clip-rule="evenodd" fill="rgb(254,118,36)" fill-rule="evenodd" stroke="none" stroke-width="1"/><path id="e42OWG1XALd89" d="M520.227,439.937L492.623,439.937C491.58,439.937,490.727,440.749,490.664,441.774L490.595,461.482C490.595,469.77,497.711,476.433,506.425,476.433C515.052,476.433,522.112,469.903,522.253,461.73L522.189,441.889C522.186,440.81,521.308,439.937,520.227,439.937ZM494.578,443.854L518.271,443.854L518.33,461.482C518.33,467.549,513.026,472.515,506.425,472.515C499.824,472.515,494.52,467.549,494.52,461.482L494.578,443.854Z" clip-rule="evenodd" fill="rgb(46,24,106)" fill-rule="evenodd" stroke="none" stroke-width="1"/><path id="e42OWG1XALd90" d="M547.177,441.896L519.573,441.896C519.573,441.896,519.508,461.221,519.508,461.482C519.508,468.663,525.722,474.474,533.375,474.474C541.028,474.474,547.242,468.663,547.242,461.482C547.242,460.959,547.177,441.896,547.177,441.896Z" clip-rule="evenodd" fill="rgb(255,255,255)" fill-rule="evenodd" stroke="none" stroke-width="1"/><path id="e42OWG1XALd91" d="M547.177,439.937L519.573,439.937C518.492,439.937,517.614,440.81,517.611,441.889L517.545,461.482C517.545,469.77,524.661,476.433,533.375,476.433C542.002,476.433,549.062,469.903,549.203,461.73L549.139,441.889C549.136,440.81,548.258,439.937,547.177,439.937ZM521.528,443.854L545.221,443.854L545.28,461.486C545.28,467.549,539.976,472.515,533.375,472.515C526.849,472.515,521.591,467.661,521.472,461.688L521.528,443.854Z" clip-rule="evenodd" fill="rgb(46,24,106)" fill-rule="evenodd" stroke="none" stroke-width="1"/><path id="e42OWG1XALd92" d="M342.222,426.279C343.24,425.909,344.366,426.433,344.737,427.449C345.095,428.43,344.62,429.51,343.672,429.918L343.565,429.96L305.495,443.801C304.476,444.171,303.35,443.648,302.979,442.631C302.622,441.651,303.097,440.571,304.044,440.163L304.151,440.12L342.222,426.279Z" clip-rule="evenodd" fill="rgb(46,24,106)" fill-rule="evenodd" stroke="none" stroke-width="1"/><path id="e42OWG1XALd93" d="M368.192,426.279C369.21,425.909,370.336,426.434,370.706,427.45C371.064,428.431,370.588,429.511,369.64,429.918L369.533,429.961L331.397,443.801C330.379,444.171,329.253,443.647,328.882,442.63C328.525,441.65,329.001,440.57,329.949,440.163L330.056,440.12L368.192,426.279Z" clip-rule="evenodd" fill="rgb(46,24,106)" fill-rule="evenodd" stroke="none" stroke-width="1"/><path id="e42OWG1XALd94" d="M395.534,426.279C396.553,425.909,397.679,426.434,398.049,427.45C398.406,428.431,397.93,429.511,396.983,429.918L396.875,429.961L358.74,443.801C357.721,444.171,356.595,443.647,356.225,442.63C355.868,441.65,356.344,440.57,357.291,440.163L357.398,440.12L395.534,426.279Z" clip-rule="evenodd" fill="rgb(46,24,106)" fill-rule="evenodd" stroke="none" stroke-width="1"/><path id="e42OWG1XALd95" d="M422.549,426.279C423.568,425.909,424.694,426.434,425.064,427.45C425.421,428.431,424.946,429.511,423.998,429.918L423.891,429.961L385.755,443.801C384.737,444.171,383.611,443.647,383.24,442.63C382.883,441.65,383.359,440.57,384.307,440.163L384.414,440.12L422.549,426.279Z" clip-rule="evenodd" fill="rgb(46,24,106)" fill-rule="evenodd" stroke="none" stroke-width="1"/><path id="e42OWG1XALd96" d="M449.564,426.279C450.582,425.909,451.708,426.433,452.079,427.449C452.437,428.43,451.962,429.51,451.014,429.918L450.907,429.96L412.837,443.801C411.819,444.171,410.692,443.648,410.321,442.631C409.964,441.651,410.439,440.571,411.386,440.163L411.494,440.12L449.564,426.279Z" clip-rule="evenodd" fill="rgb(46,24,106)" fill-rule="evenodd" stroke="none" stroke-width="1"/><path id="e42OWG1XALd97" d="M477.168,426.279C478.186,425.909,479.313,426.433,479.684,427.449C480.041,428.43,479.566,429.51,478.619,429.918L478.511,429.96L440.441,443.801C439.423,444.171,438.297,443.648,437.926,442.631C437.568,441.651,438.043,440.571,438.991,440.163L439.098,440.12L477.168,426.279Z" clip-rule="evenodd" fill="rgb(46,24,106)" fill-rule="evenodd" stroke="none" stroke-width="1"/><path id="e42OWG1XALd98" d="M503.66,426.279C504.678,425.909,505.805,426.433,506.176,427.449C506.533,428.43,506.058,429.51,505.111,429.918L505.003,429.96L466.933,443.801C465.915,444.171,464.789,443.648,464.418,442.631C464.06,441.651,464.535,440.571,465.483,440.163L465.59,440.12L503.66,426.279Z" clip-rule="evenodd" fill="rgb(46,24,106)" fill-rule="evenodd" stroke="none" stroke-width="1"/><path id="e42OWG1XALd99" d="M531.395,426.279C532.413,425.909,533.54,426.433,533.911,427.449C534.268,428.43,533.793,429.51,532.846,429.918L532.738,429.96L494.668,443.801C493.65,444.171,492.524,443.648,492.153,442.631C491.795,441.651,492.27,440.571,493.218,440.163L493.325,440.12L531.395,426.279Z" clip-rule="evenodd" fill="rgb(46,24,106)" fill-rule="evenodd" stroke="none" stroke-width="1"/><path id="e42OWG1XALd100" d="M556.514,426.279C557.532,425.909,558.658,426.433,559.029,427.449C559.387,428.43,558.912,429.51,557.964,429.918L557.857,429.96L519.787,443.801C518.768,444.171,517.642,443.648,517.271,442.631C516.914,441.651,517.389,440.571,518.336,440.163L518.443,440.12L556.514,426.279Z" clip-rule="evenodd" fill="rgb(46,24,106)" fill-rule="evenodd" stroke="none" stroke-width="1"/><path id="e42OWG1XALd101" d="M526.965,594.08L256.287,594.08C254.586,594.08,253.213,592.709,253.213,591.012L253.213,584.744C253.213,583.047,254.586,581.676,256.287,581.676L526.965,581.676C528.665,581.676,530.039,583.047,530.039,584.744L530.039,591.012C530.039,592.709,528.665,594.08,526.965,594.08Z" clip-rule="evenodd" fill="rgb(254,118,36)" fill-rule="evenodd" stroke="none" stroke-width="1"/><g id="e42OWG1XALd102_to" transform="translate(371.936509,540.675507)"><g id="e42OWG1XALd102" transform="translate(-371.936508,-540.675506)"><path id="e42OWG1XALd103" d="M279.574,581.872L464.299,581.872C470.644,581.872,475.812,576.714,475.812,570.381L475.812,510.97C475.812,504.637,470.644,499.479,464.299,499.479L279.574,499.479C273.229,499.479,268.061,504.637,268.061,510.97L268.061,570.381C268.061,576.714,273.229,581.872,279.574,581.872Z" clip-rule="evenodd" fill="rgb(254,186,145)" fill-rule="evenodd" stroke="none" stroke-width="1"/><path id="e42OWG1XALd104" d="M285.526,564.44L325.494,564.44C327.914,564.44,329.811,562.482,329.811,560.131L329.811,545.768C329.811,543.352,327.848,541.459,325.494,541.459L285.526,541.459C283.106,541.459,281.209,543.418,281.209,545.768L281.209,560.131C281.209,562.482,283.106,564.44,285.526,564.44Z" clip-rule="evenodd" fill="rgb(255,255,255)" fill-rule="evenodd" stroke="none" stroke-width="1"/></g></g><path id="e42OWG1XALd105" d="M395.551,499.609L395.551,581.088L391.626,581.088L391.626,499.609L395.551,499.609Z" clip-rule="evenodd" fill="rgb(255,255,255)" fill-rule="evenodd" stroke="none" stroke-width="1"/><path id="e42OWG1XALd106" d="M414.716,708.725L199.182,708.725C197.154,708.725,195.519,707.093,195.519,705.069L195.519,698.149C195.519,696.125,197.154,694.493,199.182,694.493L414.716,694.493C416.744,694.493,418.38,696.125,418.38,698.149L418.38,705.069C418.445,707.093,416.744,708.725,414.716,708.725Z" clip-rule="evenodd" fill="rgb(254,118,36)" fill-rule="evenodd" stroke="none" stroke-width="1"/><path id="e42OWG1XALd107" d="M639.801,708.725L573.866,708.725C571.838,708.725,570.202,707.093,570.202,705.069L570.202,698.149C570.202,696.125,571.838,694.493,573.866,694.493L639.801,694.493C641.829,694.493,643.465,696.125,643.465,698.149L643.465,705.069C643.465,707.093,641.829,708.725,639.801,708.725Z" clip-rule="evenodd" fill="rgb(254,118,36)" fill-rule="evenodd" stroke="none" stroke-width="1"/><path id="e42OWG1XALd108" d="M548.943,524.484L538.674,499.348C535.534,494.125,540.243,489.555,545.411,493.472C547.373,494.974,549.859,497.128,552.214,501.045C559.017,512.275,574.062,535.778,573.211,534.864C572.361,533.95,548.943,524.484,548.943,524.484Z" clip-rule="evenodd" fill="rgb(255,255,255)" fill-rule="evenodd" stroke="none" stroke-width="1"/><g id="e42OWG1XALd109_tr" transform="translate(567.764527,526.859314) rotate(0)"><g id="e42OWG1XALd109" transform="translate(-567.764526,-526.859314)"><path id="e42OWG1XALd110" d="M536.865,500.142L536.91,500.218L547.126,525.223C547.31,525.672,547.652,526.035,548.086,526.246L548.248,526.316L551.996,527.84L554.831,529.002C556.399,529.645,557.947,530.284,559.442,530.906L563.254,532.5C565.241,533.338,566.96,534.074,568.356,534.687L569.33,535.119C570.086,535.457,570.705,535.742,571.176,535.97L571.531,536.145C571.601,536.18,571.665,536.213,571.723,536.244L571.96,536.374L572.015,536.421L572.113,536.495C572.171,536.535,572.232,536.568,572.414,536.666L572.577,536.74C572.867,536.862,572.999,536.846,573.919,536.729L574.378,536.397C575.013,535.928,575.038,535.821,575.186,535.182L575.203,534.849C575.208,534.696,575.199,534.65,575.172,534.509L575.122,534.313C575.098,534.224,575.088,534.199,575.058,534.124C574.999,533.978,574.932,533.849,574.824,533.657L574.609,533.286C574.48,533.067,574.319,532.799,574.124,532.478L572.957,530.583L559.809,509.614C557.482,505.886,555.637,502.902,554.179,500.504L553.893,500.032C551.839,496.616,549.698,494.329,546.907,492.151L546.598,491.912C539.847,486.795,532.836,493.081,536.865,500.142ZM544.224,495.032L544.217,495.027C546.697,496.924,548.54,498.828,550.325,501.716L551.779,504.101C553.116,506.283,554.724,508.877,556.658,511.973L568.176,530.329L566.684,529.693C565.89,529.356,565.029,528.993,564.095,528.602L561.845,527.662C559.775,526.799,557.59,525.897,555.38,524.991L550.447,522.979L540.491,498.608C540.453,498.516,540.408,498.426,540.356,498.34C538.267,494.865,540.871,492.49,544.224,495.032Z" transform="matrix(1 0 0 1 -0.262504 0)" clip-rule="evenodd" fill="rgb(46,24,106)" fill-rule="evenodd" stroke="none" stroke-width="1"/><path id="e42OWG1XALd111" d="M628.681,515.539L574.454,527.487L547.897,513.972L512.443,503.2C508.126,501.959,504.921,507.378,508.257,510.447C510.023,512.014,536.711,520.958,536.711,520.958L502.762,517.171C499.295,516.78,497.006,520.828,499.23,523.57C501.454,526.312,505.444,526.508,510.808,527.748C514.078,528.466,535.076,530.947,535.076,530.947L505.117,533.036C497.725,533.885,497.921,544.462,512.051,542.699C519.377,541.785,528.273,541.85,534.487,540.153L514.209,545.963C507.537,550.011,514.405,557.519,542.991,548.901C560.391,562.873,569.483,565.484,585.182,556.279C585.247,556.213,637.708,547.661,637.708,547.661L628.681,515.539Z" transform="matrix(1 0 0 1 -0.262504 0)" clip-rule="evenodd" fill="rgb(255,255,255)" fill-rule="evenodd" stroke="none" stroke-width="1"/><path id="e42OWG1XALd112" d="M506.953,511.911L507.001,511.952C507.998,512.778,511.698,514.263,518.385,516.673L519.476,517.064L502.98,515.225C497.763,514.636,494.381,520.704,497.704,524.802C499.419,526.916,501.511,527.795,505.792,528.699L508.162,529.181C509.006,529.353,509.688,529.5,510.365,529.656L510.783,529.741C511.441,529.866,512.432,530.024,513.729,530.212L514.956,530.386L504.98,531.083L504.893,531.091C500.183,531.631,497.277,535.565,498.662,539.497C500.053,543.445,505.002,545.476,511.989,544.679L512.723,544.59C508.289,547.622,509.107,552.386,514.826,554.061L515.032,554.12C520.507,555.635,529.819,554.772,542.141,551.195L542.567,551.071L542.87,551.311C560.64,565.345,570.339,567.102,585.699,558.245L585.874,558.143L592.029,557.118L615.8,553.222L638.025,549.594C639.18,549.405,639.914,548.256,639.598,547.132L630.571,515.01L630.537,514.901C630.215,513.966,629.237,513.411,628.258,513.627L574.718,525.423L548.788,512.228C548.685,512.175,548.578,512.132,548.468,512.099L513.015,501.326C506.745,499.525,502.159,507.259,506.784,511.752L506.953,511.911ZM547.158,515.795L573.563,529.232L573.7,529.295C574.071,529.449,574.482,529.487,574.877,529.4L627.293,517.85L635.226,546.081L586.904,553.996L584.991,554.321L583.196,554.642C582.816,554.72,583.796,554.591,583.849,554.778L583.85,554.786L583.334,555.083C569.496,562.945,561.383,561.156,544.221,547.375C543.716,546.97,543.044,546.839,542.423,547.026L541.524,547.294C529.61,550.799,520.802,551.645,516.105,550.352L515.784,550.259L515.501,550.17C513.369,549.478,513.314,548.851,515.012,547.77L535.029,542.035C537.528,541.319,536.477,537.578,533.969,538.264L533.635,538.353C530.681,539.125,527.507,539.487,520.835,539.968L518.228,540.157C515.281,540.375,513.665,540.524,511.807,540.755C506.29,541.444,503.051,540.147,502.365,538.197L502.331,538.094C501.933,536.745,503.001,535.318,505.172,535.004L505.31,534.986L535.213,532.901C537.546,532.738,537.668,529.406,535.433,529.02L535.03,528.969L531.454,528.54L528.57,528.189C527.614,528.072,526.665,527.955,525.73,527.838L520.901,527.227C515.797,526.569,512.317,526.074,511.229,525.835L510.434,525.656C510.161,525.596,509.878,525.536,509.577,525.473L506.883,524.924C503.252,524.174,501.752,523.566,500.755,522.337C499.65,520.975,500.796,518.92,502.541,519.118L536.493,522.905C538.791,523.161,539.54,519.962,537.449,519.142L537.297,519.088L533.32,517.741L530.663,516.832C528.444,516.069,526.248,515.306,524.14,514.563L520.917,513.418C514.736,511.201,510.232,509.437,509.608,509.019L509.573,508.994L509.587,509.007C507.803,507.366,509.533,504.402,511.9,505.082L547.158,515.795ZM586.548,557.687C586.28,558.012,587.761,557.798,587.28,557.892L585.876,558.141L586.176,557.967C586.32,557.883,586.452,557.781,586.57,557.664L586.548,557.687Z" transform="matrix(1 0 0 1 -0.262504 0)" clip-rule="evenodd" fill="rgb(46,24,106)" fill-rule="evenodd" stroke="none" stroke-width="1"/></g></g><path id="e42OWG1XALd113" d="M665.901,407.424L722.025,386.662L750.676,521.872C752.573,536.04,743.284,549.228,729.352,552.296L584.789,572.666C580.538,572.992,576.744,570.12,575.893,565.941L575.828,521.611C574.847,516.845,578.248,512.21,583.089,511.622L677.676,502.286L665.901,407.424Z" clip-rule="evenodd" fill="rgb(254,118,36)" fill-rule="evenodd" stroke="none" stroke-width="1"/><path id="e42OWG1XALd114" d="M630.983,505.913C629.916,506.1,628.898,505.388,628.711,504.322C628.53,503.295,629.187,502.314,630.192,502.078L630.305,502.055L673.542,494.481C673.611,494.469,673.68,494.461,673.75,494.456L673.891,494.452L674.114,494.452L674.53,494.459C674.685,494.463,674.854,494.468,675.039,494.476C675.788,494.506,676.606,494.564,677.475,494.654C679.901,494.907,682.319,495.371,684.598,496.106C691.028,498.179,695.295,502.033,695.979,508.073C696.1,509.148,695.326,510.118,694.249,510.239C693.172,510.36,692.2,509.587,692.079,508.513C691.599,504.275,688.507,501.483,683.392,499.834C681.398,499.191,679.24,498.777,677.067,498.55C676.414,498.482,675.795,498.435,675.219,498.405L674.878,498.39C674.665,498.381,674.477,498.375,674.316,498.372L674.053,498.368L630.983,505.913Z" clip-rule="evenodd" fill="rgb(46,24,106)" fill-rule="evenodd" stroke="none" stroke-width="1"/><path id="e42OWG1XALd115" d="M663.594,422.525C664.628,422.377,665.59,423.062,665.796,424.072L665.816,424.185L675.715,492.913L675.782,492.876C676.024,492.742,676.272,492.609,676.527,492.479L676.913,492.285C682.172,489.691,687.712,488.952,692.977,491.298C695.676,492.501,698.15,494.484,700.35,497.294C701.017,498.146,700.866,499.377,700.012,500.043C699.158,500.709,697.925,500.558,697.258,499.706C695.442,497.387,693.474,495.809,691.377,494.875C687.358,493.084,682.962,493.67,678.651,495.796C677.764,496.234,676.958,496.703,676.251,497.169L675.974,497.356C675.886,497.416,675.804,497.473,675.727,497.528L675.513,497.684L675.43,497.748C674.274,498.665,672.572,498.025,672.286,496.607L672.266,496.493L661.931,424.742C661.777,423.672,662.521,422.679,663.594,422.525Z" clip-rule="evenodd" fill="rgb(46,24,106)" fill-rule="evenodd" stroke="none" stroke-width="1"/><path id="e42OWG1XALd116" d="M710.84,628.095C709.27,627.899,707.7,627.834,706.065,627.964C692.001,629.009,681.731,642.393,685.198,656.756C686.048,660.282,687.749,663.546,690.104,666.288C694.617,671.446,700.832,674.253,707.438,674.318L707.438,687.441C707.438,698.867,716.727,708.203,728.24,708.203L763.301,708.203C774.748,708.203,784.102,698.932,784.102,687.441L784.102,636.191C784.102,631.751,780.504,628.16,776.056,628.16L710.84,628.16L710.84,628.095ZM699.392,660.804C696.776,658.584,695.206,655.45,694.944,652.055C694.421,645.004,699.785,638.802,706.85,638.28C707.046,638.28,707.242,638.28,707.438,638.28L707.438,663.938C704.495,663.872,701.682,662.763,699.392,660.804Z" clip-rule="evenodd" fill="rgb(46,24,106)" fill-rule="evenodd" stroke="none" stroke-width="1"/><path id="e42OWG1XALd117" d="M747.929,680.194L747.929,683.002C747.929,684.177,746.948,685.156,745.77,685.156L745.77,685.156C744.593,685.156,743.612,684.177,743.612,683.002L743.612,680.064C741.453,679.737,739.425,679.019,737.659,677.975C736.547,677.322,736.089,675.951,736.678,674.775L736.678,674.71C737.332,673.404,738.902,672.947,740.145,673.666C742.172,674.841,744.527,675.559,746.228,675.559C748.06,675.559,749.237,674.906,749.237,673.6C749.237,669.552,737.136,671.968,737.136,663.872C737.136,660.347,739.621,657.931,743.612,657.213L743.612,654.536C743.612,653.361,744.593,652.382,745.77,652.382L745.77,652.382C746.948,652.382,747.929,653.361,747.929,654.536L747.929,657.083C749.695,657.278,751.461,657.735,753.031,658.388C754.339,658.911,754.863,660.477,754.274,661.718L754.208,661.849C753.62,663.089,752.181,663.546,750.938,663.024C749.041,662.24,747.078,661.718,745.77,661.718C744.266,661.718,743.219,662.24,743.219,663.35C743.219,667.333,755.32,665.048,755.32,673.339C755.386,677.387,752.246,679.737,747.929,680.194Z" clip-rule="evenodd" fill="rgb(255,255,255)" fill-rule="evenodd" stroke="none" stroke-width="1"/><circle id="e42OWG1XALd118" r="3.06848" transform="matrix(1 0 0 1 795.730837 428.480808)" fill="rgb(143,109,228)" stroke="none" stroke-width="1"/><circle id="e42OWG1XALd119" r="3.06848" transform="matrix(1 0 0 1 463.25852 376.252151)" opacity="0" fill="rgb(143,109,228)" stroke="none" stroke-width="1"/><circle id="e42OWG1XALd120" r="3.06848" transform="matrix(1 0 0 1 852.267202 321.832109)" opacity="0" fill="rgb(143,109,228)" stroke="none" stroke-width="1"/><circle id="e42OWG1XALd121" r="3.06848" transform="matrix(1 0 0 1 641.365782 149.035167)" opacity="0" fill="rgb(143,109,228)" stroke="none" stroke-width="1"/><circle id="e42OWG1XALd122" r="2.55707" transform="matrix(1 0 0 1 836.092078 64.151926)" opacity="0.43" fill="rgb(143,109,228)" stroke="none" stroke-width="1"/><circle id="e42OWG1XALd123" r="2.55707" transform="matrix(1 0 0 1 835.138 222.191)" opacity="0" fill="rgb(143,109,228)" stroke="none" stroke-width="1"/><circle id="e42OWG1XALd124" r="3.61801" transform="matrix(1 0 0 1 730.69422 284.041443)" fill="rgb(143,109,228)" stroke="none" stroke-width="1"/><circle id="e42OWG1XALd125" r="3.61801" transform="matrix(0.756523 0 0 0.768838 823.662231 146.780964)" fill="rgb(143,109,228)" stroke="none" stroke-width="1"/><circle id="e42OWG1XALd126" r="23.0648" transform="matrix(0.844271 -0.535917 0.535917 0.844271 817.364976 304.331513)" fill="url(#e42OWG1XALd126-fill)" stroke="none" stroke-width="1"/><path id="e42OWG1XALd127" d="" fill="none" stroke="rgb(63,87,135)" stroke-width="1.764"/></svg>