<svg id="e9uT0wCnjbN1" xmlns="http://www.w3.org/2000/svg" xmlns:xlink="http://www.w3.org/1999/xlink" viewBox="0 0 718 412" shape-rendering="geometricPrecision" text-rendering="geometricPrecision" width="718" height="412"><style><![CDATA[#e9uT0wCnjbN21_tr {animation: e9uT0wCnjbN21_tr__tr 3000ms linear infinite alternate forwards}@keyframes e9uT0wCnjbN21_tr__tr { 0% {transform: translate(157.265469px,365.637482px) rotate(0deg);animation-timing-function: cubic-bezier(0.23,1,0.32,1)} 50% {transform: translate(157.265469px,365.637482px) rotate(20.750166deg)} 100% {transform: translate(157.265469px,365.637482px) rotate(-5.762912deg)}} #e9uT0wCnjbN45 {animation: e9uT0wCnjbN45_c_o 3000ms linear infinite alternate forwards}@keyframes e9uT0wCnjbN45_c_o { 0% {opacity: 0} 33.333333% {opacity: 1} 66.666667% {opacity: 0} 100% {opacity: 1}} #e9uT0wCnjbN46 {animation: e9uT0wCnjbN46_c_o 3000ms linear infinite alternate forwards}@keyframes e9uT0wCnjbN46_c_o { 0% {opacity: 1} 36.666667% {opacity: 0} 66.666667% {opacity: 1} 100% {opacity: 0}} #e9uT0wCnjbN58_tr {animation: e9uT0wCnjbN58_tr__tr 3000ms linear infinite alternate forwards}@keyframes e9uT0wCnjbN58_tr__tr { 0% {transform: translate(555.55779px,308.015627px) rotate(0deg)} 30% {transform: translate(555.55779px,308.015627px) rotate(8.772221deg)} 63.333333% {transform: translate(555.55779px,308.015627px) rotate(0.540276deg)} 100% {transform: translate(555.55779px,308.015627px) rotate(6.959575deg)}} #e9uT0wCnjbN65_tr {animation: e9uT0wCnjbN65_tr__tr 3000ms linear infinite alternate forwards}@keyframes e9uT0wCnjbN65_tr__tr { 0% {transform: translate(563.922974px,299.099365px) rotate(0deg)} 30% {transform: translate(563.922974px,299.099365px) rotate(-6.456819deg)} 63.333333% {transform: translate(563.922974px,299.099365px) rotate(7.679932deg)} 100% {transform: translate(563.922974px,299.099365px) rotate(-3.376577deg)}} #e9uT0wCnjbN79_to {animation: e9uT0wCnjbN79_to__to 3000ms linear infinite alternate forwards}@keyframes e9uT0wCnjbN79_to__to { 0% {transform: translate(448.410919px,62.186387px)} 33.333333% {transform: translate(466.785461px,49.023918px)} 66.666667% {transform: translate(491.463559px,62.410705px)} 100% {transform: translate(518.309919px,44.328467px)}} #e9uT0wCnjbN83_tr {animation: e9uT0wCnjbN83_tr__tr 3000ms linear infinite alternate forwards}@keyframes e9uT0wCnjbN83_tr__tr { 0% {transform: translate(448.641986px,62.185146px) rotate(0deg);animation-timing-function: cubic-bezier(0.55,0.085,0.68,0.53)} 10% {transform: translate(448.641986px,62.185146px) rotate(-14.116488deg);animation-timing-function: cubic-bezier(0.55,0.055,0.675,0.19)} 20% {transform: translate(448.641986px,62.185146px) rotate(-3.651256deg);animation-timing-function: cubic-bezier(0.55,0.055,0.675,0.19)} 30% {transform: translate(448.641986px,62.185146px) rotate(-21.429506deg);animation-timing-function: cubic-bezier(0.55,0.055,0.675,0.19)} 40% {transform: translate(448.641986px,62.185146px) rotate(-2.236241deg);animation-timing-function: cubic-bezier(0.55,0.055,0.675,0.19)} 50% {transform: translate(448.641986px,62.185146px) rotate(-18.786606deg);animation-timing-function: cubic-bezier(0.55,0.055,0.675,0.19)} 60% {transform: translate(448.641986px,62.185146px) rotate(-3.017371deg);animation-timing-function: cubic-bezier(0.55,0.055,0.675,0.19)} 70% {transform: translate(448.641986px,62.185146px) rotate(-18.197548deg);animation-timing-function: cubic-bezier(0.55,0.055,0.675,0.19)} 80% {transform: translate(448.641986px,62.185146px) rotate(-7.82936deg);animation-timing-function: cubic-bezier(0.55,0.055,0.675,0.19)} 90% {transform: translate(448.641986px,62.185146px) rotate(-23.850449deg);animation-timing-function: cubic-bezier(0.55,0.055,0.675,0.19)} 100% {transform: translate(448.641986px,62.185146px) rotate(-2.669806deg)}} #e9uT0wCnjbN84_to {animation: e9uT0wCnjbN84_to__to 3000ms linear infinite alternate forwards}@keyframes e9uT0wCnjbN84_to__to { 0% {transform: translate(487.787292px,156.979027px);animation-timing-function: cubic-bezier(0.39,0.575,0.565,1)} 50% {transform: translate(538.099293px,156.979027px);animation-timing-function: cubic-bezier(0.39,0.575,0.565,1)} 100% {transform: translate(457.387793px,156.979027px)}} #e9uT0wCnjbN85_to {animation: e9uT0wCnjbN85_to__to 3000ms linear infinite alternate forwards}@keyframes e9uT0wCnjbN85_to__to { 0% {transform: translate(121.895146px,55.941891px)} 50% {transform: translate(74.188381px,55.941891px)} 100% {transform: translate(164.883839px,55.941891px)}}]]></style><path id="e9uT0wCnjbN2" d="M132.733,142.654C132.707,144.2,132.786,145.8,133.477,147.159C134.035,148.279,135.018,149.158,136.107,149.745C137.222,150.358,138.577,150.704,139.799,150.251C139.879,148.838,139.64,147.426,139.055,146.12C139.693,146.706,140.304,147.292,140.941,147.879C141.685,148.572,142.535,149.318,143.571,149.345C144.607,149.345,145.59,148.119,144.979,147.292C144.687,146.893,144.049,146.653,144.022,146.146C143.969,145.533,144.793,145.24,145.377,145.347C145.962,145.453,146.599,145.773,147.157,145.56C147.98,145.24,148.007,143.96,147.422,143.321C146.838,142.654,145.908,142.441,145.032,142.281C143.252,141.908,141.154,141.801,139.454,141.162C138.497,140.788,137.275,139.562,136.399,139.376C133.955,138.843,132.68,139.642,132.733,142.654Z" transform="matrix(1 0 0 1 280.175062 -36.174501)" fill="rgb(244,78,78)" stroke="none" stroke-width="1"/><path id="e9uT0wCnjbN3" d="M233.487,196.525C233.779,196.578,234.098,196.552,234.337,196.392C234.762,196.125,234.815,195.512,234.629,195.086C234.443,194.632,234.045,194.313,233.673,193.993C234.709,193.913,235.798,193.54,236.303,192.633C236.781,191.727,236.17,190.288,235.134,190.394C235.771,189.994,236.435,189.541,236.701,188.848C236.967,188.155,236.648,187.169,235.904,187.089C235.532,187.036,235.16,187.222,234.842,187.409C233.354,188.235,231.867,189.035,230.353,189.861C229.954,190.074,229.556,190.288,229.29,190.634C227.271,193.246,231.07,196.178,233.487,196.525Z" fill="rgb(253,197,16)" stroke="none" stroke-width="1"/><path id="e9uT0wCnjbN4" d="M178.926,173.628C178.183,174.161,171.409,165.205,169.629,170.669C168.036,175.547,176.615,175.334,178.926,173.628Z" fill="rgb(253,197,16)" stroke="none" stroke-width="1"/><path id="e9uT0wCnjbN5" d="M205.543,158.194C207.907,157.821,210.138,156.808,212.21,155.609C209.66,155.636,207.163,155.022,204.64,154.756C203.152,154.596,197.919,154.089,198.982,156.968C199.619,158.594,204.241,158.381,205.543,158.194Z" fill="rgb(227,229,252)" stroke="none" stroke-width="1"/><path id="e9uT0wCnjbN6" d="M116.609,188.768C120.169,188.901,123.755,187.515,126.305,185.01C125.216,186.076,119.319,185.65,117.805,185.729C115.68,185.836,112.173,185.143,110.58,186.716C111.828,188.182,114.617,188.688,116.609,188.768Z" fill="rgb(227,229,252)" stroke="none" stroke-width="1"/><path id="e9uT0wCnjbN7" d="M121.63,115.812C125.189,115.945,128.775,114.559,131.325,112.053C130.236,113.119,124.339,112.693,122.825,112.773C120.7,112.88,117.194,112.187,115.6,113.759C116.848,115.252,119.638,115.758,121.63,115.812Z" fill="rgb(227,229,252)" stroke="none" stroke-width="1"/><path id="e9uT0wCnjbN8" d="M280.504,200.283C281.832,199.244,283.107,197.458,282.257,195.992C276.307,197.511,266,198.924,261.299,202.922C265.921,207.187,276.307,203.642,280.504,200.283Z" fill="rgb(244,78,78)" stroke="none" stroke-width="1"/><path id="e9uT0wCnjbN9" d="M276.519,221.954C280.052,221.528,283.16,218.702,283.957,215.21C281.805,216.063,279.521,216.597,277.21,216.756C275.324,216.89,269.719,215.93,269.852,219.129C269.985,221.634,274.766,222.168,276.519,221.954Z" fill="rgb(253,197,16)" stroke="none" stroke-width="1"/><path id="e9uT0wCnjbN10" d="M304.729,204.122C304.915,203.962,305.075,203.802,305.128,203.562C305.287,202.816,304.118,202.683,303.401,202.923C301.887,203.429,293.945,205.268,296.096,207.534C298.168,209.693,303.189,205.482,304.729,204.122Z" fill="rgb(253,197,16)" stroke="none" stroke-width="1"/><path id="e9uT0wCnjbN11" d="M451.758,308.715L451.642,308.366L618.563,308.889L618.446,309.237C627.323,310.978,633.647,319.454,632.197,328.8L619.723,409.375L450.539,408.852L438.065,328.278C436.557,318.99,442.881,310.456,451.758,308.715Z" transform="matrix(1 0 0 1 0.000001 2.692379)" clip-rule="evenodd" fill="rgb(254,186,145)" fill-rule="evenodd" stroke="none" stroke-width="1"/><path id="e9uT0wCnjbN12" d="M178.371,279.689C180.982,279.689,183.593,279.863,186.146,280.154C200.013,260.997,215.91,244.743,232.619,234.41C276.134,207.59,335.893,215.253,391.65,235.919C430,250.083,478.562,295.827,509.719,328.22C550.332,331.296,581.546,358.929,579.69,390.566C579.284,397.474,577.311,403.976,574.12,409.955L437.833,410.884C437.601,410.536,437.369,410.13,437.137,409.781L234.998,409.085C234.766,409.375,234.534,409.665,234.302,410.013L122.383,409.839C111.998,396.081,105.79,378.492,105.79,359.277C105.79,315.274,138.28,279.689,178.371,279.689Z" transform="matrix(1 0 0 1 0.000001 2.812038)" clip-rule="evenodd" fill="rgb(93,33,209)" fill-rule="evenodd" stroke="none" stroke-width="1"/><path id="e9uT0wCnjbN13" d="M228.616,237.022C280.079,268.95,326.262,269.647,356.2,264.48C383.933,259.72,403.95,249.038,410.448,244.859C411.55,245.497,412.653,246.136,413.813,246.775C408.475,250.432,387.588,262.506,357.419,267.789C347.555,269.53,337.634,270.401,327.655,270.401C317.501,270.401,307.348,269.53,297.253,267.731C272.827,263.377,248.749,253.799,225.541,239.228C226.585,238.415,227.572,237.719,228.616,237.022Z" clip-rule="evenodd" fill="rgb(255,255,255)" fill-rule="evenodd" stroke="none" stroke-width="1"/><path id="e9uT0wCnjbN14" d="M233.954,291.88C225.773,280.386,215.678,273.942,203.9,272.665C198.446,272.084,193.863,272.839,191.136,273.478C192.238,272.084,193.34,270.691,194.443,269.356C197.112,269.008,200.419,268.834,204.074,269.24C212.951,270.169,225.831,274.465,236.797,289.906C237.377,290.661,237.145,291.764,236.391,292.344C236.1,292.576,235.752,292.693,235.404,292.693C234.824,292.634,234.302,292.402,233.954,291.88Z" transform="matrix(1 0 0 1 -0.328705 -1.115721)" clip-rule="evenodd" fill="rgb(255,255,255)" fill-rule="evenodd" stroke="none" stroke-width="1"/><path id="e9uT0wCnjbN15" d="M233.316,332.69L233.316,332.69C232.329,332.69,231.575,331.935,231.517,331.006C231.401,325.898,229.37,314.288,222.234,303.374C213.995,290.661,201.811,282.882,186.146,280.096C186.9,279.051,187.655,278.006,188.467,276.961C204.132,280.154,216.78,288.571,225.193,301.458C232.213,312.256,234.882,324.098,235.056,330.89C235.056,331.877,234.302,332.69,233.316,332.69Z" clip-rule="evenodd" fill="rgb(255,255,255)" fill-rule="evenodd" stroke="none" stroke-width="1"/><path id="e9uT0wCnjbN16" d="M479.143,315.565C486.511,315.274,493.589,315.971,498.811,317.074C500.552,318.815,502.292,320.557,503.975,322.298C497.535,318.757,460.867,314.345,445.724,331.587C445.376,331.993,444.911,332.167,444.389,332.167C443.983,332.167,443.577,332.051,443.229,331.761C442.533,331.122,442.417,330.019,443.055,329.323C452.86,318.119,469.86,315.913,479.143,315.565Z" transform="matrix(1 0 0 1 -2.810571 0)" clip-rule="evenodd" fill="rgb(255,255,255)" fill-rule="evenodd" stroke="none" stroke-width="1"/><path id="e9uT0wCnjbN17" d="M510.879,328.336C510.879,328.336,510.821,328.336,510.763,328.336C510.821,328.278,510.879,328.336,510.879,328.336C510.937,328.336,510.879,328.336,510.879,328.336Z" clip-rule="evenodd" fill="rgb(255,255,255)" fill-rule="evenodd" stroke="none" stroke-width="1"/><path id="e9uT0wCnjbN18" d="M449.321,340.469C469.802,324.969,495.33,324.04,506.122,324.505C507.34,325.782,508.558,327.001,509.719,328.22C503.511,327.697,473.863,326.304,451.409,343.255C451.119,343.487,450.713,343.603,450.365,343.603C449.843,343.603,449.321,343.371,448.973,342.907C448.392,342.152,448.567,341.049,449.321,340.469Z" transform="matrix(1 0 0 1 -2.810571 0)" clip-rule="evenodd" fill="rgb(255,255,255)" fill-rule="evenodd" stroke="none" stroke-width="1"/><path id="e9uT0wCnjbN19" d="M537.8,409.433C537.8,409.433,518.77,353.123,465.218,363.34C411.666,373.557,338.388,395.501,338.388,395.501L338.388,409.607L537.8,409.433Z" clip-rule="evenodd" fill="rgb(255,255,255)" fill-rule="evenodd" stroke="none" stroke-width="1"/><path id="e9uT0wCnjbN20" d="M502.172,365.658C511.275,369.908,519.077,376.459,525.668,384.677C529.905,389.96,533.39,395.613,536.175,401.267C537.151,403.248,537.971,405.09,538.64,406.746L538.924,407.46C539.012,407.686,539.094,407.9,539.169,408.101L539.394,408.718C539.417,408.782,539.435,408.835,539.449,408.875C539.83,410.003,538.992,411.173,537.801,411.174L338.39,411.348C337.428,411.349,336.648,410.569,336.648,409.607L336.648,395.501C336.648,394.731,337.152,394.053,337.889,393.832L340.205,393.145L343.334,392.227C347.699,390.951,352.634,389.53,358.039,388C373.483,383.627,389.6,379.254,405.586,375.173C413.621,373.121,421.434,371.193,428.967,369.408L431.081,368.909C443.359,366.025,454.691,363.576,464.892,361.63C478.771,358.982,491.189,360.53,502.172,365.658ZM465.544,365.051C454.815,367.098,442.816,369.707,429.769,372.798C422.257,374.577,414.463,376.501,406.447,378.548C391.332,382.407,376.097,386.527,361.427,390.662L358.987,391.351C354.082,392.74,349.565,394.039,345.512,395.22L340.129,396.799L340.129,407.864L535.267,407.694L535.108,407.31C534.53,405.927,533.846,404.416,533.053,402.807C530.373,397.368,527.02,391.928,522.953,386.857C516.676,379.03,509.279,372.82,500.7,368.814C490.38,363.996,478.705,362.54,465.544,365.051Z" transform="matrix(1 0 0 1 0 1.201612)" clip-rule="evenodd" fill="rgb(46,24,106)" fill-rule="evenodd" stroke="none" stroke-width="1"/><g id="e9uT0wCnjbN21_tr" transform="translate(157.265469,365.637482) rotate(0)"><g id="e9uT0wCnjbN21" transform="translate(-157.265468,-365.63748)"><g id="e9uT0wCnjbN22" transform="matrix(1 0 0 1 0.000001 0)"><path id="e9uT0wCnjbN23" d="M114.956,201.437C114.956,201.437,119.25,199.289,119.772,194.354C120.294,189.42,116.987,167.941,111.649,164.923C106.254,161.904,81.7115,148.61,77.186,148.901C72.6605,149.191,70.8039,188.607,114.956,201.437Z" clip-rule="evenodd" fill="rgb(255,255,255)" fill-rule="evenodd" stroke="none" stroke-width="1"/><path id="e9uT0wCnjbN24" d="M112.346,167.303C103.179,135.2,95.6942,128.002,91.3428,131.137C87.3975,133.981,95.4041,154.415,97.7248,165.039" clip-rule="evenodd" fill="rgb(255,255,255)" fill-rule="evenodd" stroke="none" stroke-width="1"/><path id="e9uT0wCnjbN25" d="M117.567,198.128C121.745,195.283,121.223,178.913,125.922,171.773C131.724,162.891,137.41,153.661,126.676,155.054C117.451,156.215,114.55,164.342,112.404,167.245" clip-rule="evenodd" fill="rgb(255,255,255)" fill-rule="evenodd" stroke="none" stroke-width="1"/><path id="e9uT0wCnjbN26" d="M77.2441,173.921C77.2441,173.921,69.0634,154.067,66.3365,144.837C63.3195,134.794,73.879,133.343,78.9846,147.798" clip-rule="evenodd" fill="rgb(255,255,255)" fill-rule="evenodd" stroke="none" stroke-width="1"/><path id="e9uT0wCnjbN27" d="M86.8752,168.696C86.8752,168.696,70.8039,132.298,77.9983,129.047C84.5544,126.086,89.5441,139.38,97.7828,165.039" clip-rule="evenodd" fill="rgb(255,255,255)" fill-rule="evenodd" stroke="none" stroke-width="1"/></g><path id="e9uT0wCnjbN28" d="M101.493,135.049L101.211,134.628C97.5014,129.175,93.6483,127.33,90.3251,129.724C88.3659,131.137,88.1546,134.056,88.9382,138.696L89.0532,139.351C89.5772,142.222,90.4396,145.574,91.8491,150.448L94.1527,158.314C95.2308,162.03,95.5903,163.424,96.0244,165.41C96.2296,166.35,97.1573,166.945,98.0965,166.74C99.0356,166.535,99.6305,165.606,99.4252,164.667L99.2607,163.926C98.8867,162.276,98.5039,160.829,97.6256,157.791L95.3047,149.866C93.754,144.523,92.8641,141.039,92.3707,138.116L92.2991,137.675C91.8281,134.645,91.9762,132.827,92.3597,132.55C93.6946,131.589,95.728,132.615,98.5838,136.963L98.842,137.362C102.508,143.123,106.513,153.218,110.672,167.781C110.936,168.706,111.9,169.241,112.824,168.977C113.748,168.713,114.283,167.749,114.019,166.824L113.72,165.782C109.481,151.127,105.371,140.952,101.493,135.049Z" clip-rule="evenodd" fill="rgb(46,24,106)" fill-rule="evenodd" stroke="none" stroke-width="1"/><path id="e9uT0wCnjbN29" d="M71.9063,160.336C67.3228,152.848,59.7223,153.254,63.6676,165.967C67.5548,178.39,70.3978,194.528,77.6502,201.843C84.9025,209.157,87.5134,212.408,87.5134,212.408C87.5134,212.408,102.018,266.57,110.257,311.617C122.151,376.75,144.662,389.289,165.665,381.801C186.668,374.37,190.555,344.88,161.894,287.7C133.232,230.462,118.089,197.141,118.089,197.141" transform="matrix(1 0 0 1 0.85037 0)" clip-rule="evenodd" fill="rgb(255,255,255)" fill-rule="evenodd" stroke="none" stroke-width="1"/><path id="e9uT0wCnjbN30" d="M73.3906,159.427C70.7887,155.176,67.0049,152.792,63.9689,153.949C60.6264,155.223,59.975,159.766,61.927,166.228L62.3484,167.598C62.8508,169.253,63.368,171.068,64.0517,173.546L65.3124,178.128C69.0007,191.439,71.7309,198.258,76.2659,202.918L77.4062,204.074C79.7768,206.484,81.7542,208.565,83.3692,210.331L84.0098,211.036C84.6815,211.78,85.232,212.406,85.6692,212.918L85.93,213.224L86.8468,216.705L87.6695,219.866C88.4678,222.948,89.3314,226.323,90.2466,229.95C93.5589,243.078,96.8713,256.813,99.9624,270.481L100.63,273.449C102.065,279.855,103.414,286.094,104.665,292.127L105.167,294.565C106.243,299.817,107.234,304.873,108.135,309.712L108.545,311.93C114.219,343.003,122.576,363.775,133.278,375.136C142.852,385.3,154.153,387.754,166.245,383.443C177.866,379.331,184.13,369.068,184.144,353.408C184.16,337.107,177.478,315.081,163.865,287.75L161.189,282.399C150.349,260.69,140.777,241.076,132.508,223.758L129.291,216.999C127.305,212.81,125.502,208.981,123.886,205.521L121.344,200.052L119.674,196.42C119.276,195.544,118.244,195.157,117.369,195.556C116.525,195.939,116.135,196.913,116.465,197.767L116.684,198.253L118.492,202.181L120.976,207.518C122.86,211.546,124.989,216.063,127.361,221.051L129.796,226.158C138.549,244.474,148.743,265.326,160.338,288.481C186.665,341.003,186.635,372.535,165.081,380.16C154.258,384.019,144.416,381.882,135.812,372.748C125.759,362.075,117.696,342.179,112.137,312.215L111.969,311.304C110.823,305.035,109.519,298.391,108.073,291.42C106.625,284.437,105.047,277.181,103.358,269.712C100.432,256.775,97.3089,243.78,94.175,231.295L92.8994,226.244C92.3071,223.913,91.7393,221.698,91.2001,219.613L90.1185,215.457L89.1946,211.958C89.1321,211.724,89.0216,211.506,88.8702,211.317L88.6312,211.028L88.3151,210.654C87.857,210.118,87.2856,209.468,86.593,208.701L85.714,207.736C83.8841,205.743,81.6214,203.376,78.8858,200.616L78.6214,200.344C74.9046,196.437,72.3829,190.34,69.1311,178.855L67.0452,171.313C66.4671,169.24,66.0038,167.639,65.5393,166.127L65.3298,165.451C63.7622,160.4,64.1363,157.612,65.2082,157.204C66.2792,156.796,68.5886,158.251,70.4219,161.246C70.9239,162.066,71.9955,162.324,72.8152,161.822C73.635,161.32,73.8926,160.247,73.3906,159.427Z" clip-rule="evenodd" fill="rgb(46,24,106)" fill-rule="evenodd" stroke="none" stroke-width="1"/><path id="e9uT0wCnjbN31" d="M134.189,159.98C135.396,155.119,132.563,152.534,126.459,153.326C121.335,153.971,117.625,156.507,114.62,160.556L114.48,160.748C113.383,162.285,111.295,165.786,111.02,166.187L111.004,166.209C110.433,166.982,110.595,168.073,111.368,168.645C112.141,169.217,113.231,169.054,113.803,168.281L113.862,168.196C114.357,167.463,116.528,163.828,117.415,162.632C119.896,159.289,122.813,157.296,126.9,156.781C129.034,156.504,130.274,156.701,130.73,157.117C130.999,157.362,131.09,157.933,130.846,158.993L130.811,159.141C130.207,161.573,128.463,164.685,124.663,170.516L124.468,170.815C122.691,173.515,121.597,177.088,120.481,182.801L120.255,183.98L119.574,187.665C118.513,193.285,117.685,195.874,116.641,196.65L116.588,196.688C115.793,197.229,115.587,198.313,116.128,199.108C116.669,199.903,117.752,200.109,118.547,199.568C120.724,198.085,121.66,195.345,122.931,188.654L123.715,184.42L123.828,183.828C124.863,178.454,125.85,175.127,127.285,172.871L128.363,171.21C131.868,165.771,133.502,162.748,134.189,159.98Z" clip-rule="evenodd" fill="rgb(46,24,106)" fill-rule="evenodd" stroke="none" stroke-width="1"/><path id="e9uT0wCnjbN32" d="M69.7274,135.393C65.2011,135.098,62.9971,139.508,64.6113,145.14L64.6672,145.331C65.5008,148.152,66.8677,152.072,68.6508,156.835L68.9697,157.685C69.2163,158.339,69.4692,159.006,69.728,159.683C70.8588,162.644,72.0597,165.708,73.2694,168.737L74.2606,171.206L75.288,173.738L75.6348,174.584C76.0012,175.473,77.0187,175.897,77.9074,175.531C78.7644,175.177,79.1888,174.218,78.8894,173.352L77.4886,169.902C77.336,169.524,77.1792,169.134,77.0185,168.734C75.8135,165.733,74.6087,162.678,73.4657,159.707L72.7249,157.771L72.2272,156.456C70.3685,151.523,68.9397,147.461,68.0759,144.58L68.0033,144.336C66.892,140.636,67.8085,138.758,69.5016,138.869C72.0083,139.032,75.2367,142.413,77.3435,148.378C77.6638,149.285,78.6582,149.76,79.5646,149.44C80.4709,149.119,80.946,148.124,80.6257,147.217C78.1042,140.079,73.8893,135.664,69.7274,135.393Z" clip-rule="evenodd" fill="rgb(46,24,106)" fill-rule="evenodd" stroke="none" stroke-width="1"/><path id="e9uT0wCnjbN33" d="M88.5683,135.045C85.0772,128.292,81.5311,125.541,77.2819,127.46C72.912,129.435,73.741,136.973,77.649,149.283C78.3128,151.374,79.0592,153.556,79.8736,155.805C80.925,158.709,82.0424,161.596,83.1671,164.363L83.5891,165.395C83.9832,166.353,84.3524,167.234,84.6894,168.024L85.2831,169.4C85.6716,170.279,86.6993,170.678,87.5786,170.289C88.4579,169.9,88.8558,168.872,88.4674,167.992L88.0141,166.945L87.637,166.058C87.3767,165.442,87.0994,164.777,86.8082,164.069C85.5596,161.035,84.311,157.835,83.1466,154.619C82.3473,152.412,81.6157,150.272,80.9669,148.229L80.6826,147.321C77.7538,137.831,77.0948,131.366,78.7143,130.635C80.7288,129.725,82.8754,131.465,85.7046,137.093L86.0293,137.75C88.6336,143.104,91.4211,150.919,96.1257,165.571C96.4198,166.487,97.4,166.991,98.3153,166.697C99.2305,166.403,99.7341,165.422,99.44,164.506L98.4288,161.371C94.1279,148.105,91.4866,140.886,88.899,135.697L88.5683,135.045Z" clip-rule="evenodd" fill="rgb(46,24,106)" fill-rule="evenodd" stroke="none" stroke-width="1"/></g></g><path id="e9uT0wCnjbN34" d="M349.528,195.167L347.265,236.209C347.265,236.209,351.094,258.384,320.344,254.263C289.71,250.199,293.481,232.029,293.481,232.029L302.938,181.061L349.528,195.167Z" clip-rule="evenodd" fill="rgb(255,255,255)" fill-rule="evenodd" stroke="none" stroke-width="1"/><path id="e9uT0wCnjbN35" d="M303.443,179.394L350.032,193.5C350.8,193.733,351.31,194.461,351.266,195.263L349.013,236.124L349.037,236.31C349.049,236.412,349.061,236.527,349.074,236.654C349.359,239.603,349.028,242.965,347.581,246.202C344.047,254.108,335.243,258.017,320.113,255.989C307.764,254.351,299.732,250.345,295.326,244.607C292.125,240.436,291.255,236.052,291.678,232.333L291.708,232.097C291.727,231.952,291.747,231.833,291.764,231.74L301.227,180.743C301.416,179.722,302.45,179.093,303.443,179.394ZM347.715,196.437L304.295,183.29L295.176,232.437C295.165,232.507,295.151,232.601,295.137,232.727C294.808,235.62,295.502,239.117,298.087,242.485C301.878,247.423,309.073,251.011,320.573,252.536C334.285,254.374,341.558,251.145,344.403,244.78C345.566,242.177,345.841,239.39,345.609,236.99L345.583,236.745C345.569,236.629,345.557,236.548,345.55,236.505L345.533,236.375C345.524,236.288,345.522,236.2,345.527,236.113L347.715,196.437Z" clip-rule="evenodd" fill="rgb(46,24,106)" fill-rule="evenodd" stroke="none" stroke-width="1"/><path id="e9uT0wCnjbN36" d="M291.161,129.279C291.161,129.279,267.373,120.339,266.444,145.127C265.516,169.915,291.161,163.471,291.161,163.471" clip-rule="evenodd" fill="rgb(255,255,255)" fill-rule="evenodd" stroke="none" stroke-width="1"/><path id="e9uT0wCnjbN37" d="M288.857,126.799C285.42,125.987,281.875,125.695,278.509,126.244C270.31,127.581,265.135,133.583,264.705,145.062C264.261,156.931,269.542,163.429,278.418,165.372C282.031,166.163,285.836,166.117,289.433,165.57L289.995,165.48C290.703,165.36,291.244,165.246,291.585,165.16C292.517,164.926,293.083,163.98,292.849,163.047C292.623,162.147,291.736,161.589,290.837,161.76L290.459,161.845L290.279,161.883C289.88,161.966,289.421,162.049,288.91,162.126C285.699,162.615,282.298,162.656,279.162,161.97C271.899,160.379,267.804,155.341,268.184,145.192L268.21,144.602C268.714,135.169,272.654,130.728,279.068,129.682C281.918,129.217,285.028,129.473,288.056,130.189C288.642,130.328,289.183,130.474,289.671,130.622L289.91,130.695C290.087,130.751,290.233,130.799,290.346,130.838L290.549,130.909C291.448,131.248,292.452,130.792,292.79,129.891C293.128,128.991,292.672,127.987,291.773,127.649L291.548,127.567C290.944,127.354,290.023,127.075,288.857,126.799Z" clip-rule="evenodd" fill="rgb(46,24,106)" fill-rule="evenodd" stroke="none" stroke-width="1"/><path id="e9uT0wCnjbN38" d="M335.777,207.648L335.777,207.648C361.538,207.648,382.425,186.75,382.425,160.975L382.425,120.223C382.425,103.737,369.022,90.3271,352.545,90.3271L311.699,90.3271C299.225,90.3271,289.072,100.486,289.072,112.967L289.072,160.917C289.072,186.692,309.959,207.648,335.777,207.648Z" clip-rule="evenodd" fill="rgb(255,255,255)" fill-rule="evenodd" stroke="none" stroke-width="1"/><path id="e9uT0wCnjbN39" d="M311.699,88.5854L352.545,88.5854C369.984,88.5854,384.165,102.775,384.165,120.223L384.165,160.975C384.165,187.711,362.499,209.389,335.777,209.389L334.99,209.383C308.554,208.954,287.331,187.374,287.331,160.917L287.331,112.967C287.331,99.5241,298.264,88.5854,311.699,88.5854ZM352.545,92.0685L311.699,92.0685C300.187,92.0685,290.813,101.448,290.813,112.967L290.813,160.917C290.813,185.472,310.511,205.502,335.033,205.9L335.791,205.906C360.577,205.906,380.684,185.788,380.684,160.975L380.684,120.223C380.684,104.699,368.061,92.0685,352.545,92.0685Z" clip-rule="evenodd" fill="rgb(46,24,106)" fill-rule="evenodd" stroke="none" stroke-width="1"/><path id="e9uT0wCnjbN40" d="M278.222,183.034C278.28,167.186,280.485,155.634,281.065,152.732C281.065,152.557,281.007,152.325,281.007,152.151C281.007,148.494,283.966,145.533,287.621,145.533L287.621,152.151L287.447,158.769C286.055,158.711,284.778,158.246,283.734,157.492C281.587,170.843,277.352,210.666,295.222,244.51C298.471,250.721,301.546,256.468,304.563,261.983C321.389,293.389,332.528,314.171,332.238,332.689C332.238,333.618,331.426,334.431,330.498,334.431L330.498,334.431C329.511,334.431,328.757,333.618,328.757,332.689C328.989,315.042,318.023,294.608,301.488,263.667C298.529,258.094,295.454,252.405,292.147,246.135C280.485,224.018,278.106,199.637,278.222,183.034Z" clip-rule="evenodd" fill="rgb(254,118,36)" fill-rule="evenodd" stroke="none" stroke-width="1"/><path id="e9uT0wCnjbN41" d="M386.95,159.524C386.138,159.988,385.268,160.278,384.281,160.336L384.281,147.159C387.356,147.449,389.793,149.771,390.199,152.79C390.373,153.08,390.489,153.428,390.489,153.776C390.489,156.447,390.489,218.968,371.923,247.18C352.951,276.09,347.091,292.576,345.757,320.557C345.698,321.485,344.944,322.24,344.016,322.24L343.958,322.24C342.972,322.182,342.275,321.369,342.275,320.44C343.61,291.647,349.586,274.812,369.022,245.265C383.875,222.741,386.486,175.836,386.95,159.524Z" clip-rule="evenodd" fill="rgb(254,118,36)" fill-rule="evenodd" stroke="none" stroke-width="1"/><path id="e9uT0wCnjbN42" d="M350.079,131.195C349.153,131.179,348.383,131.891,348.314,132.805L348.31,132.907L347.685,169.76L347.657,169.77C347.531,169.811,347.391,169.802,347.2,169.731L347.114,169.697C346.219,169.314,345.04,168.019,343.687,165.539C343.226,164.695,342.169,164.384,341.325,164.845C340.481,165.306,340.171,166.364,340.632,167.208C343.812,173.035,347.234,174.499,349.967,172.433C350.373,172.126,350.658,171.81,350.841,171.548C351.013,171.3,351.118,171.011,351.145,170.712L351.152,170.583L351.79,132.966C351.807,132.004,351.041,131.211,350.079,131.195Z" clip-rule="evenodd" fill="rgb(46,24,106)" fill-rule="evenodd" stroke="none" stroke-width="1"/><path id="e9uT0wCnjbN43" d="M331.741,175.25C330.77,174.614,329.461,175.089,329.123,176.199L329.082,176.343C329.039,176.504,328.992,176.716,328.947,176.972C328.589,179.014,328.783,181.271,329.95,183.433C331.893,187.035,336.094,189.383,342.859,190.05C343.816,190.144,344.668,189.445,344.762,188.488C344.856,187.531,344.157,186.678,343.2,186.584C337.503,186.022,334.352,184.261,333.013,181.778C332.683,181.167,332.474,180.532,332.364,179.898L332.327,179.652L332.38,179.681C339.946,183.758,347.504,184.03,351.249,179.838L351.374,179.695C351.998,178.963,351.911,177.864,351.179,177.239C350.448,176.615,349.349,176.703,348.726,177.434C346.033,180.593,338.905,179.941,331.741,175.25Z" transform="matrix(0.996628 0.082054 -0.082054 0.996628 16.123245 -27.306453)" clip-rule="evenodd" fill="rgb(46,24,106)" fill-rule="evenodd" stroke="none" stroke-width="1"/><path id="e9uT0wCnjbN44" d="M334.23,117.608C330.432,114.718,325.922,114.409,321.059,118.28C320.307,118.878,320.182,119.974,320.781,120.727C321.379,121.479,322.474,121.604,323.226,121.006C326.745,118.205,329.512,118.394,332.122,120.38C332.475,120.649,332.79,120.924,333.13,121.25L333.769,121.882C333.859,121.969,333.935,122.038,334.017,122.104C334.241,122.286,334.437,122.409,334.775,122.493C335.708,122.726,336.653,122.159,336.886,121.226C337.061,120.526,336.785,119.819,336.243,119.411L336.168,119.357L335.787,118.978C335.265,118.462,334.792,118.036,334.23,117.608Z" clip-rule="evenodd" fill="rgb(46,24,106)" fill-rule="evenodd" stroke="none" stroke-width="1"/><path id="e9uT0wCnjbN45" d="M322.143,148.494C320.541,148.494,319.242,146.493,319.242,144.024C319.242,141.555,320.541,139.554,322.143,139.554C323.745,139.554,325.044,141.555,325.044,144.024C325.044,146.493,323.745,148.494,322.143,148.494Z" opacity="0" clip-rule="evenodd" fill="rgb(46,24,106)" fill-rule="evenodd" stroke="none" stroke-width="1"/><path id="e9uT0wCnjbN46" d="M364.323,149.597C362.721,149.597,361.422,147.596,361.422,145.127C361.422,142.658,362.721,140.657,364.323,140.657C365.925,140.657,367.224,142.658,367.224,145.127C367.224,147.596,365.925,149.597,364.323,149.597Z" clip-rule="evenodd" fill="rgb(46,24,106)" fill-rule="evenodd" stroke="none" stroke-width="1"/><path id="e9uT0wCnjbN47" d="M372.414,117.059C368.069,113.591,363.304,113.428,359.12,118.805C358.529,119.564,358.666,120.658,359.424,121.249C360.183,121.84,361.276,121.704,361.867,120.945C364.691,117.315,367.263,117.403,370.243,119.782C370.646,120.103,371.01,120.432,371.413,120.826L372.097,121.509C372.189,121.599,372.266,121.67,372.345,121.737C372.583,121.935,372.769,122.056,373.126,122.145C374.058,122.379,375.003,121.811,375.236,120.878C375.411,120.178,375.136,119.471,374.594,119.063L374.527,119.015L374.079,118.566C373.508,117.995,373.002,117.529,372.414,117.059Z" clip-rule="evenodd" fill="rgb(46,24,106)" fill-rule="evenodd" stroke="none" stroke-width="1"/><path id="e9uT0wCnjbN48" d="M324.116,80.1683C335.429,80.3425,344.016,80.8649,349.122,81.8518L349.122,81.8518C390.663,91.3141,383.933,122.081,383.933,122.081C383.933,122.081,363.627,125.97,347.091,101.473C347.091,101.473,324.406,119.991,290.813,127.48C290.29,127.364,289.652,127.19,289.072,127.015L289.072,128.699C287.099,128.176,283.908,127.596,280.601,127.828C280.949,115.695,283.154,100.37,293.133,90.5014C300.212,83.4772,310.655,79.9942,324.116,80.1683Z" clip-rule="evenodd" fill="rgb(46,24,106)" fill-rule="evenodd" stroke="none" stroke-width="1"/><path id="e9uT0wCnjbN49" d="M348.201,78.0949C341.582,77.1751,331.161,76.5707,322.182,76.6272C304.25,76.8172,292.266,83.4282,285.163,95.0879C282.367,99.6782,280.417,104.903,279.104,110.764C278.134,115.09,277.614,119.055,277.127,124.658C277.043,125.616,277.752,126.461,278.71,126.544C279.667,126.628,280.511,125.919,280.595,124.96L280.688,123.919C281.77,112.223,283.626,104.304,288.136,96.9007C294.604,86.2822,305.471,80.2875,322.212,80.1101L323.235,80.1066C331.807,80.1009,341.527,80.6839,347.722,81.5449C348.674,81.6772,349.553,81.0121,349.685,80.0595C349.818,79.1068,349.153,78.2272,348.201,78.0949Z" clip-rule="evenodd" fill="rgb(255,255,255)" fill-rule="evenodd" stroke="none" stroke-width="1"/><path id="e9uT0wCnjbN50" d="M215.098,54.9161C229.428,13.9322,270.042,-9.11399,305.839,3.42499C335.255,13.7,352.255,44.8733,349.47,78.3686C344.074,77.4398,335.603,76.8593,324.115,76.6852C309.669,76.511,298.413,80.2843,290.638,88.0051C279.615,98.9186,277.352,115.463,277.062,128.35C271.724,129.802,266.793,134.155,266.386,145.127C266.328,146.23,267.315,154.764,267.083,154.705C267.083,157.434,266.502,160.859,264.472,164.226C260.469,170.669,252.346,174.675,240.278,176.068C240.22,176.068,240.162,176.068,240.046,176.068C239.175,176.068,238.421,175.43,238.305,174.559C238.189,173.63,238.885,172.759,239.814,172.643C250.721,171.366,258.032,167.941,261.455,162.426C262.847,160.22,263.369,157.956,263.544,155.983C260.585,159.466,255.421,163.239,247.24,163.239C245.267,163.239,243.121,163.007,240.8,162.542C239.872,162.368,239.233,161.439,239.466,160.511C239.64,159.582,240.568,158.943,241.496,159.175C252.056,161.381,257.916,157.376,260.991,153.777C258.612,153.254,256.291,152.616,253.97,151.803C218.231,139.206,200.825,95.8419,215.098,54.9161Z" clip-rule="evenodd" fill="rgb(46,24,106)" fill-rule="evenodd" stroke="none" stroke-width="1"/><path id="e9uT0wCnjbN51" d="M319.648,122.139C332.337,122.139,342.624,132.431,342.624,145.127C342.624,157.823,332.337,168.115,319.648,168.115C306.959,168.115,296.672,157.823,296.672,145.127C296.672,132.431,306.959,122.139,319.648,122.139ZM319.648,125.622C308.881,125.622,300.153,134.355,300.153,145.127C300.153,155.9,308.881,164.632,319.648,164.632C330.414,164.632,339.142,155.9,339.142,145.127C339.142,134.355,330.414,125.622,319.648,125.622Z" clip-rule="evenodd" fill="rgb(46,24,106)" fill-rule="evenodd" stroke="none" stroke-width="1"/><path id="e9uT0wCnjbN52" d="M341.347,142.863C340.386,142.863,339.607,143.643,339.607,144.605C339.607,145.532,340.331,146.29,341.245,146.343L341.347,146.346L355.156,146.346C356.117,146.346,356.896,145.567,356.896,144.605C356.896,143.677,356.172,142.919,355.258,142.866L355.156,142.863L341.347,142.863Z" clip-rule="evenodd" fill="rgb(46,24,106)" fill-rule="evenodd" stroke="none" stroke-width="1"/><path id="e9uT0wCnjbN53" d="M289.928,126.544C289.092,126.071,288.03,126.366,287.557,127.203C287.101,128.01,287.358,129.025,288.125,129.521L288.215,129.576L300.225,136.368C301.062,136.842,302.124,136.546,302.597,135.709C303.053,134.903,302.796,133.888,302.029,133.391L301.938,133.336L289.928,126.544Z" clip-rule="evenodd" fill="rgb(46,24,106)" fill-rule="evenodd" stroke="none" stroke-width="1"/><path id="e9uT0wCnjbN54" d="M377.087,122.139C389.776,122.139,400.062,132.431,400.062,145.127C400.062,157.823,389.776,168.115,377.087,168.115C364.398,168.115,354.111,157.823,354.111,145.127C354.111,132.431,364.398,122.139,377.087,122.139ZM377.087,125.622C366.32,125.622,357.592,134.355,357.592,145.127C357.592,155.9,366.32,164.632,377.087,164.632C387.853,164.632,396.581,155.9,396.581,145.127C396.581,134.355,387.853,125.622,377.087,125.622Z" clip-rule="evenodd" fill="rgb(46,24,106)" fill-rule="evenodd" stroke="none" stroke-width="1"/><path id="e9uT0wCnjbN55" d="M231.053,387.664L243.121,387.664L249.039,299.833C249.445,293.679,254.783,288.687,260.933,288.687L429.13,288.687C435.28,288.687,439.98,293.679,439.515,299.833L432.959,397.068C432.553,403.221,427.215,408.214,421.065,408.214L231.111,407.982C227.63,407.982,224.845,405.137,224.845,401.712L224.845,393.991C224.787,390.508,227.572,387.664,231.053,387.664Z" transform="matrix(1 0 0 1 -7.151282 4.006)" clip-rule="evenodd" fill="rgb(254,118,36)" fill-rule="evenodd" stroke="none" stroke-width="1"/><path id="e9uT0wCnjbN56" d="M333.166,346.796C335.545,344.242,338.736,342.616,342.101,341.978C341.579,341.223,341.231,340.294,341.115,339.307C340.825,336.172,343.088,333.27,346.105,332.806C346.163,332.806,346.221,332.806,346.279,332.806C346.917,330.425,348.135,326.478,349.528,324.794C350.05,324.156,351.036,323.924,351.733,324.33C352.371,324.736,352.487,325.549,351.965,326.188C351.036,327.291,349.934,330.716,349.238,333.328C350.804,334.141,351.907,335.708,352.081,337.682C352.255,339.481,351.558,341.165,350.456,342.384C351.5,342.732,352.487,343.139,353.415,343.719C359.449,347.492,360.203,354.923,355.098,360.438C349.992,365.895,340.883,367.288,334.849,363.514C328.757,359.741,328.003,352.253,333.166,346.796Z" clip-rule="evenodd" fill="rgb(255,255,255)" fill-rule="evenodd" stroke="none" stroke-width="1"/><path id="e9uT0wCnjbN57" d="M335.719,324.504C335.719,324.504,344.422,322.763,345.583,330.019C345.525,330.019,338.678,332.457,335.719,324.504Z" clip-rule="evenodd" fill="rgb(255,255,255)" fill-rule="evenodd" stroke="none" stroke-width="1"/><g id="e9uT0wCnjbN58_tr" transform="translate(555.55779,308.015627) rotate(0)"><g id="e9uT0wCnjbN58" transform="translate(-555.104987,-307.674976)"><path id="e9uT0wCnjbN59" d="M513.348,294.76C514.674,291.716,517.696,289.321,520.093,286.698C522.49,284.075,524.337,280.664,522.859,277.778C520.423,272.997,510.73,272.793,508.425,267.977C505.791,262.457,514.957,257.227,515.834,251.247C516.328,247.832,513.946,244.621,510.828,242.344C507.717,240.093,503.884,238.516,500.435,236.582C496.233,234.256,492.46,231.22,490.878,227.314C489.303,223.434,490.425,218.577,494.544,215.86C496.868,214.332,499.834,213.622,502.496,212.512C505.158,211.403,507.753,209.519,507.923,207.209C508.008,206.055,507.486,204.949,507.084,203.868C503.764,194.74,509.934,183.691,520.92,179.049C520.824,181.424,525.076,182.463,527.736,181.241C530.395,180.019,531.679,177.553,532.761,175.282C533.817,173.018,535.022,170.572,537.62,169.225C539.701,168.158,542.255,168.012,544.683,167.927C546.558,167.877,548.779,167.961,549.732,169.206C550.125,169.723,550.209,170.352,550.259,170.961C550.78,176.481,549.613,182.114,549.804,187.666C549.995,193.219,551.731,199.064,556.894,202.662C560.01,204.826,564.173,206.06,566.605,208.719C570.412,212.935,568.419,218.959,566.085,224.027C563.752,229.096,561.213,234.87,564.281,239.482C567.355,244.12,592.05,234.163,594.258,267.22C594.797,275.226,581.819,270.016,585.094,277.402C586.464,280.516,578.324,279.584,578.456,282.916C578.488,283.983,584.675,287.617,584.536,288.673C584.06,292.367,579.894,293.54,583.876,295.359C585.933,296.308,588.546,296.909,589.639,298.569C591.609,301.607,587.119,305.046,582.948,306.305C579.453,307.355,576,297.413,573.527,299.859C570.606,302.735,569.044,311.418,551.61,313.769C544.402,314.738,536.922,297.866,532.489,302.252C522.366,312.323,506.482,310.466,513.348,294.76Z" transform="matrix(0.888256 0 0 0.888256 60.591498 26.914986)" fill="rgb(227,229,252)" stroke="none" stroke-width="1"/><g id="e9uT0wCnjbN60"><rect id="e9uT0wCnjbN61" width="105.406" height="1.00715" rx="0" ry="0" transform="matrix(-0.225356 -0.974277 0.974343 -0.22507 553.801 316.585)" fill="rgb(255,255,255)" stroke="none" stroke-width="1"/><path id="e9uT0wCnjbN62" d="M540.829,265.123L540.058,264.453C541.3,262.988,552.257,250.034,554.791,249.185L555.105,250.148C553.379,250.752,545.615,259.426,540.829,265.123Z" fill="rgb(255,255,255)" stroke="none" stroke-width="1"/><path id="e9uT0wCnjbN63" d="M535.809,246.177C526.856,238.954,511.867,226.557,512.112,224.736C512.134,224.504,512.283,224.323,512.506,224.207L512.925,225.141C513.102,225.065,513.158,224.852,513.137,224.773C513.542,226.391,527.656,238.259,536.468,245.378L535.809,246.177Z" fill="rgb(255,255,255)" stroke="none" stroke-width="1"/><path id="e9uT0wCnjbN64" d="M533.481,227.5L532.626,226.937C533.005,226.354,541.842,212.638,542.837,211.409L543.627,212.046C542.685,213.261,533.558,227.366,533.481,227.5Z" fill="rgb(255,255,255)" stroke="none" stroke-width="1"/></g></g></g><g id="e9uT0wCnjbN65_tr" transform="translate(563.922974,299.099365) rotate(0)"><g id="e9uT0wCnjbN65" transform="translate(-563.922962,-299.099362)"><path id="e9uT0wCnjbN66" d="M556.235,250.892C556.422,249.172,556.693,247.345,558.222,246.002C560.193,244.313,563.547,243.895,566.407,244.261C569.247,244.66,571.868,245.712,574.713,246.337C575.462,246.504,576.343,246.636,577.043,246.307C577.744,245.977,578.062,245.27,578.262,244.65C580.443,237.33,577.129,230.011,576.69,222.799C576.53,220.833,576.649,218.65,577.899,216.9C581.142,212.069,582.684,214.458,585.608,209.174C587.636,205.49,587.675,198.8,591.44,196.235C599.198,190.901,600.177,208.751,601.035,212.795C602.645,220.485,613.337,219.375,611.949,228.916C611.336,233.042,608.869,236.562,607.344,240.338C605.853,244.133,605.589,248.93,609.301,251.53C611.722,253.202,615.824,253.999,616.307,256.642C616.586,258.209,615.282,259.549,614.034,260.676C610.868,263.477,607.54,266.095,604.03,268.564C603.157,269.194,602.204,269.846,601.943,270.765C601.569,271.997,602.582,273.254,603.356,274.461C606.157,278.918,605.449,284.06,602.429,288.039C599.436,292.011,594.43,294.993,589.232,297.575C582.522,300.929,575.407,303.826,567.901,306.206C545.81,312.21,552.415,294.479,552.957,288.193C553.842,275.617,554.935,263.183,556.235,250.892Z" transform="matrix(1 0 0 1 0.784973 -0.158905)" fill="rgb(254,118,36)" stroke="none" stroke-width="1"/><g id="e9uT0wCnjbN67" transform="matrix(1 0 0 1 0.000001 0.000001)"><path id="e9uT0wCnjbN68" d="M573.245,299.227C573.166,299.248,573.054,299.25,572.961,299.218C572.682,299.123,572.551,298.847,572.619,298.574L593.906,229.308C594,229.028,594.275,228.898,594.547,228.966C594.826,229.061,594.956,229.338,594.888,229.611L573.602,298.877C573.539,299.063,573.403,299.185,573.245,299.227Z" fill="rgb(255,255,255)" stroke="none" stroke-width="1"/><path id="e9uT0wCnjbN69" d="M585.342,259.818C585.132,259.874,584.912,259.791,584.777,259.601L579.683,251.74C579.533,251.497,579.594,251.198,579.829,251.022C580.07,250.872,580.369,250.934,580.545,251.17L585.638,259.031C585.788,259.274,585.727,259.573,585.493,259.749C585.447,259.789,585.394,259.804,585.342,259.818Z" fill="rgb(255,255,255)" stroke="none" stroke-width="1"/><path id="e9uT0wCnjbN70" d="M588.443,250.044C588.233,250.1,587.98,249.998,587.871,249.801C587.748,249.551,587.835,249.245,588.076,249.095L596.266,244.636C596.515,244.513,596.82,244.601,596.97,244.844C597.093,245.094,597.006,245.4,596.764,245.55L588.575,250.008C588.522,250.022,588.496,250.03,588.443,250.044Z" fill="rgb(255,255,255)" stroke="none" stroke-width="1"/></g></g></g><g id="e9uT0wCnjbN71"><path id="e9uT0wCnjbN72" d="M522.197,312.849C521.329,311.61,520.668,310.089,520.945,308.6C521.495,305.708,525.248,304.674,528.126,305.318C530.996,305.935,533.615,307.61,536.545,307.816C539.474,308.021,542.94,305.706,542.228,302.84C541.873,301.407,540.613,300.387,539.506,299.41C536.344,296.55,533.966,292.829,532.678,288.759C532.208,287.215,532.182,285.015,533.712,284.52C534.618,284.221,535.572,284.729,536.38,285.22C539.764,287.228,543.148,289.236,546.499,291.225C545.012,283.36,543.692,274.544,548.17,267.91C548.994,266.671,550.505,265.474,551.837,266.135C552.424,266.431,552.785,267.042,553.086,267.64C555.356,272.324,555.153,277.982,557.822,282.474C558.223,283.131,558.711,283.792,559.39,284.12C562.633,285.6,564.572,279.165,568.119,279.149C570.423,279.126,571.782,281.988,571.447,284.313C571.131,286.605,569.794,288.662,569.299,290.917C568.804,293.172,569.537,296.117,571.806,296.697C572.861,296.952,573.958,296.63,574.97,296.302C578.168,295.304,581.386,294.272,584.585,293.273C583.529,296.273,582.472,299.273,581.423,302.299C581.153,303.079,580.892,303.998,581.289,304.741C582.174,306.258,584.652,305.198,586.206,306.055C587.927,307.009,587.416,309.834,585.838,310.993C584.261,312.151,582.176,312.257,580.228,312.666C569.445,315.018,563.788,324.09,551.969,322.785C542.392,321.644,528.44,321.845,522.197,312.849Z" fill="rgb(90,84,255)" stroke="none" stroke-width="1"/><g id="e9uT0wCnjbN73"><path id="e9uT0wCnjbN74" d="M559.849,322.429C559.612,322.492,559.431,322.343,559.374,322.131C557.208,311.732,553.744,294.18,554.753,293.315C554.915,293.187,555.147,293.209,555.302,293.366C555.423,293.503,555.42,293.702,555.317,293.843C554.846,295.243,558.015,311.798,560.151,321.98C560.181,322.198,560.033,322.379,559.849,322.429Z" fill="rgb(255,255,255)" stroke="none" stroke-width="1"/><path id="e9uT0wCnjbN75" d="M557.883,312.569C557.725,312.611,557.539,312.548,557.437,312.377C557.328,312.18,557.41,311.96,557.58,311.858L569.891,305.219C570.061,305.117,570.307,305.193,570.409,305.363C570.518,305.56,570.436,305.781,570.266,305.883L557.955,312.521C557.936,312.555,557.909,312.562,557.883,312.569Z" fill="rgb(255,255,255)" stroke="none" stroke-width="1"/><path id="e9uT0wCnjbN76" d="M559.285,319.693C559.232,319.707,559.146,319.702,559.087,319.69L539.581,313.993C539.368,313.937,539.252,313.713,539.315,313.526C539.37,313.313,539.593,313.197,539.779,313.261L559.285,318.958C559.497,319.014,559.613,319.237,559.551,319.424C559.534,319.57,559.416,319.658,559.285,319.693Z" fill="rgb(255,255,255)" stroke="none" stroke-width="1"/><path id="e9uT0wCnjbN77" d="M556.813,306.998C556.708,307.026,556.562,307.009,556.481,306.917L547.841,299.808C547.667,299.685,547.656,299.433,547.778,299.259C547.908,299.111,548.152,299.074,548.325,299.197L556.966,306.306C557.139,306.429,557.151,306.681,557.028,306.855C556.963,306.929,556.892,306.977,556.813,306.998Z" fill="rgb(255,255,255)" stroke="none" stroke-width="1"/></g></g><path id="e9uT0wCnjbN78" d="M609.291,309.859C609.897,307.178,610.228,304.627,611.438,302.095C611.858,301.247,612.411,300.363,613.298,300.097C613.482,300.048,613.673,300.025,613.813,300.129C613.947,300.206,614.023,300.384,614.065,300.542C617.574,310.271,604.508,313.15,599.689,305.47C599.39,304.984,599.11,304.465,599.133,303.921C599.174,302.919,600.225,302.213,601.223,302.257C602.221,302.301,603.124,302.936,603.877,303.64C605.845,305.518,606.981,308.072,608.068,310.554C606.532,307.344,605.971,303.674,606.537,300.211C606.62,299.679,606.872,299.045,607.395,299.103C607.653,299.119,607.848,299.322,608.036,299.498C609.321,300.823,609.883,302.71,609.949,304.532C610.06,306.313,609.696,308.109,609.291,309.859Z" fill="rgb(151,140,255)" stroke="none" stroke-width="1"/><g id="e9uT0wCnjbN79_to" transform="translate(448.410919,62.186387)"><g id="e9uT0wCnjbN79" transform="translate(-448.410919,-62.186386)"><path id="e9uT0wCnjbN80" d="M461.846,53.4232L466.569,52.4395L463.222,56.305L461.846,53.4232Z" fill="rgb(75,54,157)" stroke="none" stroke-width="1"/><path id="e9uT0wCnjbN81" d="M443.927,66.2389C442.607,67.8183,441.26,69.7165,439.635,71.1297C438.01,72.5291,434.967,72.8062,433.745,74.3164C437.537,78.4453,446.9,75.5218,450.998,73.3743C456.457,70.5201,460.902,65.6154,462.833,59.7408C463.861,56.6095,464.027,52.6746,461.541,50.4994C460.332,49.4464,458.721,49.003,457.151,48.6566C454.693,48.1024,451.678,47.5205,449.247,48.5042C445.552,50.0006,449.581,49.7789,450.414,51.4692C451.387,53.4644,449.358,57.2746,448.483,58.9926C447.15,61.5142,445.747,64.0359,443.927,66.2389Z" fill="rgb(167,173,255)" stroke="none" stroke-width="1"/><path id="e9uT0wCnjbN82" d="M458.401,53.423C458.946,53.423,459.388,52.9826,459.388,52.4393C459.388,51.896,458.946,51.4556,458.401,51.4556C457.857,51.4556,457.415,51.896,457.415,52.4393C457.415,52.9826,457.857,53.423,458.401,53.423Z" fill="rgb(75,54,157)" stroke="none" stroke-width="1"/><g id="e9uT0wCnjbN83_tr" transform="translate(448.641986,62.185146) rotate(0)"><path id="e9uT0wCnjbN83" d="M441.843,54.0465C439.301,53.1321,436.44,52.6194,434.523,50.7213C433.467,49.6683,432.578,48.1581,431.092,48.0334C430.869,48.0195,430.619,48.0334,430.453,48.1996C430.244,48.3936,430.244,48.7123,430.258,49.0032C430.342,50.6936,430.439,52.4254,431.106,53.9772C431.772,55.529,433.162,56.8868,434.856,57.0392C435.065,57.0531,435.287,57.0669,435.467,57.1639C435.981,57.4687,435.69,58.2862,435.245,58.6741C434.787,59.0621,434.162,59.3669,434.037,59.9488C433.898,60.5584,434.439,61.1681,435.051,61.3343C435.662,61.5006,436.301,61.362,436.926,61.2096C436.704,62.2903,436.648,63.7174,437.662,64.1469C438.551,64.5072,439.76,63.8005,440.44,64.4656C440.69,64.715,440.788,65.0891,440.927,65.4078C441.385,66.4607,442.538,67.1119,443.691,67.2228C444.844,67.3336,445.997,67.0011,447.053,66.53C449.775,65.3246,452.776,62.6367,450.595,59.8518C448.525,57.2193,444.927,55.1688,441.843,54.0465Z" transform="translate(-448.641974,-62.185146)" fill="rgb(151,140,255)" stroke="none" stroke-width="1"/></g></g></g><g id="e9uT0wCnjbN84_to" transform="translate(487.787292,156.979027)"><path id="e9uT0wCnjbN84" d="M478.665,167.564C496.705,168.077,514.87,168.59,532.673,165.613C535.592,165.125,539.086,163.987,539.659,161.073C540.371,157.471,535.804,155.007,532.161,155.307C528.519,155.607,524.926,157.333,521.332,156.633C518.6,156.095,516.355,154.244,514.171,152.505C510.79,149.803,507.11,147.177,502.831,146.589C498.552,146.014,493.599,148.202,492.501,152.38C487.86,151.429,483.705,148.915,479.326,147.077C474.96,145.238,469.907,144.087,465.528,145.913C461.149,147.752,458.33,153.606,461.049,157.508C458.567,153.943,442.261,162.124,439.803,163.8C435.985,166.414,433.852,167.665,438.456,168.715C442.922,169.741,449.409,167.314,453.988,167.064C462.16,166.614,470.481,167.327,478.665,167.564Z" transform="translate(-487.787292,-156.979027)" fill="rgb(198,202,250)" stroke="none" stroke-width="1"/></g><g id="e9uT0wCnjbN85_to" transform="translate(121.895146,55.941891)"><path id="e9uT0wCnjbN85" d="M70.2087,70.8758C65.7139,70.8117,59.5688,68.9058,60.2917,64.3892C60.9047,60.5453,66.1382,59.8086,69.7687,61.0098C73.3991,62.211,77.2025,64.4052,80.7701,63.0278C82.2003,62.4833,83.4261,61.3942,84.9349,61.1379C86.5065,60.8817,88.1253,61.5864,89.6812,61.218C91.9444,60.7055,93.2646,58.1429,95.4806,57.4542C99.1739,56.301,103.292,60.8336,106.639,58.8636C108.729,57.6304,108.949,54.7314,109.421,52.313C111.275,43.0876,121.758,36.7291,130.607,39.4519C142.158,43.0235,148.146,58.4632,160.153,59.6484C165.135,60.1449,185.692,56.1408,181.936,68.4573C179.61,76.0651,155.564,71.9809,149.419,71.9008C123.031,71.5805,96.6279,71.2282,70.2087,70.8758Z" transform="scale(0.678159,0.678159) translate(-121.31245,-55.941891)" fill="rgb(198,202,250)" stroke="none" stroke-width="1"/></g></svg>