<svg width="718" height="489" viewBox="0 0 718 489" fill="none" xmlns="http://www.w3.org/2000/svg">
<path d="M-2 488V0H417.5L228.237 488H-2Z" fill="url(#paint0_linear_254_977)"/>
<path d="M132.733 219.654C132.707 221.2 132.786 222.8 133.477 224.159C134.035 225.279 135.018 226.158 136.107 226.745C137.222 227.358 138.577 227.704 139.799 227.251C139.879 225.838 139.64 224.426 139.055 223.12C139.693 223.706 140.304 224.292 140.941 224.879C141.685 225.572 142.535 226.318 143.571 226.345C144.607 226.345 145.59 225.119 144.979 224.292C144.687 223.893 144.049 223.653 144.022 223.146C143.969 222.533 144.793 222.24 145.377 222.347C145.962 222.453 146.599 222.773 147.157 222.56C147.98 222.24 148.007 220.96 147.422 220.321C146.838 219.654 145.908 219.441 145.032 219.281C143.252 218.908 141.154 218.801 139.454 218.162C138.497 217.788 137.275 216.562 136.399 216.376C133.955 215.843 132.68 216.642 132.733 219.654Z" fill="#F44E4E"/>
<path d="M178.369 211.977C178.687 212.217 179.059 212.404 179.431 212.377C180.095 212.324 180.547 211.657 180.6 211.018C180.653 210.378 180.414 209.738 180.148 209.125C181.397 209.685 182.937 209.978 184.106 209.205C185.248 208.459 185.434 206.379 184.186 205.82C185.195 205.74 186.258 205.633 187.028 204.993C187.799 204.354 188.038 202.968 187.214 202.408C186.816 202.115 186.258 202.115 185.753 202.115C183.469 202.115 181.211 202.115 178.926 202.088C178.342 202.088 177.731 202.088 177.2 202.328C173.162 204.114 175.765 210.005 178.369 211.977Z" fill="#FDC510"/>
<path d="M-0.799403 309.004C-0.480646 309.243 -0.108763 309.43 0.263121 309.403C0.927198 309.35 1.37877 308.684 1.4319 308.044C1.48502 307.404 1.24595 306.764 0.980324 306.151C2.22879 306.711 3.76945 307.004 4.93822 306.231C6.08044 305.485 6.26638 303.406 5.01791 302.846C6.02731 302.766 7.08983 302.659 7.86016 302.02C8.63049 301.38 8.86956 299.994 8.04611 299.434C7.64766 299.141 7.08983 299.141 6.58514 299.141C4.30071 299.141 2.04285 299.141 -0.241578 299.114C-0.825966 299.114 -1.43692 299.114 -1.96818 299.354C-5.97921 301.167 -3.40259 307.058 -0.799403 309.004Z" fill="#E3E5FC"/>
<path d="M233.487 273.525C233.779 273.578 234.098 273.552 234.337 273.392C234.762 273.125 234.815 272.512 234.629 272.086C234.443 271.632 234.045 271.313 233.673 270.993C234.709 270.913 235.798 270.54 236.303 269.633C236.781 268.727 236.17 267.288 235.134 267.394C235.771 266.994 236.435 266.541 236.701 265.848C236.967 265.155 236.648 264.169 235.904 264.089C235.532 264.036 235.16 264.222 234.842 264.409C233.354 265.235 231.867 266.035 230.353 266.861C229.954 267.074 229.556 267.288 229.29 267.634C227.271 270.246 231.07 273.178 233.487 273.525Z" fill="#FDC510"/>
<path d="M178.926 250.628C178.183 251.161 171.409 242.205 169.629 247.669C168.036 252.547 176.615 252.334 178.926 250.628Z" fill="#FDC510"/>
<path d="M205.543 235.194C207.907 234.821 210.138 233.808 212.21 232.609C209.66 232.636 207.163 232.022 204.64 231.756C203.152 231.596 197.919 231.089 198.982 233.968C199.619 235.594 204.241 235.381 205.543 235.194Z" fill="#E3E5FC"/>
<path d="M116.609 265.768C120.169 265.901 123.755 264.515 126.305 262.01C125.216 263.076 119.319 262.65 117.805 262.729C115.68 262.836 112.173 262.143 110.58 263.716C111.828 265.182 114.617 265.688 116.609 265.768Z" fill="#E3E5FC"/>
<path d="M121.63 192.812C125.189 192.945 128.775 191.559 131.325 189.053C130.236 190.119 124.339 189.693 122.825 189.773C120.7 189.88 117.194 189.187 115.6 190.759C116.848 192.252 119.638 192.758 121.63 192.812Z" fill="#E3E5FC"/>
<path d="M-7.73236 238.34C-6.1917 239.699 -4.65104 241.085 -3.08382 242.445C-2.31349 243.111 -1.54316 243.804 -0.613451 244.204C0.316257 244.604 1.45847 244.657 2.30849 244.071C2.65381 243.831 2.946 243.458 2.86631 243.058C2.81319 242.765 2.57412 242.525 2.36162 242.338C-0.188442 240.019 -3.29632 238.34 -6.64327 237.487" fill="#FDC510"/>
<path d="M27.8622 303.699C29.4028 305.059 30.9435 306.445 32.5107 307.804C33.281 308.471 34.0514 309.164 34.9811 309.563C35.9108 309.963 37.053 310.017 37.903 309.43C38.2483 309.19 38.5405 308.817 38.4608 308.417C38.4077 308.124 38.1686 307.884 37.9561 307.698C35.4061 305.378 32.2982 303.699 28.9513 302.846" fill="#FDC510"/>
<path d="M5.76166 216.989C6.10698 216.935 6.42574 216.696 6.69137 216.456C8.57735 214.83 10.2243 212.91 11.5259 210.805C10.0118 211.311 1.51157 212.644 0.953742 213.79C0.0240337 215.656 4.06162 217.309 5.76166 216.989Z" fill="#E3E5FC"/>
<path d="M280.504 277.283C281.832 276.244 283.107 274.458 282.257 272.992C276.307 274.511 266 275.924 261.299 279.922C265.921 284.187 276.307 280.642 280.504 277.283Z" fill="#F44E4E"/>
<path d="M276.519 298.954C280.052 298.528 283.16 295.702 283.957 292.21C281.805 293.063 279.521 293.597 277.21 293.756C275.324 293.89 269.719 292.93 269.852 296.129C269.985 298.634 274.766 299.168 276.519 298.954Z" fill="#FDC510"/>
<path d="M304.729 281.122C304.915 280.962 305.075 280.802 305.128 280.562C305.287 279.816 304.118 279.683 303.401 279.923C301.887 280.429 293.945 282.268 296.096 284.534C298.168 286.693 303.189 282.482 304.729 281.122Z" fill="#FDC510"/>
<path fill-rule="evenodd" clip-rule="evenodd" d="M451.758 385.715L451.642 385.366L618.563 385.889L618.446 386.237C627.323 387.978 633.647 396.454 632.197 405.8L619.723 486.375L450.539 485.852L438.065 405.278C436.557 395.99 442.881 387.456 451.758 385.715Z" fill="#FEBA91"/>
<path fill-rule="evenodd" clip-rule="evenodd" d="M178.371 356.689C180.982 356.689 183.593 356.863 186.146 357.154C200.013 337.997 215.91 321.743 232.619 311.41C276.134 284.59 335.893 292.253 391.65 312.919C430 327.083 478.562 372.827 509.719 405.22C550.332 408.296 581.546 435.929 579.69 467.566C579.284 474.474 577.311 480.976 574.12 486.955L437.833 487.884C437.601 487.536 437.369 487.13 437.137 486.781L234.998 486.085C234.766 486.375 234.534 486.665 234.302 487.013L122.383 486.839C111.998 473.081 105.79 455.492 105.79 436.277C105.79 392.274 138.28 356.689 178.371 356.689Z" fill="#5D21D1"/>
<path fill-rule="evenodd" clip-rule="evenodd" d="M228.616 314.022C280.079 345.95 326.262 346.647 356.2 341.48C383.933 336.72 403.95 326.039 410.448 321.859C411.55 322.497 412.653 323.136 413.813 323.775C408.475 327.432 387.588 339.506 357.418 344.789C347.555 346.53 337.634 347.401 327.655 347.401C317.501 347.401 307.348 346.53 297.253 344.731C272.827 340.377 248.749 330.799 225.541 316.228C226.585 315.415 227.572 314.719 228.616 314.022Z" fill="white"/>
<path fill-rule="evenodd" clip-rule="evenodd" d="M233.954 368.88C225.773 357.386 215.678 350.942 203.9 349.665C198.446 349.084 193.863 349.839 191.136 350.478C192.238 349.084 193.34 347.691 194.443 346.356C197.112 346.008 200.419 345.834 204.074 346.24C212.951 347.169 225.831 351.465 236.797 366.906C237.377 367.661 237.145 368.764 236.391 369.344C236.1 369.576 235.752 369.693 235.404 369.693C234.824 369.634 234.302 369.402 233.954 368.88Z" fill="white"/>
<path fill-rule="evenodd" clip-rule="evenodd" d="M233.316 409.69V409.69C232.329 409.69 231.575 408.935 231.517 408.006C231.401 402.898 229.37 391.288 222.234 380.374C213.995 367.661 201.811 359.882 186.146 357.096C186.9 356.051 187.654 355.006 188.467 353.961C204.132 357.154 216.78 365.571 225.193 378.458C232.213 389.256 234.882 401.098 235.056 407.89C235.056 408.877 234.302 409.69 233.316 409.69Z" fill="white"/>
<path fill-rule="evenodd" clip-rule="evenodd" d="M479.143 392.565C486.511 392.274 493.589 392.971 498.811 394.074C500.552 395.815 502.292 397.557 503.975 399.298C497.535 395.757 460.867 391.345 445.724 408.587C445.376 408.993 444.911 409.167 444.389 409.167C443.983 409.167 443.577 409.051 443.229 408.761C442.533 408.122 442.417 407.019 443.055 406.323C452.86 395.119 469.86 392.913 479.143 392.565Z" fill="white"/>
<path fill-rule="evenodd" clip-rule="evenodd" d="M510.879 405.336C510.879 405.336 510.821 405.336 510.763 405.336C510.821 405.278 510.879 405.336 510.879 405.336C510.937 405.336 510.879 405.336 510.879 405.336Z" fill="white"/>
<path fill-rule="evenodd" clip-rule="evenodd" d="M449.321 417.469C469.802 401.969 495.33 401.04 506.122 401.505C507.34 402.782 508.558 404.001 509.719 405.22C503.511 404.697 473.863 403.304 451.409 420.255C451.119 420.487 450.713 420.603 450.365 420.603C449.843 420.603 449.321 420.371 448.973 419.907C448.392 419.152 448.567 418.049 449.321 417.469Z" fill="white"/>
<path fill-rule="evenodd" clip-rule="evenodd" d="M537.8 486.433C537.8 486.433 518.77 430.123 465.218 440.34C411.666 450.557 338.388 472.501 338.388 472.501V486.607L537.8 486.433Z" fill="white"/>
<path fill-rule="evenodd" clip-rule="evenodd" d="M502.172 442.658C511.275 446.908 519.077 453.459 525.668 461.677C529.905 466.96 533.39 472.613 536.175 478.267C537.151 480.248 537.971 482.09 538.64 483.746L538.924 484.46C539.012 484.686 539.094 484.9 539.169 485.101L539.394 485.718C539.417 485.782 539.435 485.835 539.449 485.875C539.83 487.003 538.992 488.173 537.801 488.174L338.39 488.348C337.428 488.349 336.648 487.569 336.648 486.607V472.501C336.648 471.731 337.152 471.053 337.889 470.832L340.205 470.145L343.334 469.227C347.699 467.951 352.634 466.53 358.039 465C373.483 460.627 389.6 456.254 405.586 452.173C413.621 450.121 421.434 448.193 428.967 446.408L431.081 445.909C443.359 443.025 454.691 440.576 464.892 438.63C478.771 435.982 491.189 437.53 502.172 442.658ZM465.544 442.051C454.815 444.098 442.816 446.707 429.769 449.798C422.257 451.577 414.463 453.501 406.447 455.548C391.332 459.407 376.097 463.527 361.427 467.662L358.987 468.351C354.082 469.74 349.565 471.039 345.512 472.22L340.129 473.799V484.864L535.267 484.694L535.108 484.31C534.53 482.927 533.846 481.416 533.053 479.807C530.373 474.368 527.02 468.928 522.953 463.857C516.676 456.03 509.28 449.82 500.7 445.814C490.38 440.996 478.705 439.54 465.544 442.051Z" fill="#2E186A"/>
<path fill-rule="evenodd" clip-rule="evenodd" d="M114.956 278.437C114.956 278.437 119.25 276.289 119.772 271.354C120.294 266.42 116.987 244.941 111.649 241.923C106.254 238.904 81.7115 225.61 77.186 225.901C72.6605 226.191 70.8039 265.607 114.956 278.437Z" fill="white"/>
<path fill-rule="evenodd" clip-rule="evenodd" d="M112.346 244.303C103.179 212.2 95.6942 205.002 91.3428 208.137C87.3975 210.981 95.4041 231.415 97.7248 242.039" fill="white"/>
<path fill-rule="evenodd" clip-rule="evenodd" d="M101.493 212.049L101.211 211.628C97.5015 206.175 93.6484 204.33 90.3251 206.724C88.3659 208.137 88.1547 211.056 88.9382 215.696L89.0532 216.351C89.5773 219.222 90.4397 222.574 91.8491 227.449L94.1528 235.315C95.2308 239.03 95.5903 240.424 96.0244 242.411C96.2297 243.35 97.1574 243.945 98.0965 243.74C99.0356 243.535 99.6305 242.606 99.4252 241.667L99.2607 240.926C98.8867 239.276 98.5039 237.829 97.6256 234.791L95.3047 226.866C93.754 221.523 92.8642 218.039 92.3707 215.116L92.2992 214.675C91.8281 211.645 91.9762 209.827 92.3597 209.55C93.6946 208.589 95.728 209.615 98.5838 213.963L98.8421 214.362C102.508 220.123 106.513 230.218 110.672 244.781C110.936 245.706 111.899 246.241 112.824 245.977C113.748 245.713 114.283 244.749 114.019 243.824L113.72 242.782C109.481 228.127 105.371 217.952 101.493 212.049Z" fill="#2E186A"/>
<path fill-rule="evenodd" clip-rule="evenodd" d="M71.9063 237.336C67.3228 229.848 59.7223 230.254 63.6676 242.967C67.5548 255.39 70.3978 271.528 77.6502 278.843C84.9025 286.157 87.5134 289.408 87.5134 289.408C87.5134 289.408 102.018 343.57 110.257 388.617C122.151 453.75 144.662 466.289 165.665 458.8C186.668 451.37 190.555 421.88 161.894 364.7C133.232 307.462 118.089 274.141 118.089 274.141" fill="white"/>
<path fill-rule="evenodd" clip-rule="evenodd" d="M73.3906 236.427C70.7887 232.176 67.0049 229.792 63.9689 230.949C60.6264 232.223 59.975 236.766 61.927 243.228L62.3484 244.598C62.8508 246.253 63.368 248.068 64.0517 250.546L65.3124 255.128C69.0007 268.439 71.7309 275.258 76.2659 279.918L77.4062 281.074C79.7768 283.484 81.7542 285.565 83.3692 287.331L84.0098 288.036C84.6815 288.78 85.232 289.406 85.6692 289.918L85.93 290.224L86.8468 293.705L87.6695 296.866C88.4678 299.948 89.3314 303.323 90.2466 306.95C93.5589 320.078 96.8713 333.813 99.9624 347.481L100.63 350.449C102.065 356.855 103.414 363.094 104.665 369.127L105.167 371.565C106.243 376.817 107.234 381.873 108.135 386.712L108.545 388.93C114.219 420.003 122.576 440.775 133.278 452.136C142.852 462.3 154.153 464.754 166.245 460.443C177.866 456.331 184.13 446.068 184.144 430.408C184.16 414.107 177.478 392.081 163.865 364.75L161.189 359.399C150.349 337.69 140.777 318.076 132.508 300.758L129.291 293.999C127.305 289.81 125.502 285.981 123.886 282.521L121.344 277.052L119.674 273.42C119.276 272.544 118.244 272.157 117.369 272.556C116.525 272.939 116.135 273.913 116.465 274.767L116.684 275.253L118.492 279.181L120.976 284.518C122.86 288.546 124.989 293.063 127.361 298.051L129.796 303.158C138.549 321.474 148.743 342.326 160.338 365.481C186.665 418.003 186.635 449.535 165.081 457.16C154.258 461.019 144.416 458.882 135.812 449.748C125.759 439.075 117.696 419.179 112.137 389.215L111.969 388.304C110.823 382.035 109.519 375.391 108.073 368.42C106.625 361.437 105.047 354.181 103.358 346.712C100.432 333.775 97.3089 320.78 94.175 308.295L92.8994 303.244C92.3071 300.913 91.7393 298.698 91.2001 296.613L90.1185 292.457L89.1946 288.958C89.1321 288.724 89.0216 288.506 88.8702 288.317L88.6312 288.028L88.3151 287.654C87.857 287.118 87.2856 286.468 86.593 285.701L85.714 284.736C83.8841 282.743 81.6214 280.376 78.8858 277.616L78.6214 277.344C74.9046 273.437 72.3829 267.34 69.1311 255.855L67.0452 248.313C66.4671 246.24 66.0038 244.639 65.5393 243.127L65.3298 242.451C63.7622 237.4 64.1363 234.612 65.2082 234.204C66.2792 233.796 68.5886 235.251 70.4219 238.246C70.9239 239.066 71.9955 239.324 72.8152 238.822C73.635 238.32 73.8926 237.247 73.3906 236.427Z" fill="#2E186A"/>
<path fill-rule="evenodd" clip-rule="evenodd" d="M117.567 275.128C121.745 272.283 121.223 255.913 125.922 248.773C131.724 239.891 137.41 230.661 126.676 232.054C117.451 233.215 114.55 241.342 112.404 244.245" fill="white"/>
<path fill-rule="evenodd" clip-rule="evenodd" d="M134.189 236.98C135.396 232.119 132.563 229.534 126.459 230.326C121.335 230.971 117.625 233.507 114.62 237.556L114.48 237.748C113.383 239.285 111.295 242.786 111.02 243.187L111.005 243.209C110.433 243.982 110.596 245.073 111.368 245.645C112.141 246.217 113.231 246.054 113.803 245.281L113.862 245.196C114.357 244.463 116.528 240.828 117.415 239.632C119.896 236.289 122.813 234.296 126.9 233.781C129.034 233.504 130.274 233.701 130.73 234.117C130.999 234.362 131.09 234.933 130.846 235.993L130.811 236.141C130.207 238.573 128.463 241.685 124.663 247.516L124.468 247.815C122.691 250.515 121.597 254.088 120.481 259.801L120.255 260.98L119.574 264.665C118.513 270.285 117.685 272.874 116.641 273.65L116.588 273.688C115.793 274.229 115.588 275.313 116.128 276.108C116.669 276.903 117.752 277.109 118.547 276.568C120.724 275.085 121.66 272.345 122.931 265.654L123.715 261.42L123.828 260.828C124.863 255.454 125.85 252.127 127.285 249.871L128.363 248.21C131.868 242.771 133.502 239.748 134.189 236.98Z" fill="#2E186A"/>
<path fill-rule="evenodd" clip-rule="evenodd" d="M77.244 250.921C77.244 250.921 69.0633 231.067 66.3364 221.837C63.3194 211.794 73.8789 210.343 78.9846 224.798" fill="white"/>
<path fill-rule="evenodd" clip-rule="evenodd" d="M69.7275 212.393C65.2012 212.098 62.9972 216.508 64.6115 222.14L64.6673 222.331C65.5009 225.152 66.8678 229.072 68.6509 233.835L68.9698 234.685C69.2164 235.339 69.4693 236.006 69.7281 236.683C70.8589 239.644 72.0598 242.708 73.2695 245.737L74.2607 248.206L75.2881 250.738L75.6349 251.584C76.0013 252.473 77.0188 252.897 77.9075 252.53C78.7645 252.177 79.1888 251.218 78.8895 250.352L77.4887 246.902C77.3361 246.524 77.1792 246.134 77.0186 245.734C75.8136 242.733 74.6087 239.678 73.4658 236.707L72.725 234.771L72.2273 233.456C70.3686 228.523 68.9398 224.461 68.076 221.58L68.0034 221.336C66.8921 217.636 67.8086 215.758 69.5017 215.869C72.0084 216.032 75.2368 219.413 77.3436 225.378C77.6639 226.285 78.6583 226.76 79.5646 226.44C80.471 226.119 80.9461 225.124 80.6258 224.217C78.1043 217.079 73.8894 212.664 69.7275 212.393Z" fill="#2E186A"/>
<path fill-rule="evenodd" clip-rule="evenodd" d="M86.8752 245.696C86.8752 245.696 70.804 209.298 77.9983 206.047C84.5545 203.086 89.5441 216.38 97.7828 242.039" fill="white"/>
<path fill-rule="evenodd" clip-rule="evenodd" d="M88.5683 212.045C85.0772 205.292 81.5311 202.541 77.2819 204.46C72.912 206.435 73.741 213.973 77.649 226.283C78.3128 228.374 79.0592 230.556 79.8736 232.805C80.925 235.709 82.0424 238.596 83.1671 241.363L83.5891 242.395C83.9832 243.353 84.3524 244.234 84.6894 245.024L85.2831 246.4C85.6716 247.279 86.6993 247.678 87.5786 247.289C88.4579 246.9 88.8558 245.872 88.4674 244.992L88.0141 243.945L87.637 243.058C87.3767 242.442 87.0994 241.777 86.8082 241.069C85.5596 238.035 84.311 234.835 83.1466 231.619C82.3473 229.412 81.6157 227.272 80.9669 225.229L80.6826 224.321C77.7538 214.831 77.0948 208.366 78.7143 207.635C80.7288 206.725 82.8754 208.465 85.7046 214.093L86.0293 214.75C88.6336 220.104 91.4211 227.919 96.1257 242.571C96.4198 243.487 97.4 243.991 98.3153 243.697C99.2305 243.403 99.7341 242.422 99.44 241.506L98.4288 238.371C94.1279 225.105 91.4866 217.886 88.899 212.697L88.5683 212.045Z" fill="#2E186A"/>
<path fill-rule="evenodd" clip-rule="evenodd" d="M349.528 272.167L347.265 313.209C347.265 313.209 351.094 335.384 320.344 331.263C289.71 327.199 293.481 309.029 293.481 309.029L302.938 258.061L349.528 272.167Z" fill="white"/>
<path fill-rule="evenodd" clip-rule="evenodd" d="M303.443 256.394L350.032 270.5C350.8 270.733 351.31 271.461 351.266 272.263L349.013 313.124L349.037 313.31C349.049 313.412 349.061 313.527 349.074 313.654C349.359 316.603 349.028 319.965 347.581 323.202C344.047 331.108 335.243 335.017 320.113 332.989C307.764 331.351 299.732 327.345 295.327 321.607C292.125 317.436 291.255 313.052 291.678 309.333L291.708 309.097C291.727 308.952 291.747 308.833 291.764 308.74L301.227 257.743C301.417 256.722 302.45 256.093 303.443 256.394ZM347.715 273.437L304.295 260.29L295.176 309.437C295.165 309.507 295.152 309.601 295.137 309.727C294.808 312.62 295.502 316.117 298.087 319.485C301.878 324.423 309.073 328.011 320.573 329.536C334.285 331.374 341.558 328.145 344.403 321.78C345.566 319.177 345.841 316.39 345.609 313.99L345.583 313.745C345.569 313.629 345.557 313.548 345.55 313.505L345.533 313.375C345.524 313.288 345.522 313.2 345.527 313.113L347.715 273.437Z" fill="#2E186A"/>
<path fill-rule="evenodd" clip-rule="evenodd" d="M291.161 206.279C291.161 206.279 267.373 197.339 266.445 222.127C265.516 246.915 291.161 240.471 291.161 240.471" fill="white"/>
<path fill-rule="evenodd" clip-rule="evenodd" d="M288.857 203.799C285.42 202.987 281.875 202.695 278.509 203.244C270.31 204.581 265.135 210.583 264.705 222.062C264.261 233.931 269.542 240.429 278.418 242.372C282.031 243.163 285.836 243.117 289.433 242.57L289.995 242.48C290.703 242.36 291.244 242.246 291.585 242.16C292.517 241.926 293.083 240.98 292.849 240.047C292.623 239.147 291.736 238.589 290.837 238.76L290.459 238.845L290.279 238.883C289.88 238.966 289.421 239.049 288.91 239.126C285.699 239.615 282.298 239.656 279.162 238.97C271.899 237.379 267.804 232.341 268.184 222.192L268.21 221.602C268.714 212.169 272.654 207.728 279.068 206.682C281.918 206.217 285.028 206.473 288.056 207.189C288.642 207.328 289.183 207.474 289.671 207.622L289.91 207.695C290.087 207.751 290.233 207.799 290.346 207.838L290.549 207.909C291.448 208.248 292.452 207.792 292.79 206.891C293.128 205.991 292.672 204.987 291.773 204.649L291.548 204.567C290.944 204.354 290.023 204.075 288.857 203.799Z" fill="#2E186A"/>
<path fill-rule="evenodd" clip-rule="evenodd" d="M335.777 284.648V284.648C361.538 284.648 382.425 263.75 382.425 237.975V197.223C382.425 180.737 369.022 167.327 352.545 167.327H311.699C299.225 167.327 289.072 177.486 289.072 189.967V237.917C289.072 263.692 309.959 284.648 335.777 284.648Z" fill="white"/>
<path fill-rule="evenodd" clip-rule="evenodd" d="M311.699 165.585H352.545C369.984 165.585 384.165 179.775 384.165 197.223V237.975C384.165 264.711 362.499 286.389 335.777 286.389L334.99 286.383C308.554 285.954 287.331 264.374 287.331 237.917V189.967C287.331 176.524 298.264 165.585 311.699 165.585ZM352.545 169.068H311.699C300.187 169.068 290.812 178.448 290.812 189.967V237.917C290.812 262.472 310.511 282.502 335.033 282.9L335.791 282.906C360.577 282.906 380.684 262.788 380.684 237.975V197.223C380.684 181.699 368.061 169.068 352.545 169.068Z" fill="#2E186A"/>
<path fill-rule="evenodd" clip-rule="evenodd" d="M278.222 260.034C278.28 244.186 280.485 232.634 281.065 229.732C281.065 229.557 281.007 229.325 281.007 229.151C281.007 225.494 283.966 222.533 287.621 222.533V229.151L287.447 235.769C286.055 235.711 284.778 235.246 283.734 234.492C281.587 247.843 277.352 287.666 295.222 321.51C298.471 327.721 301.546 333.468 304.563 338.983C321.389 370.389 332.528 391.171 332.238 409.689C332.238 410.618 331.426 411.431 330.498 411.431V411.431C329.511 411.431 328.757 410.618 328.757 409.689C328.989 392.042 318.023 371.608 301.488 340.667C298.529 335.094 295.454 329.405 292.147 323.135C280.485 301.018 278.106 276.637 278.222 260.034Z" fill="#FE7624"/>
<path fill-rule="evenodd" clip-rule="evenodd" d="M386.95 236.524C386.138 236.988 385.268 237.278 384.281 237.336V224.159C387.356 224.449 389.793 226.771 390.199 229.79C390.373 230.08 390.489 230.428 390.489 230.776C390.489 233.447 390.489 295.968 371.923 324.18C352.951 353.09 347.091 369.576 345.757 397.557C345.699 398.485 344.944 399.24 344.016 399.24H343.958C342.972 399.182 342.275 398.369 342.275 397.44C343.61 368.647 349.586 351.812 369.022 322.265C383.875 299.741 386.486 252.836 386.95 236.524Z" fill="#FE7624"/>
<path fill-rule="evenodd" clip-rule="evenodd" d="M350.079 208.195C349.153 208.179 348.383 208.891 348.314 209.805L348.31 209.907L347.685 246.76L347.657 246.77C347.531 246.811 347.391 246.802 347.2 246.731L347.114 246.697C346.219 246.314 345.04 245.019 343.687 242.539C343.226 241.695 342.169 241.384 341.325 241.845C340.481 242.306 340.171 243.364 340.632 244.208C343.812 250.035 347.234 251.499 349.967 249.433C350.373 249.126 350.658 248.81 350.841 248.548C351.013 248.3 351.118 248.011 351.145 247.712L351.152 247.583L351.79 209.966C351.807 209.004 351.041 208.211 350.079 208.195Z" fill="#2E186A"/>
<path fill-rule="evenodd" clip-rule="evenodd" d="M331.741 252.25C330.77 251.614 329.461 252.089 329.123 253.199L329.082 253.343C329.039 253.504 328.992 253.716 328.947 253.972C328.589 256.014 328.783 258.271 329.95 260.433C331.893 264.035 336.094 266.383 342.859 267.05C343.816 267.144 344.668 266.445 344.762 265.488C344.856 264.531 344.157 263.678 343.2 263.584C337.503 263.022 334.352 261.261 333.013 258.778C332.683 258.167 332.474 257.532 332.364 256.898L332.327 256.652L332.38 256.681C339.946 260.758 347.504 261.03 351.249 256.838L351.374 256.695C351.998 255.963 351.911 254.864 351.179 254.239C350.448 253.615 349.349 253.703 348.726 254.434C346.033 257.593 338.905 256.941 331.741 252.25Z" fill="#2E186A"/>
<path fill-rule="evenodd" clip-rule="evenodd" d="M334.23 194.608C330.432 191.718 325.922 191.409 321.059 195.28C320.307 195.878 320.182 196.974 320.781 197.727C321.379 198.479 322.474 198.604 323.226 198.006C326.745 195.205 329.512 195.394 332.122 197.38C332.475 197.649 332.79 197.924 333.13 198.25L333.769 198.882C333.859 198.969 333.935 199.038 334.017 199.104C334.241 199.286 334.437 199.409 334.775 199.493C335.708 199.726 336.653 199.159 336.886 198.226C337.061 197.526 336.785 196.819 336.243 196.411L336.168 196.357L335.787 195.978C335.265 195.462 334.792 195.036 334.23 194.608Z" fill="#2E186A"/>
<path fill-rule="evenodd" clip-rule="evenodd" d="M322.143 225.494C320.541 225.494 319.242 223.493 319.242 221.024C319.242 218.555 320.541 216.554 322.143 216.554C323.745 216.554 325.044 218.555 325.044 221.024C325.044 223.493 323.745 225.494 322.143 225.494Z" fill="#2E186A"/>
<path fill-rule="evenodd" clip-rule="evenodd" d="M364.323 226.597C362.721 226.597 361.422 224.596 361.422 222.127C361.422 219.658 362.721 217.657 364.323 217.657C365.925 217.657 367.224 219.658 367.224 222.127C367.224 224.596 365.925 226.597 364.323 226.597Z" fill="#2E186A"/>
<path fill-rule="evenodd" clip-rule="evenodd" d="M372.414 194.059C368.069 190.591 363.304 190.428 359.12 195.805C358.529 196.564 358.666 197.658 359.424 198.249C360.183 198.84 361.276 198.704 361.867 197.945C364.691 194.315 367.263 194.403 370.243 196.782C370.646 197.103 371.01 197.432 371.413 197.826L372.097 198.509C372.189 198.599 372.266 198.67 372.345 198.737C372.583 198.935 372.769 199.056 373.126 199.145C374.058 199.379 375.003 198.811 375.236 197.878C375.411 197.178 375.136 196.471 374.594 196.063L374.527 196.015L374.079 195.566C373.508 194.995 373.002 194.529 372.414 194.059Z" fill="#2E186A"/>
<path fill-rule="evenodd" clip-rule="evenodd" d="M324.115 157.168C335.429 157.342 344.016 157.865 349.122 158.852V158.852C390.663 168.314 383.933 199.081 383.933 199.081C383.933 199.081 363.626 202.97 347.091 178.473C347.091 178.473 324.406 196.991 290.812 204.48C290.29 204.364 289.652 204.19 289.072 204.015V205.699C287.099 205.176 283.908 204.596 280.601 204.828C280.949 192.695 283.154 177.37 293.133 167.501C300.212 160.477 310.655 156.994 324.115 157.168Z" fill="#2E186A"/>
<path fill-rule="evenodd" clip-rule="evenodd" d="M348.201 155.095C341.582 154.175 331.161 153.571 322.182 153.627C304.25 153.817 292.266 160.428 285.163 172.088C282.367 176.678 280.417 181.903 279.104 187.764C278.134 192.09 277.614 196.055 277.126 201.658C277.043 202.616 277.752 203.461 278.709 203.544C279.667 203.628 280.511 202.919 280.594 201.96L280.688 200.919C281.77 189.223 283.626 181.304 288.136 173.901C294.604 163.282 305.471 157.288 322.212 157.11L323.235 157.107C331.807 157.101 341.527 157.684 347.722 158.545C348.674 158.677 349.553 158.012 349.685 157.059C349.818 156.107 349.153 155.227 348.201 155.095Z" fill="white"/>
<path fill-rule="evenodd" clip-rule="evenodd" d="M215.097 131.916C229.428 90.9322 270.042 67.886 305.839 80.425C335.255 90.7 352.255 121.873 349.47 155.369C344.074 154.44 335.603 153.859 324.115 153.685C309.669 153.511 298.413 157.284 290.638 165.005C279.615 175.919 277.352 192.463 277.062 205.35C271.724 206.802 266.792 211.155 266.386 222.127C266.328 223.23 267.315 231.764 267.083 231.705C267.083 234.434 266.502 237.859 264.472 241.226C260.468 247.669 252.346 251.675 240.278 253.068C240.22 253.068 240.162 253.068 240.046 253.068C239.175 253.068 238.421 252.43 238.305 251.559C238.189 250.63 238.885 249.759 239.814 249.643C250.721 248.366 258.032 244.941 261.455 239.426C262.847 237.22 263.369 234.956 263.543 232.983C260.584 236.466 255.421 240.239 247.24 240.239C245.267 240.239 243.121 240.007 240.8 239.542C239.872 239.368 239.233 238.439 239.465 237.511C239.639 236.582 240.568 235.943 241.496 236.175C252.056 238.381 257.916 234.376 260.991 230.777C258.612 230.254 256.291 229.616 253.97 228.803C218.23 216.206 200.825 172.842 215.097 131.916Z" fill="#2E186A"/>
<path fill-rule="evenodd" clip-rule="evenodd" d="M319.648 199.139C332.337 199.139 342.624 209.431 342.624 222.127C342.624 234.823 332.337 245.115 319.648 245.115C306.959 245.115 296.672 234.823 296.672 222.127C296.672 209.431 306.959 199.139 319.648 199.139ZM319.648 202.622C308.881 202.622 300.154 211.355 300.154 222.127C300.154 232.9 308.881 241.632 319.648 241.632C330.414 241.632 339.142 232.9 339.142 222.127C339.142 211.355 330.414 202.622 319.648 202.622Z" fill="#2E186A"/>
<path fill-rule="evenodd" clip-rule="evenodd" d="M341.347 219.863C340.386 219.863 339.607 220.643 339.607 221.605C339.607 222.532 340.331 223.29 341.245 223.343L341.347 223.346H355.156C356.117 223.346 356.896 222.567 356.896 221.605C356.896 220.677 356.172 219.919 355.258 219.866L355.156 219.863H341.347Z" fill="#2E186A"/>
<path fill-rule="evenodd" clip-rule="evenodd" d="M289.928 203.544C289.092 203.071 288.03 203.366 287.557 204.203C287.101 205.01 287.358 206.025 288.125 206.521L288.215 206.576L300.225 213.368C301.062 213.842 302.124 213.546 302.597 212.709C303.053 211.903 302.796 210.888 302.029 210.391L301.938 210.336L289.928 203.544Z" fill="#2E186A"/>
<path fill-rule="evenodd" clip-rule="evenodd" d="M377.087 199.139C389.776 199.139 400.062 209.431 400.062 222.127C400.062 234.823 389.776 245.115 377.087 245.115C364.398 245.115 354.111 234.823 354.111 222.127C354.111 209.431 364.398 199.139 377.087 199.139ZM377.087 202.622C366.32 202.622 357.592 211.355 357.592 222.127C357.592 232.9 366.32 241.632 377.087 241.632C387.853 241.632 396.581 232.9 396.581 222.127C396.581 211.355 387.853 202.622 377.087 202.622Z" fill="#2E186A"/>
<path fill-rule="evenodd" clip-rule="evenodd" d="M231.053 464.664H243.121L249.039 376.833C249.445 370.679 254.783 365.687 260.933 365.687H429.13C435.28 365.687 439.98 370.679 439.515 376.833L432.959 474.068C432.553 480.221 427.215 485.214 421.065 485.214L231.111 484.981C227.63 484.981 224.845 482.137 224.845 478.712V470.991C224.787 467.508 227.572 464.664 231.053 464.664Z" fill="#FE7624"/>
<path fill-rule="evenodd" clip-rule="evenodd" d="M333.166 423.796C335.545 421.242 338.736 419.616 342.101 418.978C341.579 418.223 341.231 417.294 341.115 416.307C340.825 413.172 343.088 410.27 346.105 409.806C346.163 409.806 346.221 409.806 346.279 409.806C346.917 407.425 348.135 403.478 349.528 401.794C350.05 401.156 351.036 400.924 351.733 401.33C352.371 401.736 352.487 402.549 351.965 403.188C351.036 404.291 349.934 407.716 349.238 410.328C350.804 411.141 351.907 412.708 352.081 414.682C352.255 416.481 351.558 418.165 350.456 419.384C351.5 419.732 352.487 420.139 353.415 420.719C359.449 424.492 360.203 431.923 355.098 437.438C349.992 442.895 340.883 444.288 334.849 440.514C328.757 436.741 328.003 429.253 333.166 423.796Z" fill="white"/>
<path fill-rule="evenodd" clip-rule="evenodd" d="M335.719 401.504C335.719 401.504 344.422 399.763 345.583 407.019C345.525 407.019 338.678 409.457 335.719 401.504Z" fill="white"/>
<path d="M513.348 371.76C514.674 368.716 517.696 366.321 520.093 363.698C522.49 361.075 524.337 357.664 522.859 354.778C520.423 349.997 510.73 349.793 508.425 344.977C505.791 339.457 514.957 334.227 515.834 328.247C516.328 324.832 513.946 321.621 510.828 319.344C507.717 317.093 503.884 315.516 500.435 313.582C496.233 311.256 492.46 308.22 490.878 304.314C489.303 300.434 490.425 295.577 494.544 292.86C496.868 291.332 499.834 290.622 502.496 289.512C505.158 288.403 507.753 286.519 507.923 284.209C508.008 283.055 507.486 281.949 507.084 280.868C503.764 271.74 509.934 260.691 520.92 256.049C520.824 258.424 525.076 259.463 527.736 258.241C530.395 257.019 531.679 254.553 532.761 252.282C533.817 250.018 535.022 247.572 537.62 246.225C539.701 245.158 542.255 245.012 544.683 244.927C546.558 244.877 548.779 244.961 549.732 246.206C550.125 246.723 550.209 247.352 550.259 247.961C550.78 253.481 549.613 259.114 549.804 264.666C549.995 270.219 551.731 276.064 556.894 279.662C560.01 281.826 564.173 283.06 566.605 285.719C570.412 289.935 568.419 295.959 566.085 301.027C563.752 306.096 561.213 311.87 564.281 316.482C567.355 321.12 592.05 311.163 594.258 344.22C594.797 352.226 581.819 347.016 585.094 354.402C586.464 357.516 578.324 356.584 578.456 359.916C578.488 360.983 584.675 364.617 584.536 365.673C584.06 369.367 579.894 370.54 583.876 372.359C585.933 373.308 588.546 373.909 589.639 375.569C591.609 378.607 587.119 382.046 582.948 383.305C579.453 384.355 576 374.413 573.527 376.859C570.606 379.735 569.044 388.418 551.61 390.769C544.402 391.738 536.922 374.866 532.489 379.252C522.366 389.323 506.482 387.466 513.348 371.76Z" fill="#E3E5FC"/>
<rect width="105.406" height="1.00715" transform="matrix(-0.225356 -0.974277 0.974343 -0.22507 553.801 393.585)" fill="white"/>
<path d="M540.829 342.123L540.058 341.453C541.3 339.988 552.257 327.034 554.791 326.185L555.105 327.148C553.379 327.752 545.615 336.426 540.829 342.123Z" fill="white"/>
<path d="M535.809 323.177C526.856 315.954 511.867 303.557 512.112 301.736C512.134 301.504 512.283 301.323 512.506 301.207L512.925 302.141C513.102 302.065 513.158 301.852 513.137 301.773C513.542 303.391 527.656 315.259 536.468 322.378L535.809 323.177Z" fill="white"/>
<path d="M533.481 304.5L532.626 303.937C533.005 303.354 541.842 289.638 542.837 288.409L543.627 289.046C542.685 290.261 533.558 304.366 533.481 304.5Z" fill="white"/>
<path d="M556.235 327.892C556.422 326.172 556.693 324.345 558.222 323.002C560.193 321.313 563.547 320.895 566.407 321.261C569.247 321.66 571.868 322.712 574.713 323.337C575.462 323.504 576.343 323.636 577.043 323.307C577.744 322.977 578.062 322.27 578.262 321.65C580.443 314.33 577.129 307.011 576.69 299.799C576.53 297.833 576.649 295.65 577.899 293.9C581.142 289.069 582.684 291.458 585.608 286.174C587.636 282.49 587.675 275.8 591.44 273.235C599.198 267.901 600.177 285.751 601.035 289.795C602.645 297.485 613.337 296.375 611.949 305.916C611.336 310.042 608.869 313.562 607.344 317.338C605.853 321.133 605.589 325.93 609.301 328.53C611.722 330.202 615.824 330.999 616.307 333.642C616.586 335.209 615.282 336.549 614.034 337.676C610.868 340.477 607.54 343.095 604.03 345.564C603.157 346.194 602.204 346.846 601.943 347.765C601.569 348.997 602.582 350.254 603.356 351.461C606.157 355.918 605.449 361.06 602.429 365.039C599.436 369.011 594.43 371.993 589.232 374.575C582.522 377.929 575.407 380.826 567.901 383.206C545.81 389.21 552.415 371.479 552.957 365.193C553.842 352.617 554.935 340.183 556.235 327.892Z" fill="#FE7624"/>
<path d="M573.245 376.227C573.166 376.248 573.054 376.25 572.961 376.218C572.682 376.123 572.551 375.847 572.619 375.574L593.906 306.308C594 306.028 594.275 305.898 594.547 305.966C594.826 306.061 594.956 306.338 594.888 306.611L573.602 375.877C573.539 376.063 573.403 376.185 573.245 376.227Z" fill="white"/>
<path d="M585.342 336.818C585.132 336.874 584.912 336.791 584.777 336.601L579.683 328.74C579.533 328.497 579.594 328.198 579.829 328.022C580.07 327.872 580.369 327.934 580.545 328.17L585.638 336.031C585.788 336.274 585.727 336.573 585.493 336.749C585.447 336.789 585.394 336.804 585.342 336.818Z" fill="white"/>
<path d="M588.443 327.044C588.233 327.1 587.98 326.998 587.871 326.801C587.748 326.551 587.835 326.245 588.076 326.095L596.266 321.636C596.515 321.513 596.82 321.601 596.97 321.844C597.093 322.094 597.006 322.4 596.764 322.55L588.575 327.008C588.522 327.022 588.496 327.03 588.443 327.044Z" fill="white"/>
<path d="M522.197 389.849C521.329 388.61 520.668 387.089 520.945 385.6C521.495 382.708 525.248 381.674 528.126 382.318C530.996 382.935 533.615 384.61 536.545 384.816C539.474 385.021 542.94 382.706 542.228 379.84C541.873 378.407 540.613 377.387 539.506 376.41C536.344 373.55 533.966 369.829 532.678 365.759C532.208 364.215 532.182 362.015 533.712 361.52C534.618 361.221 535.572 361.729 536.38 362.22C539.764 364.228 543.148 366.236 546.499 368.225C545.012 360.36 543.692 351.544 548.17 344.91C548.994 343.671 550.505 342.474 551.837 343.135C552.424 343.431 552.785 344.042 553.086 344.64C555.356 349.324 555.153 354.982 557.822 359.474C558.223 360.131 558.711 360.792 559.39 361.12C562.633 362.6 564.572 356.165 568.119 356.149C570.423 356.126 571.782 358.988 571.447 361.313C571.131 363.605 569.794 365.662 569.299 367.917C568.804 370.172 569.537 373.117 571.806 373.697C572.861 373.952 573.958 373.63 574.97 373.302C578.168 372.304 581.386 371.272 584.585 370.273C583.529 373.273 582.472 376.273 581.423 379.299C581.153 380.079 580.892 380.998 581.289 381.741C582.174 383.258 584.652 382.198 586.206 383.055C587.927 384.009 587.416 386.834 585.838 387.993C584.261 389.151 582.176 389.257 580.228 389.666C569.445 392.018 563.788 401.09 551.969 399.785C542.392 398.644 528.44 398.845 522.197 389.849Z" fill="#5A54FF"/>
<path d="M559.849 399.429C559.612 399.492 559.431 399.343 559.374 399.131C557.208 388.732 553.744 371.18 554.753 370.315C554.915 370.187 555.147 370.209 555.302 370.366C555.423 370.503 555.42 370.702 555.317 370.843C554.846 372.243 558.015 388.798 560.151 398.98C560.181 399.198 560.033 399.379 559.849 399.429Z" fill="white"/>
<path d="M557.883 389.569C557.725 389.611 557.539 389.548 557.437 389.377C557.328 389.18 557.41 388.96 557.58 388.858L569.891 382.219C570.061 382.117 570.307 382.193 570.409 382.363C570.518 382.56 570.436 382.781 570.266 382.883L557.955 389.521C557.936 389.555 557.909 389.562 557.883 389.569Z" fill="white"/>
<path d="M559.285 396.693C559.232 396.707 559.146 396.702 559.087 396.69L539.581 390.993C539.368 390.937 539.252 390.713 539.315 390.526C539.37 390.313 539.593 390.197 539.779 390.261L559.285 395.958C559.497 396.014 559.613 396.237 559.551 396.424C559.534 396.57 559.416 396.658 559.285 396.693Z" fill="white"/>
<path d="M556.813 383.998C556.708 384.026 556.562 384.009 556.481 383.917L547.841 376.808C547.667 376.685 547.656 376.433 547.778 376.259C547.908 376.111 548.152 376.074 548.325 376.197L556.966 383.306C557.139 383.429 557.151 383.681 557.028 383.855C556.963 383.929 556.892 383.977 556.813 383.998Z" fill="white"/>
<path d="M609.291 386.859C609.897 384.178 610.228 381.627 611.438 379.095C611.858 378.247 612.411 377.363 613.298 377.097C613.482 377.048 613.673 377.025 613.813 377.129C613.947 377.206 614.023 377.384 614.065 377.542C617.574 387.271 604.508 390.15 599.689 382.47C599.39 381.984 599.11 381.465 599.133 380.921C599.174 379.919 600.225 379.213 601.223 379.257C602.221 379.301 603.124 379.936 603.877 380.64C605.845 382.518 606.981 385.072 608.068 387.554C606.532 384.344 605.971 380.674 606.537 377.211C606.62 376.679 606.872 376.045 607.395 376.103C607.653 376.119 607.848 376.322 608.036 376.498C609.321 377.823 609.883 379.71 609.949 381.532C610.06 383.313 609.696 385.109 609.291 386.859Z" fill="#978CFF"/>
<path d="M478.665 244.564C496.705 245.077 514.87 245.59 532.673 242.613C535.592 242.125 539.086 240.987 539.659 238.073C540.371 234.471 535.804 232.007 532.161 232.307C528.519 232.607 524.926 234.333 521.332 233.633C518.6 233.095 516.355 231.244 514.171 229.505C510.79 226.803 507.11 224.177 502.831 223.589C498.552 223.014 493.599 225.202 492.501 229.38C487.86 228.429 483.705 225.915 479.326 224.077C474.96 222.238 469.907 221.087 465.528 222.913C461.149 224.752 458.33 230.606 461.049 234.508C458.567 230.943 442.261 239.124 439.803 240.8C435.985 243.414 433.852 244.665 438.456 245.715C442.922 246.741 449.409 244.314 453.988 244.064C462.16 243.614 470.481 244.327 478.665 244.564Z" fill="#C6CAFA"/>
<path d="M461.846 130.423L466.569 129.439L463.222 133.305L461.846 130.423Z" fill="#4B369D"/>
<path d="M443.927 143.239C442.607 144.818 441.26 146.717 439.635 148.13C438.01 149.529 434.967 149.806 433.745 151.316C437.537 155.445 446.9 152.522 450.998 150.374C456.457 147.52 460.902 142.615 462.833 136.741C463.861 133.61 464.027 129.675 461.541 127.499C460.332 126.446 458.721 126.003 457.151 125.657C454.693 125.102 451.678 124.521 449.247 125.504C445.552 127.001 449.581 126.779 450.414 128.469C451.387 130.464 449.358 134.275 448.483 135.993C447.15 138.514 445.747 141.036 443.927 143.239Z" fill="#A7ADFF"/>
<path d="M458.401 130.423C458.946 130.423 459.388 129.983 459.388 129.439C459.388 128.896 458.946 128.456 458.401 128.456C457.857 128.456 457.415 128.896 457.415 129.439C457.415 129.983 457.857 130.423 458.401 130.423Z" fill="#4B369D"/>
<path d="M441.843 131.047C439.301 130.132 436.44 129.619 434.523 127.721C433.467 126.668 432.578 125.158 431.092 125.033C430.869 125.02 430.619 125.033 430.453 125.2C430.244 125.394 430.244 125.712 430.258 126.003C430.342 127.694 430.439 129.425 431.106 130.977C431.772 132.529 433.162 133.887 434.856 134.039C435.065 134.053 435.287 134.067 435.467 134.164C435.981 134.469 435.69 135.286 435.245 135.674C434.787 136.062 434.162 136.367 434.037 136.949C433.898 137.558 434.439 138.168 435.051 138.334C435.662 138.501 436.301 138.362 436.926 138.21C436.704 139.29 436.648 140.717 437.662 141.147C438.551 141.507 439.76 140.801 440.44 141.466C440.69 141.715 440.788 142.089 440.927 142.408C441.385 143.461 442.538 144.112 443.691 144.223C444.844 144.334 445.997 144.001 447.053 143.53C449.775 142.325 452.776 139.637 450.595 136.852C448.525 134.219 444.927 132.169 441.843 131.047Z" fill="#978CFF"/>
<path d="M70.2087 147.876C65.7139 147.812 59.5688 145.906 60.2917 141.389C60.9047 137.545 66.1382 136.809 69.7687 138.01C73.3991 139.211 77.2025 141.405 80.7701 140.028C82.2003 139.483 83.4261 138.394 84.9349 138.138C86.5065 137.882 88.1253 138.586 89.6812 138.218C91.9444 137.705 93.2646 135.143 95.4806 134.454C99.1739 133.301 103.292 137.834 106.639 135.864C108.729 134.63 108.949 131.731 109.421 129.313C111.275 120.088 121.758 113.729 130.607 116.452C142.158 120.024 148.146 135.463 160.153 136.648C165.135 137.145 185.692 133.141 181.936 145.457C179.61 153.065 155.564 148.981 149.419 148.901C123.031 148.581 96.6279 148.228 70.2087 147.876Z" fill="#C6CAFA"/>
<defs>
<linearGradient id="paint0_linear_254_977" x1="245.026" y1="-27.4501" x2="2.70086" y2="568.971" gradientUnits="userSpaceOnUse">
<stop stop-color="#E9EDFF"/>
<stop offset="1" stop-color="#DCD6EB" stop-opacity="0"/>
</linearGradient>
</defs>
</svg>
