<svg width="132" height="143" viewBox="0 0 132 143" fill="none" xmlns="http://www.w3.org/2000/svg">
<path d="M84.3676 104.907C83.3373 103.41 82.3365 101.796 82.2776 100.006C82.0421 93.3142 94.0521 91.0838 94.1404 84.3631C94.1993 80.6947 90.5786 78.1414 87.8999 75.5294C85.2212 72.9175 83.5139 68.0164 86.7225 65.9914C87.5467 65.4631 88.577 65.2577 89.4306 64.8175C92.3154 63.3208 92.9041 59.4468 91.815 56.4827C90.7258 53.5186 88.4887 51.1121 86.7813 48.4414C80.1582 37.9642 82.7191 24.611 85.4861 12.6371C86.016 10.4066 87.4878 7.55988 89.8133 8.14684C91.2262 8.49901 91.9033 10.0251 92.3742 11.3458C94.3759 17.0099 96.3776 22.674 98.3793 28.3381C99.2329 30.7447 100.587 33.5914 103.236 33.8555C108.505 34.4425 109.3 24.9631 114.569 24.2881C118.013 27.1642 118.278 32.1534 117.837 36.4968C117.395 40.8403 116.571 45.4773 118.631 49.3805C120.692 53.2838 127.197 55.1327 129.758 51.5229C133.202 56.4827 127.433 63.6436 130.435 68.8675C132.437 72.3305 137.412 73.2697 139.767 76.4979C141.768 79.2566 141.386 82.8958 141.032 86.2121C139.355 102.148 138.589 122.779 118.837 127.769C104.502 131.466 91.3145 114.973 84.3676 104.907Z" fill="#5D21D1"/>
<path d="M73.0642 116.969C72.446 116.323 71.8278 115.619 71.7395 114.738C71.5335 112.654 74.1533 111.657 76.2139 111.246C78.2744 110.835 80.8059 109.397 80.1583 107.401C79.9817 106.873 79.6285 106.462 79.2458 106.081C77.2736 104.114 74.8303 102.647 73.0936 100.475C71.3569 98.3034 70.4738 95.0458 72.1222 92.786C72.5932 92.1403 73.2702 91.6121 73.5057 90.849C73.9767 89.4403 72.8581 88.0316 71.9456 86.8577C69.5024 83.7469 62.9675 69.9534 70.7387 68.8088C73.2408 68.4273 75.684 70.0708 77.2441 72.0664C78.8042 74.0621 79.7462 76.4686 81.1297 78.611C86.2516 86.5056 95.3769 85.2143 98.8504 95.0458C99.2036 96.0436 99.704 97.1588 100.705 97.4523C103.06 98.098 104.62 92.7566 106.474 96.3664C110.183 103.645 113.922 113.711 110.654 121.752C108.712 126.595 104.149 132.582 98.1439 131.32C88.842 129.412 79.5402 123.66 73.0642 116.969Z" fill="#FE7624"/>
<path d="M98.9093 124.54C98.7032 124.54 98.5266 124.423 98.4089 124.247L81.8068 91.4944C81.6596 91.2303 81.7774 90.8781 82.0423 90.7607C82.3072 90.614 82.631 90.7314 82.7782 90.9955L99.3803 123.748C99.5275 124.012 99.4097 124.364 99.1448 124.481C99.0859 124.511 98.9976 124.54 98.9093 124.54Z" fill="white"/>
<path d="M120.515 129.764C120.251 129.764 120.015 129.588 119.986 129.324L103.501 48.2944C103.442 48.0009 103.648 47.7074 103.943 47.6487C104.237 47.59 104.532 47.7954 104.59 48.0889L121.075 129.118C121.134 129.412 120.928 129.705 120.633 129.764C120.604 129.764 120.574 129.764 120.515 129.764Z" fill="white"/>
<path d="M109.536 73.4751C109.447 73.4751 109.388 73.4458 109.3 73.4164C109.035 73.299 108.888 72.9762 109.035 72.6827L116.041 57.1577C116.159 56.8936 116.483 56.7469 116.777 56.8936C117.042 57.011 117.189 57.3338 117.042 57.6273L110.036 73.1523C109.948 73.3577 109.771 73.4751 109.536 73.4751Z" fill="white"/>
<path d="M115.835 102.793C115.747 102.793 115.688 102.764 115.6 102.735C115.335 102.617 115.188 102.295 115.335 102.001L122.341 86.4761C122.458 86.212 122.782 86.0652 123.076 86.212C123.341 86.3293 123.489 86.6522 123.341 86.9456L116.336 102.471C116.247 102.676 116.041 102.793 115.835 102.793Z" fill="white"/>
<path d="M111.331 89.2931C111.243 89.2931 111.184 89.2638 111.096 89.2344L95.9361 82.1029C95.6711 81.9855 95.5534 81.6333 95.6711 81.3692C95.7889 81.1051 96.1421 80.9877 96.407 81.1051L111.567 88.2366C111.832 88.354 111.949 88.7062 111.832 88.9703C111.743 89.1757 111.537 89.2931 111.331 89.2931Z" fill="white"/>
<path d="M83.2346 113.241C90.6231 110.365 98.7475 114.18 105.871 117.673C112.995 121.165 121.561 124.423 128.537 120.666C137.162 116 138.487 114.122 147.877 119.668C153.941 123.249 171.632 128.737 178.402 130.028C183.465 130.997 227.649 139.596 190 138.451C179.315 138.128 167.658 137.13 157.296 136.808C135.5 135 120.5 134.5 90.0002 135C83.5002 135 78.5002 135 63.0002 135C57.0541 129.424 78.0243 115.266 83.2346 113.241Z" fill="#D7DEFF"/>
<path d="M93.9051 114.65C93.8756 114.65 93.8462 114.65 93.7873 114.65C93.4929 114.591 93.2869 114.298 93.3458 114.004L95.6418 102.588C95.7007 102.294 95.995 102.089 96.2894 102.148C96.5838 102.206 96.7898 102.5 96.7309 102.793L94.4349 114.21C94.376 114.474 94.17 114.65 93.9051 114.65Z" fill="white"/>
<path d="M97.7085 133.193C97.5613 133.193 97.4141 133.135 97.2964 133.017L87.1409 121.924C86.9348 121.689 86.9642 121.337 87.1703 121.161C87.3763 120.985 87.759 120.985 87.9356 121.19L98.0912 132.284C98.2972 132.518 98.2678 132.871 98.0617 133.047C97.9734 133.135 97.8557 133.193 97.7085 133.193Z" fill="white"/>
<path d="M93.1458 128.205C93.0281 128.205 92.9103 128.175 92.822 128.087C92.5865 127.911 92.5276 127.559 92.7043 127.324L97.2669 121.22C97.4435 120.985 97.7967 120.926 98.0322 121.102C98.2677 121.278 98.3266 121.631 98.15 121.865L93.5873 127.97C93.499 128.146 93.3224 128.205 93.1458 128.205Z" fill="white"/>
<path d="M4.82031 5.47298L0.0973721 4.48926L3.4451 8.35485L4.82031 5.47298Z" fill="#4B369D"/>
<path d="M22.7398 18.2887C24.0594 19.8682 25.4068 21.7663 27.0321 23.1795C28.6573 24.5789 31.6995 24.856 32.9219 26.3662C29.1296 30.4951 19.7671 27.5716 15.6693 25.4241C10.2101 22.5699 5.76497 17.6652 3.83412 11.7906C2.80618 8.65931 2.63949 4.72444 5.12598 2.54918C6.3345 1.49619 7.94585 1.05282 9.51554 0.706441C11.9742 0.152234 14.9886 -0.429684 17.4195 0.554034C21.1145 2.05039 17.0861 1.82871 16.2527 3.51904C15.2803 5.51419 17.3084 9.32436 18.1835 11.0424C19.5171 13.564 20.92 16.0857 22.7398 18.2887Z" fill="#A7ADFF"/>
<path d="M8.26521 5.47281C7.72051 5.47281 7.27895 5.03238 7.27895 4.48909C7.27895 3.9458 7.72051 3.50537 8.26521 3.50537C8.8099 3.50537 9.25146 3.9458 9.25146 4.48909C9.25146 5.03238 8.8099 5.47281 8.26521 5.47281Z" fill="#4B369D"/>
<path d="M24.8234 6.09631C27.3654 5.18187 30.227 4.66923 32.1439 2.77107C33.1996 1.71807 34.0887 0.20786 35.575 0.0831631C35.7973 0.0693079 36.0473 0.0831631 36.214 0.249425C36.4223 0.443398 36.4223 0.762067 36.4085 1.05303C36.3251 2.74336 36.2279 4.47525 35.5611 6.02703C34.8943 7.57881 33.5052 8.93662 31.8105 9.08903C31.6022 9.10288 31.3799 9.11674 31.1993 9.21372C30.6854 9.51854 30.9771 10.336 31.4216 10.7239C31.88 11.1119 32.5051 11.4167 32.6301 11.9986C32.769 12.6082 32.2273 13.2179 31.6161 13.3841C31.0049 13.5504 30.3659 13.4118 29.7408 13.2594C29.963 14.3401 30.0186 15.7672 29.0046 16.1967C28.1155 16.557 26.907 15.8504 26.2264 16.5154C25.9763 16.7648 25.8791 17.1389 25.7402 17.4576C25.2818 18.5105 24.1288 19.1617 22.9759 19.2726C21.8229 19.3834 20.67 19.0509 19.6142 18.5798C16.8916 17.3744 13.8911 14.6865 16.072 11.9016C18.1418 9.26915 21.7396 7.21858 24.8234 6.09631Z" fill="#978CFF"/>
</svg>
